<svg width="70" height="30" viewBox="0 0 70 30" fill="none" xmlns="http://www.w3.org/2000/svg">
<path fill-rule="evenodd" clip-rule="evenodd" d="M40 15C40 23.2841 46.7159 30 55 30C63.2841 30 70 23.2841 70 15C70 6.71591 63.2841 8.89569e-07 55 1.25168e-06C46.7159 1.61379e-06 40 6.71591 40 15ZM51.9905 19.4905C51.7421 19.7476 51.6046 20.0921 51.6077 20.4496C51.6108 20.8072 51.7542 21.1492 52.0071 21.402C52.2599 21.6549 52.6019 21.7983 52.9595 21.8014C53.317 21.8045 53.6615 21.667 53.9186 21.4186L59.3732 15.9641C59.6288 15.7084 59.7724 15.3616 59.7724 15C59.7724 14.6384 59.6288 14.2916 59.3732 14.0359L53.9186 8.58136C53.6614 8.33297 53.317 8.19552 52.9595 8.19863C52.6019 8.20173 52.2599 8.34515 52.0071 8.59798C51.7542 8.8508 51.6108 9.19282 51.6077 9.55036C51.6046 9.90791 51.7421 10.2524 51.9905 10.5095L56.4809 15L51.9905 19.4905Z" fill="#D767C5"/>
<g opacity="0.3">
<path fill-rule="evenodd" clip-rule="evenodd" d="M30 15C30 6.71591 23.2841 -2.93562e-07 15 -6.55671e-07C6.71591 -1.01778e-06 1.61379e-06 6.71591 1.25168e-06 15C8.89569e-07 23.2841 6.71591 30 15 30C23.2841 30 30 23.2841 30 15ZM18.0095 10.5095C18.2579 10.2524 18.3954 9.9079 18.3923 9.55036C18.3892 9.19282 18.2458 8.8508 17.9929 8.59797C17.7401 8.34514 17.3981 8.20173 17.0405 8.19862C16.683 8.19552 16.3385 8.33297 16.0814 8.58136L10.6268 14.0359C10.3712 14.2916 10.2276 14.6384 10.2276 15C10.2276 15.3616 10.3712 15.7084 10.6268 15.9641L16.0814 21.4186C16.3385 21.667 16.683 21.8045 17.0405 21.8014C17.3981 21.7983 17.7401 21.6549 17.9929 21.402C18.2458 21.1492 18.3892 20.8072 18.3923 20.4496C18.3954 20.0921 18.2579 19.7476 18.0095 19.4905L13.5191 15L18.0095 10.5095Z" fill="#3A2E5C"/>
</g>
</svg>
