<svg width="177" height="21" viewBox="0 0 177 21" fill="none" xmlns="http://www.w3.org/2000/svg">
<path d="M21 10.5643C21 4.72966 16.2992 0 10.5013 0C4.70079 0.00131234 0 4.72966 0 10.5656C0 15.8373 3.8399 20.2073 8.85827 21V13.6181H6.19423V10.5656H8.86089V8.23622C8.86089 5.58924 10.4291 4.1273 12.8268 4.1273C13.9764 4.1273 15.1772 4.33333 15.1772 4.33333V6.93176H13.853C12.5499 6.93176 12.143 7.74672 12.143 8.58268V10.5643H15.0538L14.5892 13.6168H12.1417V20.9987C17.1601 20.206 21 15.836 21 10.5643Z" fill="url(#paint0_linear_26_42)"/>
<path d="M88.5 0C82.7016 0 78 4.70156 78 10.5C78 16.2984 82.7016 21 88.5 21C94.2984 21 99 16.2984 99 10.5C99 4.70156 94.2984 0 88.5 0ZM93.5461 7.91484C93.5531 8.025 93.5531 8.13984 93.5531 8.25234C93.5531 11.693 90.9328 15.6562 86.1445 15.6562C84.668 15.6562 83.2992 15.2273 82.1461 14.4891C82.357 14.5125 82.5586 14.5219 82.7742 14.5219C83.993 14.5219 85.1133 14.1094 86.0063 13.4109C84.8625 13.3875 83.9016 12.6375 83.5734 11.6063C83.9742 11.6648 84.3352 11.6648 84.7477 11.5594C84.1587 11.4397 83.6294 11.1199 83.2496 10.6542C82.8697 10.1885 82.6629 9.60564 82.6641 9.00469V8.97187C83.0086 9.16641 83.4141 9.28594 83.8383 9.30234C83.4817 9.06467 83.1892 8.74268 82.9868 8.36491C82.7844 7.98715 82.6784 7.56528 82.6781 7.13672C82.6781 6.65156 82.8047 6.20859 83.032 5.82422C83.6857 6.62891 84.5014 7.28705 85.4261 7.75586C86.3508 8.22466 87.3638 8.49364 88.3992 8.54531C88.0312 6.77578 89.3531 5.34375 90.9422 5.34375C91.6922 5.34375 92.3672 5.65781 92.843 6.16406C93.4312 6.05391 93.9937 5.83359 94.4953 5.53828C94.3008 6.14062 93.893 6.64922 93.3516 6.97031C93.8766 6.91406 94.3828 6.76875 94.8516 6.56484C94.4977 7.08516 94.0547 7.54688 93.5461 7.91484Z" fill="url(#paint1_linear_26_42)"/>
<path d="M49.5 0C43.7009 0 39 4.70094 39 10.5C39 16.2991 43.7009 21 49.5 21C55.2991 21 60 16.2991 60 10.5C60 4.70094 55.2991 0 49.5 0ZM46.9297 14.852H44.8034V8.00953H46.9297V14.852ZM45.8534 7.16953C45.1819 7.16953 44.7477 6.69375 44.7477 6.10531C44.7477 5.50484 45.195 5.04328 45.8808 5.04328C46.5666 5.04328 46.9866 5.50484 46.9997 6.10531C46.9997 6.69375 46.5666 7.16953 45.8534 7.16953ZM54.6953 14.852H52.5691V11.06C52.5691 10.1773 52.2606 9.57797 51.4917 9.57797C50.9044 9.57797 50.5555 9.98375 50.4013 10.3742C50.3444 10.5131 50.3302 10.71 50.3302 10.9058V14.8509H48.2028V10.1916C48.2028 9.33734 48.1755 8.62313 48.147 8.00844H49.9944L50.0917 8.95891H50.1344C50.4144 8.51266 51.1002 7.85422 52.2475 7.85422C53.6464 7.85422 54.6953 8.79156 54.6953 10.8063V14.852Z" fill="url(#paint2_linear_26_42)"/>
<path d="M127.5 0C121.701 0 117 4.70094 117 10.5C117 16.2991 121.701 21 127.5 21C133.299 21 138 16.2991 138 10.5C138 4.70094 133.299 0 127.5 0ZM128.219 12.9883C127.545 12.9369 127.263 12.6033 126.735 12.2839C126.446 13.8053 126.091 15.2644 125.041 16.0267C124.716 13.7255 125.516 11.9995 125.888 10.1653C125.255 9.09891 125.963 6.95406 127.3 7.48125C128.944 8.13312 125.876 11.4461 127.935 11.8606C130.086 12.2916 130.964 8.12875 129.631 6.77688C127.703 4.82234 124.023 6.73203 124.476 9.52984C124.585 10.2134 125.293 10.4213 124.758 11.3652C123.525 11.0917 123.157 10.1194 123.205 8.82328C123.28 6.70141 125.111 5.215 126.947 5.01047C129.269 4.75234 131.447 5.8625 131.749 8.04781C132.087 10.5131 130.7 13.1808 128.219 12.9883Z" fill="url(#paint3_linear_26_42)"/>
<path d="M169.781 10.5C169.781 11.3702 169.436 12.2048 168.82 12.8202C168.205 13.4355 167.37 13.7812 166.5 13.7812C165.63 13.7812 164.795 13.4355 164.18 12.8202C163.564 12.2048 163.219 11.3702 163.219 10.5C163.219 10.313 163.238 10.1303 163.272 9.95312H162.125V14.3248C162.125 14.6289 162.371 14.875 162.675 14.875H170.326C170.472 14.8747 170.611 14.8166 170.714 14.7135C170.817 14.6103 170.875 14.4706 170.875 14.3248V9.95312H169.728C169.762 10.1303 169.781 10.313 169.781 10.5ZM166.5 12.6875C166.787 12.6874 167.072 12.6308 167.337 12.5207C167.603 12.4107 167.844 12.2495 168.047 12.0462C168.25 11.843 168.411 11.6018 168.521 11.3363C168.631 11.0708 168.688 10.7862 168.688 10.4989C168.687 10.2116 168.631 9.92706 168.521 9.66162C168.411 9.39618 168.249 9.15501 168.046 8.95188C167.843 8.74876 167.602 8.58765 167.336 8.47775C167.071 8.36786 166.786 8.31133 166.499 8.31141C165.919 8.31155 165.362 8.54222 164.952 8.95266C164.542 9.3631 164.311 9.91969 164.311 10.5C164.312 11.0803 164.542 11.6368 164.953 12.047C165.363 12.4573 165.92 12.6876 166.5 12.6875ZM169.125 8.20312H170.436C170.524 8.20313 170.607 8.16859 170.669 8.10709C170.731 8.04558 170.765 7.96212 170.766 7.875V6.56359C170.766 6.47628 170.731 6.39254 170.669 6.3308C170.607 6.26906 170.524 6.23438 170.436 6.23438H169.125C169.038 6.23438 168.954 6.26906 168.892 6.3308C168.83 6.39254 168.796 6.47628 168.796 6.56359V7.875C168.797 8.05547 168.945 8.20312 169.125 8.20312ZM166.5 0C163.715 0 161.045 1.10625 159.075 3.07538C157.106 5.04451 156 7.71523 156 10.5C156 13.2848 157.106 15.9555 159.075 17.9246C161.045 19.8938 163.715 21 166.5 21C167.879 21 169.244 20.7284 170.518 20.2007C171.792 19.6731 172.95 18.8996 173.925 17.9246C174.9 16.9496 175.673 15.7921 176.201 14.5182C176.728 13.2443 177 11.8789 177 10.5C177 9.12112 176.728 7.75574 176.201 6.48182C175.673 5.20791 174.9 4.05039 173.925 3.07538C172.95 2.10036 171.792 1.32694 170.518 0.799265C169.244 0.271591 167.879 0 166.5 0ZM171.969 14.7536C171.969 15.4219 171.422 15.9688 170.754 15.9688H162.246C161.578 15.9688 161.031 15.4219 161.031 14.7536V6.24641C161.031 5.57812 161.578 5.03125 162.246 5.03125H170.754C171.422 5.03125 171.969 5.57812 171.969 6.24641V14.7536Z" fill="url(#paint4_linear_26_42)"/>
<defs>
<linearGradient id="paint0_linear_26_42" x1="10.5" y1="0" x2="10.5" y2="21" gradientUnits="userSpaceOnUse">
<stop stop-color="#A590F9"/>
<stop offset="1" stop-color="#6A45FB"/>
</linearGradient>
<linearGradient id="paint1_linear_26_42" x1="88.5" y1="0" x2="88.5" y2="21" gradientUnits="userSpaceOnUse">
<stop stop-color="#A590F9"/>
<stop offset="1" stop-color="#6A45FB"/>
</linearGradient>
<linearGradient id="paint2_linear_26_42" x1="49.5" y1="0" x2="49.5" y2="21" gradientUnits="userSpaceOnUse">
<stop stop-color="#A590F9"/>
<stop offset="1" stop-color="#6A45FB"/>
</linearGradient>
<linearGradient id="paint3_linear_26_42" x1="127.5" y1="0" x2="127.5" y2="21" gradientUnits="userSpaceOnUse">
<stop stop-color="#A590F9"/>
<stop offset="1" stop-color="#6A45FB"/>
</linearGradient>
<linearGradient id="paint4_linear_26_42" x1="166.5" y1="0" x2="166.5" y2="21" gradientUnits="userSpaceOnUse">
<stop stop-color="#A590F9"/>
<stop offset="1" stop-color="#6A45FB"/>
</linearGradient>
</defs>
</svg>
