<svg width="140" height="21" viewBox="0 0 140 21" fill="none" xmlns="http://www.w3.org/2000/svg">
<g clip-path="url(#clip0_26_23)">
<path d="M94.515 19.3643C94.0325 19.6118 93.485 19.1781 93.5825 18.6243L94.62 12.7118L90.2163 8.51681C89.805 8.12431 90.0188 7.40681 90.57 7.32931L96.6925 6.45931L99.4225 1.05056C99.6688 0.563062 100.335 0.563062 100.581 1.05056L103.311 6.45931L109.434 7.32931C109.985 7.40681 110.199 8.12431 109.786 8.51681L105.384 12.7118L106.421 18.6243C106.519 19.1781 105.971 19.6118 105.489 19.3643L100 16.5443L94.5138 19.3643H94.515Z" fill="#D767C5"/>
</g>
<g clip-path="url(#clip1_26_23)">
<path d="M124.515 19.3643C124.033 19.6118 123.485 19.1781 123.583 18.6243L124.62 12.7118L120.216 8.51681C119.805 8.12431 120.019 7.40681 120.57 7.32931L126.693 6.45931L129.423 1.05056C129.669 0.563062 130.335 0.563062 130.581 1.05056L133.311 6.45931L139.434 7.32931C139.985 7.40681 140.199 8.12431 139.786 8.51681L135.384 12.7118L136.421 18.6243C136.519 19.1781 135.971 19.6118 135.489 19.3643L130 16.5443L124.514 19.3643H124.515Z" fill="#D767C5"/>
</g>
<g clip-path="url(#clip2_26_23)">
<path d="M64.515 19.3643C64.0325 19.6118 63.485 19.1781 63.5825 18.6243L64.62 12.7118L60.2163 8.51681C59.805 8.12431 60.0188 7.40681 60.57 7.32931L66.6925 6.45931L69.4225 1.05056C69.6688 0.563062 70.335 0.563062 70.5813 1.05056L73.3113 6.45931L79.4338 7.32931C79.985 7.40681 80.1988 8.12431 79.7863 8.51681L75.3838 12.7118L76.4213 18.6243C76.5188 19.1781 75.9713 19.6118 75.4888 19.3643L70 16.5443L64.5138 19.3643H64.515Z" fill="#D767C5"/>
</g>
<g clip-path="url(#clip3_26_23)">
<path d="M34.515 19.3643C34.0325 19.6118 33.485 19.1781 33.5825 18.6243L34.62 12.7118L30.2163 8.51681C29.805 8.12431 30.0188 7.40681 30.57 7.32931L36.6925 6.45931L39.4225 1.05056C39.6688 0.563062 40.335 0.563062 40.5813 1.05056L43.3113 6.45931L49.4338 7.32931C49.985 7.40681 50.1988 8.12431 49.7863 8.51681L45.3838 12.7118L46.4213 18.6243C46.5188 19.1781 45.9713 19.6118 45.4888 19.3643L40 16.5443L34.5138 19.3643H34.515Z" fill="#D767C5"/>
</g>
<g clip-path="url(#clip4_26_23)">
<path d="M4.51503 19.3643C4.03253 19.6118 3.48503 19.1781 3.58253 18.6243L4.62003 12.7118L0.216276 8.51681C-0.194974 8.12431 0.0187758 7.40681 0.570026 7.32931L6.69253 6.45931L9.42253 1.05056C9.66878 0.563062 10.335 0.563062 10.5813 1.05056L13.3113 6.45931L19.4338 7.32931C19.985 7.40681 20.1988 8.12431 19.7863 8.51681L15.3838 12.7118L16.4213 18.6243C16.5188 19.1781 15.9713 19.6118 15.4888 19.3643L10 16.5443L4.51378 19.3643H4.51503Z" fill="#D767C5"/>
</g>
<defs>
<clipPath id="clip0_26_23">
<rect width="20" height="20" fill="white" transform="translate(90 0.0605469)"/>
</clipPath>
<clipPath id="clip1_26_23">
<rect width="20" height="20" fill="white" transform="translate(120 0.0605469)"/>
</clipPath>
<clipPath id="clip2_26_23">
<rect width="20" height="20" fill="white" transform="translate(60 0.0605469)"/>
</clipPath>
<clipPath id="clip3_26_23">
<rect width="20" height="20" fill="white" transform="translate(30 0.0605469)"/>
</clipPath>
<clipPath id="clip4_26_23">
<rect width="20" height="20" fill="white" transform="translate(0 0.0605469)"/>
</clipPath>
</defs>
</svg>
