<svg width="26" height="32" viewBox="0 0 26 32" fill="none" xmlns="http://www.w3.org/2000/svg">
<g clip-path="url(#clip0_20_226)">
<path d="M21.1891 17.1647C21.2203 14.6971 22.4895 12.4178 24.552 11.1253C23.2449 9.22264 21.1342 8.05954 18.8565 7.9869C16.4602 7.73052 14.137 9.44847 12.9159 9.44847C11.6712 9.44847 9.79105 8.01235 7.76649 8.05481C5.10268 8.14253 2.6795 9.64884 1.38351 12.0226C-1.37636 16.8931 0.682253 24.0509 3.32598 27.9878C4.64869 29.9156 6.19456 32.069 8.2173 31.9926C10.1967 31.909 10.9359 30.7061 13.3252 30.7061C15.6923 30.7061 16.3859 31.9926 18.4497 31.9441C20.5736 31.9089 21.9118 30.0077 23.1881 28.0617C24.1385 26.6881 24.8698 25.1699 25.3549 23.5635C22.8323 22.476 21.192 19.9565 21.1891 17.1647Z" fill="#203A59"/>
<path d="M17.291 5.3977C18.4491 3.98067 19.0196 2.15932 18.8814 0.320435C17.1122 0.509846 15.4778 1.37175 14.3041 2.73441C13.1451 4.07886 12.558 5.83776 12.672 7.62371C14.465 7.64252 16.1674 6.82208 17.291 5.3977Z" fill="#203A59"/>
</g>
<defs>
<clipPath id="clip0_20_226">
<rect width="26" height="32" fill="white"/>
</clipPath>
</defs>
</svg>
