<svg width="29" height="32" viewBox="0 0 29 32" fill="none" xmlns="http://www.w3.org/2000/svg">
<g clip-path="url(#clip0_20_244)">
<path d="M0.570563 0.499362C0.169412 0.980726 -0.0330636 1.59696 0.00440888 2.22244V29.4471C-0.0330636 30.0725 0.169412 30.6888 0.570563 31.1701L0.656717 31.2563L15.9059 16.0194V15.6624L0.656717 0.413208L0.570563 0.499362Z" fill="url(#paint0_linear_20_244)"/>
<path d="M20.9521 21.1025L15.9059 16.0194V15.6625L20.9521 10.5671L21.0629 10.6287L27.1059 14.0625C28.829 15.0348 28.829 16.6348 27.1059 17.6194L21.0875 21.041L20.9521 21.1025Z" fill="url(#paint1_linear_20_244)"/>
<path d="M21.0998 21.0287L15.9059 15.8348L0.570557 31.1702C1.29513 31.8072 2.37047 31.8382 3.13056 31.2441L21.1121 21.0287" fill="url(#paint2_linear_20_244)"/>
<path d="M21.0998 10.641L3.11826 0.425567C2.35817 -0.168557 1.28283 -0.137537 0.558258 0.499413L15.906 15.8348L21.0998 10.641Z" fill="url(#paint3_linear_20_244)"/>
</g>
<defs>
<linearGradient id="paint0_linear_20_244" x1="9.70803" y1="1.93936" x2="-3.36439" y2="15.0118" gradientUnits="userSpaceOnUse">
<stop stop-color="#00A0FF"/>
<stop offset="0.01" stop-color="#00A1FF"/>
<stop offset="0.26" stop-color="#00BEFF"/>
<stop offset="0.51" stop-color="#00D2FF"/>
<stop offset="0.76" stop-color="#00DFFF"/>
<stop offset="1" stop-color="#00E3FF"/>
</linearGradient>
<linearGradient id="paint1_linear_20_244" x1="29.3583" y1="15.8348" x2="-0.414055" y2="15.8348" gradientUnits="userSpaceOnUse">
<stop stop-color="#FFE000"/>
<stop offset="0.41" stop-color="#FFBD00"/>
<stop offset="0.78" stop-color="#FFA500"/>
<stop offset="1" stop-color="#FF9C00"/>
</linearGradient>
<linearGradient id="paint2_linear_20_244" x1="18.2813" y1="20.7296" x2="-4.05029" y2="43.0514" gradientUnits="userSpaceOnUse">
<stop stop-color="#FF3A44"/>
<stop offset="1" stop-color="#C31162"/>
</linearGradient>
<linearGradient id="paint3_linear_20_244" x1="-3.29405" y1="-1.8735" x2="6.67361" y2="8.09415" gradientUnits="userSpaceOnUse">
<stop stop-color="#32A071"/>
<stop offset="0.07" stop-color="#2DA771"/>
<stop offset="0.48" stop-color="#15CF74"/>
<stop offset="0.8" stop-color="#06E775"/>
<stop offset="1" stop-color="#00F076"/>
</linearGradient>
<clipPath id="clip0_20_244">
<rect width="29" height="32" fill="white"/>
</clipPath>
</defs>
</svg>
