<svg width="103" height="87" viewBox="0 0 103 87" fill="none" xmlns="http://www.w3.org/2000/svg">
<path d="M102.138 0H0V70.7146H102.138V0Z" fill="#383A4F"/>
<path d="M19.277 69.655C19.2233 69.9146 19.5251 86.8968 19.5251 86.8968L28.2617 69.7462L19.277 69.655Z" fill="#383A4F"/>
<path d="M99.5361 3.09473H2.60156V67.627H99.5361V3.09473Z" fill="white"/>
<path opacity="0.4" d="M99.5361 55.957H17.48C16.3871 55.957 15.4953 55.0307 15.4953 53.8798V3.09473H99.5361V55.957Z" fill="#8B68B4"/>
<path opacity="0.83" d="M99.5361 51.7185H22.2205C21.5835 51.7185 21.0672 51.1781 21.0672 50.5115V3.09473H99.5361V51.7185Z" fill="white"/>
<g opacity="0.36">
<path opacity="0.36" d="M93.6155 16.5331C92.6634 15.6559 90.7793 15.9296 89.5255 15.9015C85.764 15.8103 82.0024 15.7682 78.2342 15.7893C78.0263 15.7893 77.8386 15.9296 77.8386 16.1191C77.8051 18.9331 77.8989 21.74 78.1135 24.547C76.5646 22.5541 74.8884 20.6032 72.9104 18.9261C72.8031 18.8348 72.5819 18.9541 72.6824 19.0734C74.5732 21.2839 76.5378 23.4242 78.2208 25.754C78.3884 25.9856 78.8913 25.9294 78.8712 25.6137C78.6633 22.5681 78.5694 19.5155 78.6164 16.4629C81.6001 16.484 84.5906 16.5191 87.5743 16.5752C89.0494 16.6033 90.5446 16.5752 92.0197 16.6805C93.6692 16.7998 93.3138 18.1541 93.7161 19.1366C93.7966 19.3331 94.0849 19.3331 94.1787 19.1436C94.5542 18.3506 94.3061 17.1717 93.6155 16.5331Z" fill="#2A164A"/>
<path opacity="0.36" d="M93.0255 22.3083C92.5628 22.7645 91.9862 23.8031 91.1011 23.5715C90.5915 23.4381 90.4575 22.8136 90.2965 22.4417C90.1155 22.0276 89.9345 21.6136 89.7534 21.1996C89.6663 20.9961 89.3109 20.8908 89.1634 21.1224C88.9086 21.5224 88.6337 21.9154 88.3118 22.2803C88.0839 22.5399 87.5072 23.2978 87.0379 23.1294C86.6624 22.996 86.5216 22.3715 86.4747 22.0136C86.7294 21.5013 86.8568 20.947 86.763 20.3645C86.7227 20.1329 86.2735 20.0698 86.1595 20.2873C85.8846 20.8136 85.7639 21.361 85.8109 21.9294C85.717 22.0978 85.6097 22.2592 85.489 22.4206C85.0867 22.9399 84.4967 23.5855 83.7994 23.8171C82.8741 24.1259 82.3108 23.3469 82.0896 22.6873C81.9689 22.3224 81.6739 20.982 82.2907 20.9189C82.4852 20.8978 82.4248 20.6522 82.2505 20.6452C82.1365 20.6382 82.0292 20.6312 81.9152 20.6242C81.8549 20.6171 81.7744 20.6522 81.7476 20.7014C81.3118 21.4803 81.2716 22.3855 81.6471 23.1925C81.9756 23.9013 82.6662 24.5539 83.6317 24.4346C84.5973 24.3153 85.3415 23.5574 85.8913 22.9189C85.9316 22.8697 85.9651 22.8136 86.0053 22.7645C86.1394 23.1153 86.3406 23.4522 86.6624 23.6276C87.7084 24.182 88.7812 22.8487 89.3846 21.9434C89.5724 22.3926 89.7601 22.8487 89.9747 23.2908C90.1825 23.7259 90.4977 24.0697 91.0676 24.1539C92.2812 24.3364 93.1193 23.368 93.3071 22.4557C93.3205 22.3294 93.1462 22.189 93.0255 22.3083Z" fill="#2A164A"/>
<path opacity="0.36" d="M98.4364 14.7295C98.2889 14.5892 98.0811 14.5752 97.8732 14.5611C97.6721 14.5471 97.4642 14.512 97.2765 14.4488C97.0016 14.3506 96.7267 14.1401 96.6931 13.8734C96.6797 13.6138 96.2104 13.5997 96.2104 13.8664C96.2104 13.8874 96.2171 13.9015 96.2238 13.9225H96.2171C96.2774 14.2734 96.2908 14.6453 96.1769 14.9892C96.1232 15.1646 96.0428 15.326 95.9221 15.4804C95.8282 15.5997 95.6136 15.8243 95.4326 15.8243C95.2583 15.8243 95.218 15.5786 95.1979 15.4664C95.1577 15.2137 95.1376 14.9611 95.1242 14.7085C95.104 14.2032 95.1376 13.705 95.2248 13.2068C95.2449 13.1085 95.0437 13.0804 95.0236 13.1787C94.9163 13.6418 94.856 14.119 94.8493 14.5892C94.8425 14.8278 94.8493 15.0664 94.8694 15.2979C94.8828 15.4734 94.8962 15.6558 94.97 15.8172C95.037 15.9506 95.151 16.0699 95.3253 16.105C95.5533 16.1541 95.7611 16.0348 95.9221 15.9155C96.2238 15.6979 96.4182 15.3892 96.5322 15.0734C96.5792 14.926 96.606 14.7787 96.6328 14.6313C96.72 14.7015 96.8138 14.7576 96.9211 14.8067C97.1558 14.919 97.4106 14.9751 97.6721 15.0102C97.9336 15.0453 98.2152 15.0804 98.4298 14.919C98.4968 14.8699 98.4901 14.7787 98.4364 14.7295Z" fill="#2A164A"/>
<path opacity="0.36" d="M71.6029 37.2485C71.4018 37.4941 70.9056 37.5011 70.6374 37.3468C70.2754 37.1433 70.1144 36.7362 69.987 36.3994C69.8999 36.1678 69.5579 36.1187 69.397 36.3222C69.0953 36.6941 68.8002 37.0731 68.4985 37.445C68.3644 37.6134 67.7006 38.5678 67.6068 37.9853C67.4592 37.1011 67.6604 36.0977 67.8682 35.2345C67.9487 34.9117 67.3654 34.7573 67.2849 35.0871C67.0905 35.8731 66.7217 36.6099 66.1719 37.2555C65.7495 37.7467 64.8108 38.7713 63.9793 38.5888C63.4832 38.4836 63.4027 37.9573 63.3356 37.5924C63.2485 37.1503 63.2284 36.7012 63.2485 36.252C63.3021 35.3468 63.5904 34.4626 64.0732 33.6626C64.2006 33.4451 63.8318 33.2486 63.6977 33.4661C63.1077 34.3994 62.7724 35.438 62.7255 36.4976C62.692 37.2696 62.6718 38.673 63.6776 39.0239C64.6834 39.3748 65.736 38.4766 66.3194 37.8871C66.5608 37.6415 66.7686 37.3818 66.9631 37.1152V37.1222C66.9429 37.5643 66.7954 38.3362 67.2849 38.638C67.7341 38.9187 68.2706 38.659 68.5656 38.3362C68.9343 37.9292 69.2629 37.4941 69.5982 37.059C69.8127 37.452 70.1077 37.8099 70.6039 37.9432C71.1738 38.1046 71.8175 37.9152 71.9784 37.3889C72.0455 37.1924 71.737 37.0801 71.6029 37.2485Z" fill="#2A164A"/>
<path opacity="0.36" d="M77.5637 38.1818C77.4698 38.0275 77.2687 37.8941 77.1279 37.7748C76.9603 37.6345 76.7926 37.4871 76.625 37.3468C76.5647 37.2906 76.4976 37.2415 76.4373 37.1854C76.4842 37.0661 76.5378 36.9538 76.5781 36.8345C76.8328 36.1398 77.0206 35.431 77.0139 34.7012C77.0139 34.5258 76.7122 34.5258 76.6988 34.6942C76.625 35.4029 76.3702 36.0836 76.0484 36.7433C76.035 36.7713 76.0216 36.7994 76.0081 36.8205C75.8875 36.7152 75.7668 36.6099 75.6394 36.5117L73.6279 34.8836C73.4334 34.7222 73.1451 34.9608 73.3261 35.1363C73.9564 35.7328 74.5867 36.3222 75.2102 36.9187C75.3779 37.0731 75.5455 37.2275 75.7131 37.3748C75.6595 37.4731 75.6058 37.5783 75.5522 37.6836C75.3712 38.0204 75.1566 38.3783 75.0292 38.7292C74.9219 39.0309 75.4449 39.2415 75.6192 38.9538C75.8271 38.6239 75.9813 38.252 76.1355 37.9011C76.149 37.8661 76.1624 37.831 76.1758 37.7959L76.6183 38.1889C76.7792 38.3362 76.9401 38.5327 77.1681 38.5959C77.4631 38.6871 77.6844 38.3994 77.5637 38.1818Z" fill="#2A164A"/>
<path opacity="0.36" d="M94.6749 35.1502C94.5877 35.0239 94.4 35.0871 94.3799 35.2134C94.2927 35.7818 93.9038 36.4765 93.2065 36.6239C92.3818 36.7993 91.6577 36.1327 91.6845 35.452C91.6979 35.0801 91.0207 34.9748 90.9134 35.3467C90.739 35.9643 90.4641 36.9818 89.559 37.0379C88.2582 37.1151 88.0705 35.6906 88.1576 34.8906C88.1979 34.5678 87.5877 34.4906 87.5005 34.8064C87.2658 35.6906 86.6222 36.652 85.5896 36.9958C84.0608 37.5011 83.8664 35.8309 83.9334 34.9397C83.9536 34.645 83.3903 34.5537 83.3166 34.8555C83.3099 34.8766 83.3099 34.9046 83.3032 34.9257C83.3032 34.9327 83.3032 34.9397 83.3032 34.9467C83.2697 35.1292 83.2562 35.3327 83.2562 35.5432C83.1691 35.9923 82.9612 36.4625 82.579 36.6941C82.4248 36.7853 82.1365 36.8765 82.0158 36.7853C81.9085 36.7081 81.9488 36.3853 81.9555 36.245C81.9756 35.845 82.1231 35.473 82.3578 35.1292C82.4516 34.9958 82.2237 34.8836 82.1231 35.0029C81.7543 35.445 80.8961 37.2905 82.1097 37.3818C82.6327 37.4239 83.102 36.9046 83.3635 36.5748C83.3836 36.5467 83.4038 36.5116 83.4239 36.4835C83.672 37.1853 84.2084 37.7537 85.1873 37.6905C86.2266 37.6133 87.0245 36.9748 87.5475 36.2099C87.7553 36.9537 88.2984 37.5923 89.3243 37.6905C90.3032 37.7818 90.9 37.2134 91.2687 36.5327C91.6979 37.087 92.4421 37.4519 93.2534 37.3327C94.3866 37.1713 95.3119 36.0625 94.6749 35.1502Z" fill="#2A164A"/>
<path opacity="0.36" d="M58.7293 6.14727C58.6891 5.9999 58.4745 5.92271 58.3203 5.9999C53.4391 8.49109 48.5243 10.9753 43.7503 13.6278C43.5827 13.4875 43.4016 13.3612 43.2005 13.2629C43.1267 13.2278 43.0127 13.2419 42.9725 13.3121C42.8988 13.4384 42.872 13.5507 42.9658 13.677C43.0195 13.7471 43.1401 13.705 43.1267 13.6208V13.6138C43.2072 13.691 43.2876 13.7612 43.3681 13.8384C42.9256 14.084 42.4764 14.3226 42.0405 14.5752C41.9198 14.6454 42.0204 14.8068 42.1478 14.7436C42.6239 14.505 43.0932 14.2594 43.5693 14.0208C43.757 14.1963 43.9381 14.3717 44.099 14.5752C44.4141 14.9752 44.6689 15.4103 44.8432 15.8664C44.9505 16.1541 45.0645 16.4839 45.1181 16.8138C43.0999 16.6804 41.0884 16.491 39.0702 16.2664C38.7819 16.2383 38.7014 16.6594 38.9897 16.7085C41.0146 17.0313 43.0664 17.2418 45.1382 17.3681C45.1047 17.705 44.984 18.0137 44.6823 18.2523C44.622 18.3014 44.6421 18.4067 44.7292 18.4207C45.2924 18.533 45.5472 18.0137 45.6143 17.6208C45.6277 17.5506 45.6277 17.4734 45.6277 17.3962C50.4017 17.6558 55.236 17.4453 59.9161 16.8909C60.0435 16.8769 60.1441 16.7506 60.1441 16.6453C60.077 13.1086 59.6278 9.59282 58.7293 6.14727ZM49.3088 16.9752C48.075 16.9681 46.848 16.905 45.621 16.8348C45.5808 16.5541 45.5003 16.2734 45.4132 16.0067C45.2254 15.4594 44.9438 14.9401 44.575 14.4699C44.4007 14.2454 44.1995 14.0138 43.9783 13.8033C48.7388 11.3963 53.4525 8.92617 58.2533 6.58235C58.9841 9.8244 59.4401 13.1086 59.5473 16.4067C56.1546 16.8138 52.735 17.0032 49.3088 16.9752Z" fill="#2A164A"/>
<path opacity="0.36" d="M65.8702 9.41736C65.5483 9.43841 65.2399 9.58578 64.9516 9.69104C64.6498 9.80332 64.3548 9.92261 64.0531 10.0419C63.4429 10.2875 62.7858 10.5051 62.2226 10.8138C62.1355 10.8629 62.1824 10.9963 62.2964 10.9682C62.9333 10.8138 63.5435 10.5401 64.1537 10.3086C64.4554 10.1963 64.7638 10.084 65.0588 9.96472C65.3539 9.84542 65.7025 9.74016 65.9372 9.54367C65.9841 9.50859 65.9506 9.41736 65.8702 9.41736Z" fill="#2A164A"/>
<path opacity="0.36" d="M68.237 8.34371C68.0292 8.22441 67.7542 8.28055 67.5263 8.3016C67.2245 8.33669 66.9161 8.37178 66.6144 8.39985C66.3127 8.43494 66.0042 8.47002 65.7025 8.49809C65.5483 8.51213 65.4008 8.53318 65.2466 8.56125C65.0923 8.58932 64.9046 8.59634 64.7705 8.67353C64.6699 8.73668 64.6834 8.84896 64.7973 8.89107C64.9113 8.93317 65.0387 8.91914 65.1594 8.91212C65.2935 8.91212 65.4209 8.91212 65.555 8.89809C65.8165 8.87703 66.078 8.85598 66.3395 8.83493L67.124 8.77177C67.3654 8.75072 67.6201 8.70861 67.8615 8.71563H67.8682C67.8347 8.79984 67.7878 8.87703 67.7475 8.96124C67.6537 9.13668 67.5464 9.3051 67.4257 9.47351C67.3117 9.63491 67.191 9.78228 67.0569 9.92965C66.9899 10.0068 66.9094 10.077 66.8491 10.1542C66.7753 10.2384 66.7418 10.3296 66.6881 10.4279C66.6144 10.5682 66.8289 10.6735 66.963 10.6174C67.2312 10.5051 67.3855 10.3437 67.5665 10.1402C67.7341 9.9507 67.8816 9.75421 68.0157 9.55071C68.1498 9.3472 68.2638 9.1437 68.3644 8.92616C68.465 8.72967 68.4784 8.48406 68.237 8.34371Z" fill="#2A164A"/>
<path opacity="0.36" d="M81.6605 7.31916C81.4258 7.27706 81.1911 7.256 80.9565 7.20688C80.7017 7.15074 80.4938 7.03846 80.2524 6.96829C79.9708 6.88408 79.7026 6.91917 79.4612 7.07355C79.1997 7.24197 79.0522 7.50161 78.8377 7.71214C78.308 8.22441 77.8185 7.64196 77.5771 7.19987C77.4564 6.97531 77.0809 7.0946 77.0675 7.31214C77.034 7.6981 76.511 7.82442 76.1758 7.656C75.8539 7.50161 75.7198 7.19986 75.7131 6.8911C75.7064 6.66654 75.3712 6.57531 75.2237 6.7718C74.8884 7.2139 74.4995 7.63495 74.0369 7.9788C73.6815 8.24546 73.2993 8.04196 73.1585 7.70512C73.0378 7.4174 73.0579 7.10864 73.1853 6.82794C73.2725 6.55426 72.8165 6.449 72.7026 6.70163C72.555 7.17881 72.2667 7.60688 71.8175 7.92266C71.4957 8.14722 70.8989 8.31564 70.6441 7.93669C70.4698 7.67705 70.443 7.2139 70.4765 6.91215C70.4832 6.87706 70.4162 6.87005 70.4095 6.90513C70.2485 7.31916 70.0139 7.67705 70.2619 8.11915C70.4363 8.42791 70.805 8.63844 71.214 8.60335C71.784 8.56125 72.26 8.21739 72.6154 7.80336C72.7227 8.20336 72.9976 8.54721 73.5072 8.63142C74.2313 8.75773 74.8951 8.04196 75.3443 7.45249C75.512 7.83143 75.8204 8.14722 76.33 8.21037C76.7591 8.26651 77.1547 8.09108 77.3894 7.81038C77.8252 8.32265 78.4823 8.70861 79.1528 8.14722C79.4881 7.86652 79.6624 7.28407 80.2122 7.48056C80.7285 7.67003 81.171 7.82442 81.7007 7.55775C81.7946 7.50863 81.7946 7.34723 81.6605 7.31916Z" fill="#2A164A"/>
<path opacity="0.36" d="M82.6126 10.2594C82.1835 10.1471 81.7074 10.2313 81.2515 10.1401C80.7821 10.0489 80.3262 9.91556 79.8501 9.87346C79.4009 9.83135 78.9651 9.90153 78.5762 10.098C78.3348 10.2173 77.376 10.8699 77.2419 10.3226C77.195 10.1331 76.9134 10.084 76.7591 10.2033C76.3166 10.5401 75.7802 10.9191 75.1499 10.8699C74.5934 10.8278 74.0771 10.2524 74.6336 9.88048C74.8482 9.74013 74.5733 9.41031 74.352 9.55066C73.6949 9.96469 73.8022 10.8208 74.4928 11.1647C75.3243 11.5787 76.1892 11.2138 76.8731 10.7577C77.081 10.9471 77.4028 11.0454 77.7247 11.0173C78.3683 10.9682 78.784 10.4419 79.4277 10.3857C80.0446 10.3366 80.6481 10.5682 81.2448 10.6734C81.7276 10.7577 82.3779 10.8559 82.7065 10.4629C82.7735 10.3927 82.7132 10.2805 82.6126 10.2594Z" fill="#2A164A"/>
</g>
<path d="M68.3309 67.62H21.3354C22.0126 63.9288 24.5337 51.8238 28.3555 49.115C31.5404 46.8695 35.3623 44.9256 40.5319 44.2028C40.8805 44.1467 41.2225 44.1116 41.5779 44.0765C42.0539 44.0204 42.53 43.9713 43.0328 43.9502C43.0328 43.9502 43.0329 43.9502 43.0463 43.9502C44.5013 43.873 46.0568 43.873 47.7197 43.9923H47.7867C48.122 44.0134 48.4572 44.0485 48.7925 44.0906C49.1076 44.1116 49.416 44.1607 49.7312 44.2028C58.0521 45.4098 65.2667 50.5887 66.6681 57.8868C66.8826 59.0026 67.0704 60.0131 67.2313 60.9183V60.9324C67.8884 64.5183 68.1901 66.5954 68.3309 67.62Z" fill="#FF90BD"/>
<path d="M52.7284 67.62H40.9208C40.6057 64.3288 39.8011 53.8448 39.7005 52.0132C39.4926 48.1747 39.6469 46.1467 40.4247 45.1221C40.713 44.7362 41.0952 44.4905 41.5779 44.3432C42.0942 44.1958 42.7312 44.1537 43.509 44.1748C44.1258 44.1888 44.8232 44.2449 45.6278 44.3011C46.0368 44.3362 46.419 44.3712 46.7609 44.4134C47.5789 44.5046 48.2494 44.6169 48.7925 44.7783C49.396 44.9467 49.8586 45.1642 50.2207 45.4309C51.1728 46.1326 51.3874 47.2414 51.6489 49.0027C52.0512 51.8869 52.6882 64.1534 52.7284 67.62Z" fill="#8B68B4"/>
<path d="M49.3825 37.2626H40.8738V45.2063H49.3825V37.2626Z" fill="#E79F8B"/>
<path d="M69.2696 38.666C69.1087 35.7678 69.5378 32.7714 70.9257 30.2592C71.2409 29.6837 71.965 29.0802 72.421 29.5434C72.6221 29.7469 72.6489 30.0697 72.6556 30.3574C72.716 32.596 72.5148 34.8345 72.0589 37.024C72.3941 36.2801 73.2993 35.8941 74.0503 36.1468C74.8012 36.3994 75.3108 37.2415 75.2572 38.0625C75.4516 37.2275 76.6719 37.1292 77.262 37.7257C77.852 38.3222 77.9459 39.2625 77.9526 40.1257C78.2476 39.7046 78.9315 39.8239 79.2534 40.2309C79.5685 40.6379 79.6087 41.1993 79.6087 41.7256C79.5953 43.3326 79.2802 44.9677 78.4689 46.322C77.6576 47.6834 76.2965 48.736 74.7677 48.8974C69.9334 49.4167 69.4573 42.1186 69.2696 38.666Z" fill="#E79F8B"/>
<path d="M71.3013 47.1922C71.3013 47.1922 67.2783 44.8133 68.6796 42.1607C70.081 39.5081 74.1844 40.8835 73.3128 42.4344C72.4411 43.9923 70.5168 43.7116 70.5168 43.7116L71.3013 47.1922Z" fill="#E79F8B"/>
<path d="M40.5922 43.0379C41.0415 42.9888 43.2474 44.7502 45.6143 44.6239C47.9812 44.4976 49.1613 43.3537 49.5166 42.9748C49.8653 42.5958 51.8098 46.6519 51.5147 47.094C51.2197 47.5361 50.3548 49.2694 49.4898 48.9536C48.6249 48.6378 46.1842 45.5853 46.1842 45.5853C46.1842 45.5853 43.9716 49.2764 43.1469 49.2764C42.3221 49.2764 39.6535 47.9782 39.5127 45.9502C39.3719 43.9221 40.0156 43.1011 40.5922 43.0379Z" fill="white"/>
<path d="M79.0858 47.1922L78.9114 67.6199H66.0847L67.2313 60.9323V60.9253L69.6384 46.9115L70.9191 46.9466H70.9325L71.0531 46.9606H71.2476L77.852 47.1641L79.0858 47.1922Z" fill="#FF90BD"/>
<path d="M54.8605 15.9647C54.6258 15.7892 54.3308 15.8103 54.0358 16.105C53.7877 16.3576 53.5262 16.8208 53.4323 17.1646C53.0971 18.3576 53.2245 19.6769 53.4122 20.8207C53.5865 21.8733 53.8681 22.9189 54.3375 23.8242C54.3576 23.8593 54.3777 23.9014 54.3978 23.9364C54.6258 24.3575 54.894 24.7435 55.2159 25.0873C55.2829 25.1084 55.3432 25.1364 55.417 25.1364C55.6383 25.1294 55.8528 24.975 56.0205 24.8066C57.167 23.6557 56.9122 21.8242 56.6977 20.4909C56.4429 18.926 55.8931 17.4594 55.0751 16.2032C55.0147 16.105 54.9409 16.0208 54.8605 15.9647Z" fill="#2A164A"/>
<path d="M56.3759 26.2663C56.3759 33.8942 55.2226 40.4345 47.5856 40.9467C37.7359 41.6064 33.7196 33.8872 33.7196 26.2663C33.7196 18.6454 38.7886 12.463 45.0511 12.463C51.3069 12.456 56.3759 18.6384 56.3759 26.2663Z" fill="#E79F8B"/>
<path d="M44.3336 33.1924C44.622 32.6802 46.1507 32.8065 47.9477 32.596C49.9793 32.3574 51.394 31.9503 51.7494 32.1539C52.4199 32.5398 51.0387 35.6415 48.417 35.9012C46.5396 36.0906 43.8107 34.1258 44.3336 33.1924Z" fill="white"/>
<path d="M42.4294 16.4489C44.5147 17.7611 46.5865 19.1295 48.8327 20.0909C51.394 21.1857 54.1967 21.5506 56.5837 19.7681C57.1335 19.3541 57.8175 18.491 56.9793 18.0348C56.4295 17.7331 55.6987 17.8103 55.1019 17.7541C55.7791 17.8173 56.5033 17.6629 57.033 17.2208C57.5627 16.7787 57.8778 16.0208 57.6968 15.3472C57.5627 14.8559 57.1939 14.463 56.805 14.1472C55.6115 13.1858 54.1096 12.7086 52.6211 12.3998C52.3596 12.3437 52.0981 12.3016 51.8366 12.2525C52.0444 11.9507 52.2389 11.6139 52.1785 11.256C52.1115 10.8771 51.7829 10.6174 51.4611 10.4069C48.9132 8.77885 45.6948 8.6806 42.6574 8.67358C40.5185 8.67358 38.279 8.70867 36.3681 9.71216C35.4763 10.1753 34.5644 10.9542 34.4638 11.9507C32.392 12.1191 30.6085 13.7893 29.9044 15.7612C29.2004 17.7331 29.4418 19.9365 30.1525 21.8944C30.8633 23.8523 31.7349 26.0628 32.4188 26.4768C33.1027 26.8908 33.1362 26.3996 33.961 26.8136C34.7857 27.2277 34.8393 28.4557 35.4696 28.5048C36.0999 28.5539 36.0798 26.7996 36.2474 25.9856C36.5893 24.3365 36.5759 22.6312 36.9849 20.9962C37.4208 19.2278 38.3662 17.5647 39.6737 16.2103C39.8815 15.9928 40.1162 15.7752 40.3844 15.6489C40.4514 15.6138 41.1421 15.7893 41.256 15.8243C41.6449 15.9366 42.0137 16.1892 42.3557 16.4068C42.3825 16.4138 42.4093 16.4349 42.4294 16.4489Z" fill="#2A164A"/>
<path d="M33.8067 26.7434C32.9887 25.1855 31.7617 24.1329 30.5615 25.2136C30.1726 25.5644 29.9715 26.2311 29.9513 26.8978C29.9379 27.5644 30.0854 28.2381 30.2933 28.8626C30.8163 30.4345 31.7416 31.824 32.9016 32.4064C33.3374 32.624 33.847 32.7152 34.209 32.3573C34.7052 31.8731 34.7991 30.8766 34.7588 30.0556C34.7119 29.0381 34.3498 27.782 33.8067 26.7434Z" fill="#E79F8B"/>
<path d="M30.8499 26.8486C30.9437 26.6802 31.0912 26.5679 31.2388 26.5328C31.5941 26.4416 31.9696 26.6942 32.2445 27.0381C32.5328 27.396 32.7742 27.8521 32.9888 28.3012C33.21 28.7644 33.3777 29.2837 33.4715 29.824C33.4917 29.9293 33.3643 29.9714 33.3441 29.8661C33.143 28.9959 32.7206 28.1889 32.2646 27.5363C32.1976 27.4381 32.1171 27.3398 32.0367 27.2556C31.9361 27.6767 31.9294 28.1398 32.0098 28.5889C32.1037 29.1293 32.2982 29.5854 32.5194 30.0486C32.5395 30.0977 32.506 30.1538 32.4725 30.1117C31.8489 29.3819 31.6008 28.1047 31.9026 27.1153C31.7618 26.996 31.6142 26.9048 31.4533 26.8907C31.1985 26.8697 30.9035 27.0872 30.8298 27.4451C30.8163 27.5082 30.7359 27.4872 30.7292 27.417C30.7292 27.1995 30.756 27.01 30.8499 26.8486Z" fill="#391B5C"/>
<path d="M57.5426 23.0172C57.2811 22.3996 56.6977 22.0487 56.1144 22.0628C55.4774 22.0838 54.8337 22.1259 54.1834 22.154C53.0703 22.2031 51.9238 22.2172 50.7772 22.3365C49.9525 22.4207 49.2954 22.8136 49.2418 23.8031C49.2418 23.8171 49.2418 23.8312 49.2418 23.8382L49.235 23.8312C48.8864 23.6417 48.4975 23.6136 48.122 23.7119C47.7465 23.8171 47.418 24.0347 47.123 24.3154L47.1163 24.3224C47.0962 24.1329 47.0827 23.9364 47.0559 23.747C46.9151 22.7505 46.191 22.3856 45.3126 22.3435C44.0521 22.2873 42.7647 22.3435 41.4639 22.3505C40.6861 22.3575 39.9017 22.3505 39.1105 22.3715C38.3662 22.3856 37.6622 22.8277 37.3873 23.5435C37.2331 23.9505 37.2062 24.3996 37.2398 24.8417C37.2264 24.8417 37.2062 24.8487 37.1928 24.8487C36.9917 24.8768 36.7838 24.9119 36.5827 24.9399C36.2139 24.9961 35.8518 25.0522 35.4831 25.1013C35.121 25.1575 34.7589 25.2276 34.3901 25.2978C34.2024 25.3329 33.9945 25.354 33.8269 25.4382C33.7129 25.4943 33.5721 25.6417 33.6593 25.789C33.8336 26.0697 34.3432 25.9434 34.6181 25.9224C34.9735 25.8943 35.3288 25.8662 35.6842 25.8171C36.0396 25.768 36.3949 25.7259 36.7503 25.6768C36.9313 25.6487 37.1124 25.6276 37.2867 25.5996C37.3068 25.5996 37.3202 25.5925 37.3403 25.5925C37.5415 26.9118 37.7896 28.2732 38.2187 29.5083C38.393 30.0205 38.621 30.5188 39.1373 30.7293C39.62 30.9188 40.19 30.8626 40.6929 30.8556C41.3499 30.8416 42.007 30.8065 42.6574 30.7363C43.8308 30.617 45.0444 30.4697 46.144 30.1118C47.1967 29.7749 47.3107 28.7925 47.2906 27.7679C47.2705 26.8838 47.2571 25.9715 47.1967 25.0733C47.5052 24.8276 47.8337 24.6101 48.1891 24.4978C48.3165 24.4557 48.4304 24.4347 48.5645 24.4417C48.6316 24.4417 48.6316 24.4417 48.6987 24.4627C48.7255 24.4698 48.7456 24.4768 48.7724 24.4838C48.7858 24.4908 48.7992 24.4908 48.8126 24.4978C48.7858 24.4838 48.7858 24.4838 48.8126 24.4978C48.8663 24.5259 48.9132 24.554 48.9602 24.5891C48.9669 24.5961 48.9736 24.5961 48.9736 24.6031C49.0004 24.6241 49.0205 24.6522 49.0406 24.6803C49.0473 24.6873 49.0875 24.7505 49.0674 24.7154C49.0473 24.6803 49.0943 24.7715 49.101 24.7785C49.1144 24.7996 49.1278 24.8276 49.1077 24.7855C49.1412 24.8557 49.1479 24.8978 49.1881 24.954C49.2015 24.975 49.2216 24.982 49.2418 24.9961C49.2619 25.9153 49.3289 26.8416 49.3893 27.7469C49.4563 28.7504 49.6508 29.6907 50.6833 29.8662C51.7293 30.0416 52.8289 30.0065 53.8481 29.9433C54.4046 29.9083 54.9545 29.8521 55.4976 29.7749C55.9066 29.7118 56.3625 29.6907 56.7313 29.4521C57.1202 29.1995 57.261 28.7293 57.3548 28.2662C57.6096 27.0311 57.6968 25.6978 57.7504 24.4347C57.7705 23.9715 57.737 23.4592 57.5426 23.0172Z" fill="black"/>
<path d="M46.5396 28.5118C46.486 29.0451 46.2446 29.2767 45.7618 29.396C43.9582 29.8451 41.9199 30.0978 39.9821 29.9925C39.3116 29.9574 39.144 29.6276 38.9294 29.0241C38.735 28.4908 38.5808 27.9434 38.4601 27.389C38.2656 26.5048 37.9907 25.5996 38.0376 24.6803C38.098 23.4593 38.6009 23.2768 39.7005 23.2698C40.2302 23.2698 40.7465 23.2628 41.2695 23.2628C42.2953 23.2558 43.3145 23.2628 44.3135 23.2417C44.7225 23.2347 45.1517 23.1926 45.554 23.2417C46.03 23.2979 46.2245 23.4733 46.2848 23.9856C46.4122 25.0171 46.4659 26.0627 46.5128 27.0943C46.5329 27.5645 46.5866 28.0487 46.5396 28.5118Z" fill="white"/>
<path d="M56.9994 26.4557C56.9457 26.954 56.8652 27.4522 56.758 27.9434C56.6306 28.5048 56.5233 28.8136 55.9936 28.9259C54.4112 29.2697 52.6277 29.3189 50.9581 29.1364C50.5022 29.0873 50.2474 28.8978 50.1535 28.3855C50.0731 27.9434 50.0731 27.4663 50.0529 27.0171C50.006 26.0066 49.9658 24.9821 49.9993 23.9716C50.0127 23.4733 50.1803 23.2909 50.6229 23.1997C50.9984 23.1295 51.3873 23.1365 51.7627 23.1225C52.6545 23.0804 53.5396 23.0172 54.4112 22.9611C54.8403 22.933 55.2762 22.9049 55.6986 22.8839C56.5769 22.8277 56.9792 22.9681 57.12 24.0347C57.2273 24.8488 57.0798 25.6628 56.9994 26.4557Z" fill="white"/>
<path d="M12.5585 61.8586C12.5585 63.599 11.2108 65.0095 9.54797 65.0095C7.88513 65.0095 6.53741 63.599 6.53741 61.8586C6.53741 60.1183 7.88513 58.7078 9.54797 58.7078C11.2108 58.7078 12.5585 60.1183 12.5585 61.8586Z" fill="#C87AFF"/>
</svg>
