<svg width="151" height="241" viewBox="0 0 151 241" fill="none" xmlns="http://www.w3.org/2000/svg">
<path d="M264.862 105.555L234.524 97.0703C224.814 137.782 183.153 161.458 141.652 149.84C111.781 141.453 90.0077 117.03 83.7744 88.7974C81.3479 77.8041 81.2824 66.2694 83.9887 54.8497L53.6597 46.3472C49.8435 62.3515 49.943 78.5769 53.3482 93.9856C62.0911 133.597 92.6347 167.869 134.558 179.627C192.796 195.916 251.257 162.704 264.862 105.555Z" fill="url(#paint0_linear_34_329)"/>
<path d="M53.3674 93.9506C62.1103 133.562 92.6538 167.834 134.577 179.592C175.673 191.123 216.869 177.965 242.344 149.149L227.584 165.837C202.108 194.653 160.912 207.811 119.817 196.28C77.8932 184.522 47.3497 150.251 38.6068 110.639C35.2015 95.2304 35.102 79.005 38.9182 63.0007L53.6789 46.3122C49.8626 62.3164 49.9621 78.5418 53.3674 93.9506Z" fill="url(#paint1_linear_34_329)"/>
<defs>
<linearGradient id="paint0_linear_34_329" x1="227.277" y1="28.8183" x2="-143.128" y2="353.34" gradientUnits="userSpaceOnUse">
<stop stop-color="#E0BDF7"/>
<stop offset="1" stop-color="#8757B0"/>
</linearGradient>
<linearGradient id="paint1_linear_34_329" x1="29.857" y1="156.256" x2="223.72" y2="78.6195" gradientUnits="userSpaceOnUse">
<stop stop-color="#AB83C9"/>
<stop offset="1" stop-color="#7E55A1"/>
</linearGradient>
</defs>
</svg>
