<svg width="21" height="20" viewBox="0 0 21 20" fill="none" xmlns="http://www.w3.org/2000/svg">
<path d="M14.6946 17.1428C15.4836 17.1428 16.1232 16.5033 16.1232 15.7143C16.1232 14.9253 15.4836 14.2857 14.6946 14.2857C13.9056 14.2857 13.266 14.9253 13.266 15.7143C13.266 16.5033 13.9056 17.1428 14.6946 17.1428Z" fill="white"/>
<path d="M20.2496 15.3414C19.8081 14.2172 19.0465 13.2472 18.0591 12.5517C17.0716 11.8562 15.9018 11.4657 14.6946 11.4286C13.4873 11.4657 12.3175 11.8562 11.3301 12.5517C10.3427 13.2472 9.58102 14.2172 9.13957 15.3414L8.98029 15.7143L9.13957 16.0864C9.58091 17.2108 10.3425 18.181 11.3299 18.8766C12.3174 19.5723 13.4873 19.9629 14.6946 20C15.9019 19.9629 17.0718 19.5723 18.0592 18.8766C19.0466 18.181 19.8082 17.2108 20.2496 16.0864L20.4089 15.7143L20.2496 15.3414ZM14.6946 18.5714C14.1295 18.5714 13.5771 18.4039 13.1072 18.0899C12.6374 17.776 12.2712 17.3298 12.0549 16.8077C11.8387 16.2856 11.7821 15.7111 11.8923 15.1569C12.0026 14.6027 12.2747 14.0936 12.6743 13.694C13.0738 13.2944 13.5829 13.0223 14.1372 12.9121C14.6914 12.8018 15.2659 12.8584 15.788 13.0746C16.31 13.2909 16.7563 13.6571 17.0702 14.127C17.3841 14.5968 17.5517 15.1492 17.5517 15.7143C17.5508 16.4718 17.2494 17.198 16.7138 17.7336C16.1782 18.2692 15.452 18.5705 14.6946 18.5714Z" fill="white"/>
<path d="M7.12245 13.4285C6.53816 12.9901 6.07563 12.4097 5.77876 11.7422C5.4819 11.0748 5.36055 10.3426 5.42624 9.61508C5.49193 8.88757 5.74248 8.18893 6.1541 7.58548C6.56573 6.98203 7.12476 6.49381 7.77812 6.16716C8.43148 5.84051 9.1575 5.68628 9.88723 5.71911C10.617 5.75195 11.3262 5.97075 11.9476 6.35476C12.569 6.73876 13.0819 7.27522 13.4377 7.9132C13.7934 8.55117 13.9802 9.26949 13.9803 9.99996H12.5517C12.5517 9.51294 12.4272 9.03401 12.1901 8.60863C11.9529 8.18326 11.611 7.82557 11.1967 7.56953C10.7824 7.31349 10.3095 7.1676 9.82301 7.14571C9.33649 7.12382 8.85244 7.22665 8.41684 7.44446C7.98123 7.66226 7.60854 7.98779 7.33413 8.39015C7.05973 8.7925 6.89273 9.25832 6.84899 9.74337C6.80525 10.2284 6.88623 10.7166 7.08423 11.1616C7.28224 11.6065 7.59069 11.9935 7.9803 12.2857L7.12245 13.4285Z" fill="white"/>
<path d="M19.1982 6.46L17.5124 3.54C17.3475 3.25357 17.0883 3.03326 16.7791 2.91667C16.4698 2.80008 16.1297 2.79444 15.8167 2.90071L14.0782 3.48929C13.7786 3.28732 13.4655 3.10618 13.141 2.94714L12.781 1.14857C12.7163 0.824723 12.5414 0.533304 12.286 0.323898C12.0306 0.114491 11.7106 3.43123e-05 11.3803 0H8.00888C7.67863 3.43123e-05 7.35858 0.114491 7.10321 0.323898C6.84783 0.533304 6.67289 0.824723 6.60816 1.14857L6.24817 2.94714C5.92009 3.10444 5.60337 3.2844 5.30031 3.48571L3.57174 2.90071C3.25897 2.79481 2.91916 2.80064 2.61021 2.91721C2.30126 3.03379 2.0423 3.25388 1.87745 3.54L0.191736 6.46C0.0266011 6.74592 -0.0343924 7.08022 0.0191291 7.40604C0.0726507 7.73186 0.237382 8.02907 0.485307 8.24714L1.86459 9.45929C1.85245 9.63929 1.83745 9.81786 1.83745 10C1.83745 10.1843 1.84459 10.3664 1.85745 10.5471L0.486022 11.7529C0.237865 11.9707 0.0728597 12.2679 0.0190762 12.5937C-0.0347073 12.9195 0.0260535 13.2539 0.191022 13.54L1.87674 16.46C2.04175 16.7463 2.301 16.9665 2.61025 17.0829C2.9195 17.1994 3.25958 17.2049 3.57245 17.0986L5.31102 16.5107C5.61056 16.7126 5.92368 16.8935 6.24817 17.0521L6.60745 18.8514C6.6722 19.1754 6.84724 19.4669 7.10277 19.6763C7.35829 19.8857 7.6785 20.0001 8.00888 20H8.98031V18.5714H8.00888L7.50174 16.0357C6.80018 15.7751 6.14894 15.3952 5.57674 14.9129L3.11459 15.7457L1.42888 12.8257L3.37531 11.115C3.24214 10.3763 3.24045 9.61996 3.37031 8.88071L1.42888 7.17357L3.11459 4.25429L5.56245 5.08286C6.13873 4.59981 6.79505 4.22125 7.50174 3.96429L8.00888 1.42857H11.3803L11.8875 3.96429C12.589 4.22494 13.2402 4.60481 13.8124 5.08714L16.2746 4.25429L17.9603 7.17429L15.9617 8.92571L16.9032 10L18.9032 8.24714C19.1513 8.02926 19.3163 7.73213 19.3701 7.4063C19.4239 7.08048 19.3631 6.74608 19.1982 6.46Z" fill="white"/>
</svg>
