<svg width="666" height="453" viewBox="0 0 666 453" fill="none" xmlns="http://www.w3.org/2000/svg">
<path opacity="0.2" d="M49.3486 276.237C54.4244 319.716 83.6753 312.482 88.301 363.027C89.9554 381.071 77.4739 392.412 71.2839 408.028C64.4185 425.299 66.8495 440.807 76.1234 452.643H584.699C595.943 447.208 606.668 441.435 616.01 434.49C628.863 424.949 639.037 413.197 644.225 397.074C648.907 382.508 652.52 368.462 640.219 357.411C633.545 351.408 626.589 346.77 620.545 341.202C615.999 337.024 611.981 332.313 608.942 326.081C586.77 280.44 615.211 240.221 625.655 194.556C626.668 190.123 627.591 185.63 628.322 181.138C630.236 169.688 631.125 158.057 629.988 146.74C628.964 136.378 626.229 126.233 621.074 116.691C613.32 102.379 593.23 81.2554 571.644 85.2894C555.426 88.3209 545.218 105.012 530.564 111.051C512.107 118.66 491.635 112.573 477.803 101.389C450.904 79.637 433.673 38.3074 387.709 42.0877C372.121 43.3679 361.598 56.5808 347.935 62.6317C329.151 70.9653 310.614 70.9049 292.663 62.8008C272.011 53.4769 257.853 36.1455 237.572 26.2297C230.931 22.9808 223.706 20.1426 216.165 17.9686C199.857 13.2342 182.019 11.5554 165.204 15.2028C161.636 15.9758 158.26 16.8937 155.052 17.9686C98.8241 36.544 96.168 97.4033 98.8128 141.801C100.028 162.139 115.2 197.225 103.99 218.252C92.7803 239.279 44.4415 234.195 49.3486 276.237Z" fill="url(#paint0_linear_34_163)"/>
<path d="M548.862 442.245H553.603L554.212 420.37H542.218L548.862 442.245Z" fill="#676F74"/>
<path d="M460.371 442.245H455.619L455.022 420.37H467.015L460.371 442.245Z" fill="#676F74"/>
<path d="M448.783 208.022H560.439V422.88H448.783V208.022Z" fill="url(#paint1_linear_34_163)"/>
<path d="M458.243 224.252H550.991V266.469H458.243V224.252Z" fill="#B555FF"/>
<path d="M504.617 251.819C501.209 251.819 498.446 248.927 498.446 245.36C498.446 241.793 501.209 238.901 504.617 238.901C508.025 238.901 510.788 241.793 510.788 245.36C510.788 248.927 508.025 251.819 504.617 251.819Z" fill="url(#paint2_linear_34_163)"/>
<path d="M458.243 270.983H550.991V313.2H458.243V270.983Z" fill="#B555FF"/>
<path d="M504.617 298.55C501.209 298.55 498.446 295.659 498.446 292.092C498.446 288.525 501.209 285.633 504.617 285.633C508.025 285.633 510.788 288.525 510.788 292.092C510.788 295.659 508.025 298.55 504.617 298.55Z" fill="url(#paint3_linear_34_163)"/>
<path d="M458.243 317.714H550.991V359.932H458.243V317.714Z" fill="#B555FF"/>
<path d="M504.617 345.282C501.209 345.282 498.446 342.39 498.446 338.823C498.446 335.256 501.209 332.364 504.617 332.364C508.025 332.364 510.788 335.256 510.788 338.823C510.788 342.39 508.025 345.282 504.617 345.282Z" fill="url(#paint4_linear_34_163)"/>
<path d="M458.243 364.434H550.991V406.651H458.243V364.434Z" fill="#B555FF"/>
<path d="M504.617 392.013C501.209 392.013 498.446 389.121 498.446 385.554C498.446 381.987 501.209 379.095 504.617 379.095C508.025 379.095 510.788 381.987 510.788 385.554C510.788 389.121 508.025 392.013 504.617 392.013Z" fill="url(#paint5_linear_34_163)"/>
<path d="M445.495 204.486H563.738V212.595H445.495V204.486Z" fill="#8F6197"/>
<path d="M519.684 61.7938C521.024 57.9162 518.232 52.919 514.583 50.4086C512.151 48.735 509.324 47.6507 507.815 45.4467C507.961 48.3578 508.682 50.9036 510.54 53.6733C512.567 56.7141 515.687 59.8609 519.684 61.7938Z" fill="url(#paint6_linear_34_163)"/>
<path d="M519.696 63.1256C519.178 60.9923 521.329 58.9652 522.702 57.8101C524.088 56.6315 525.63 55.6415 526.835 54.3333C529.482 51.4811 529.583 45.9417 526.588 42.9362C527.432 43.6906 526.115 46.2481 525.709 46.9081C524.763 48.4403 523.288 49.5835 522.038 50.9153C519.11 54.0504 518.615 58.6587 519.696 63.1256Z" fill="#8F6197"/>
<path d="M518.941 59.0477C519.617 57.0912 517.669 54.734 516.43 53.355C515.18 51.9643 513.761 50.715 512.691 49.23C510.36 46.0006 510.687 40.6733 513.829 38.3397C512.95 38.9172 514.02 41.6162 514.358 42.3234C515.157 43.9734 516.509 45.3406 517.612 46.861C520.225 50.4085 520.349 54.9461 518.941 59.0477Z" fill="#8F6197"/>
<path d="M520.034 58.5291C520.698 58.3641 521.351 57.433 521.666 56.938C522.286 55.9833 522.635 54.9226 522.815 53.8265C523.254 51.0568 522.455 48.3578 522.331 45.6824C522.241 43.6081 522.365 41.5337 523.04 39.6362C523.378 38.6815 523.952 37.9037 524.459 37.0551C524.504 36.9844 523.637 37.2672 523.581 37.2908C518.299 39.7894 517.184 44.9163 518.187 50.1729C518.502 51.8111 518.716 53.4258 519.211 55.0758C519.527 56.113 520.293 57.4919 520.034 58.5291Z" fill="url(#paint7_linear_34_163)"/>
<path d="M512.703 72.4483H523.592L527.162 60.5209H509.133L512.703 72.4483Z" fill="#8F6197"/>
<path d="M512.173 73.344H524.155L524.234 71.4582H512.105L512.173 73.344Z" fill="url(#paint8_linear_34_163)"/>
<path d="M508.806 61.9352H527.534L527.894 58.1637H508.457L508.806 61.9352Z" fill="url(#paint9_linear_34_163)"/>
<path d="M444.954 50.4911L443.659 53.249C443.175 54.2744 442.24 54.9933 441.148 55.1583L438.243 55.6062C435.506 56.0187 434.414 59.5427 436.396 61.5581L438.502 63.7031C439.29 64.5046 439.65 65.6596 439.459 66.7911L438.963 69.8201C438.502 72.6723 441.351 74.8409 443.794 73.4973L446.396 72.0712C447.364 71.5408 448.524 71.5408 449.493 72.0712L452.094 73.4973C454.538 74.8409 457.398 72.6723 456.925 69.8201L456.43 66.7911C456.249 65.6596 456.599 64.5046 457.387 63.7031L459.493 61.5581C461.475 59.5427 460.382 56.0305 457.646 55.6062L454.74 55.1583C453.659 54.9933 452.713 54.2744 452.229 53.249L450.934 50.4911C449.707 47.91 446.171 47.91 444.954 50.4911Z" fill="url(#paint10_linear_34_163)"/>
<path d="M476.035 27.5556H487.984V73.6151H476.035V27.5556Z" fill="url(#paint11_linear_34_163)"/>
<path d="M469.549 33.5782H476.362V73.6269H469.549V33.5782Z" fill="#8B68B4"/>
<path d="M487.747 43.7259H497.781V73.6151H487.747V43.7259Z" fill="#8F6197"/>
<path opacity="0.68" d="M487.747 48.2989H497.781V51.7639H487.747V48.2989Z" fill="url(#paint12_linear_34_163)"/>
<path opacity="0.68" d="M487.747 66.5435H497.781V70.0086H487.747V66.5435Z" fill="url(#paint13_linear_34_163)"/>
<path d="M461.722 30.95H470.146V73.6269H461.722V30.95Z" fill="url(#paint14_linear_34_163)"/>
<path d="M463.952 43.8791H467.927V62.9959H463.952V43.8791Z" fill="#8F6197"/>
<path d="M452.917 101.54H445.867V83.6372H452.917V101.54Z" fill="url(#paint15_linear_34_163)"/>
<path d="M457.5 87.1464H441.284V81.996H457.5V87.1464Z" fill="url(#paint16_linear_34_163)"/>
<path d="M523.146 101.54H516.097V83.6372H523.146V101.54Z" fill="url(#paint17_linear_34_163)"/>
<path d="M527.718 87.1464H511.502V81.996H527.718V87.1464Z" fill="url(#paint18_linear_34_163)"/>
<path d="M539.811 82.8444L429.191 82.8444V73.1681L539.811 73.1681V82.8444Z" fill="#8F6197"/>
<path d="M571.16 129.28H578.344C578.603 129.28 578.817 129.445 578.907 129.705L591.756 152.393C591.914 152.876 591.565 153.418 591.092 153.418H578.592C578.333 153.418 578.119 153.253 578.029 152.994L570.506 130.306C570.326 129.834 570.687 129.28 571.16 129.28Z" fill="url(#paint19_linear_34_163)"/>
<path d="M585.146 120.205H547.331L542.229 153.477H580.045L585.146 120.205Z" fill="#8B68B4"/>
<path d="M583.817 120.205H546.013L540.912 153.477H578.716L583.817 120.205Z" fill="url(#paint20_linear_34_163)"/>
<path d="M580.36 123.269H548.524L544.369 150.401H576.205L580.36 123.269Z" fill="white"/>
<path d="M575.022 128.479H552.263L549.707 145.191H572.466L575.022 128.479Z" fill="url(#paint21_linear_34_163)"/>
<path d="M513.66 142.009C513.66 146.276 515.957 149.976 519.335 151.827C519.403 151.874 519.47 151.909 519.538 151.933C520.957 152.687 522.556 153.1 524.257 153.1C527.534 153.1 530.473 151.532 532.421 149.069C532.579 148.88 532.725 148.68 532.86 148.468C534.121 146.653 534.853 144.425 534.853 142.009C534.853 136.505 531.002 131.932 525.98 131.072C525.811 131.036 525.642 131.013 525.473 130.989C525.079 130.942 524.673 130.919 524.257 130.919C518.919 130.919 514.504 135.055 513.772 140.43C513.738 140.654 513.716 140.878 513.693 141.102C513.671 141.396 513.66 141.703 513.66 142.009Z" fill="url(#paint22_linear_34_163)"/>
<path d="M526.148 142.728C527.151 144.448 528.434 146.051 529.887 147.383C530.642 148.067 531.486 148.691 532.421 149.068C532.579 148.88 532.725 148.679 532.86 148.467C531.554 147.878 530.416 146.912 529.403 145.839C527.995 144.342 526.756 142.657 525.889 140.747C524.988 138.756 524.572 136.493 524.887 134.289C525.034 133.299 525.326 132.321 525.777 131.437C525.833 131.319 525.901 131.189 525.979 131.071C525.811 131.036 525.642 131.012 525.473 130.989C525.349 131.201 525.247 131.413 525.157 131.602C523.468 135.185 524.223 139.427 526.148 142.728Z" fill="#8F6197"/>
<path d="M513.693 141.102C514.155 141.443 514.583 141.832 515 142.245C517.5 144.755 519.02 148.232 519.335 151.827C519.403 151.874 519.471 151.909 519.538 151.933C519.403 148.161 517.916 144.531 515.36 141.856C514.865 141.337 514.335 140.866 513.772 140.43C513.739 140.654 513.716 140.878 513.693 141.102Z" fill="#8F6197"/>
<path d="M519.77 180.931H512.721V163.028H519.77V180.931Z" fill="url(#paint23_linear_34_163)"/>
<path d="M524.354 166.537H508.137V161.387H524.354V166.537Z" fill="url(#paint24_linear_34_163)"/>
<path d="M589.999 180.931H582.95V163.028H589.999V180.931Z" fill="url(#paint25_linear_34_163)"/>
<path d="M594.583 166.537H578.366V161.387H594.583V166.537Z" fill="url(#paint26_linear_34_163)"/>
<path d="M606.664 162.235H496.045V152.559H606.664V162.235Z" fill="#8F6197"/>
<path d="M122.05 400.677C107.497 400.677 95.6989 388.952 95.6989 374.488C95.6989 360.025 107.497 348.3 122.05 348.3C136.604 348.3 148.402 360.025 148.402 374.488C148.402 388.952 136.604 400.677 122.05 400.677Z" fill="url(#paint27_linear_34_163)"/>
<path d="M96.4534 377.942H147.264L144.742 451.899H98.9759L96.4534 377.942Z" fill="#8F6197"/>
<path d="M92.4895 373.404H150.102V382.892H92.4895V373.404Z" fill="url(#paint28_linear_34_163)"/>
<path d="M129.539 353.957C130.947 357.363 132.039 360.899 132.794 364.517C133.413 367.464 133.683 370.422 133.897 373.392H95.7442C96.1496 363.551 102.005 355.112 110.395 350.987C113.548 351.73 116.746 352.331 119.933 352.873C123.109 353.427 126.319 353.851 129.539 353.957Z" fill="#8F6197"/>
<path d="M227.724 0H399.267V118.767H227.724V0Z" fill="#383A4F"/>
<path d="M366.891 116.987C366.981 117.424 366.475 145.946 366.475 145.946L351.801 117.141L366.891 116.987Z" fill="#383A4F"/>
<path d="M232.094 5.1976H394.898V113.581H232.094V5.1976Z" fill="white"/>
<path opacity="0.4" d="M232.094 93.9812H369.909C371.745 93.9812 373.243 92.4255 373.243 90.4926V5.1976H232.094V93.9812Z" fill="#8B68B4"/>
<path opacity="0.83" d="M232.094 86.8625H361.948C363.018 86.8625 363.885 85.955 363.885 84.8354V5.1976H232.094V86.8625Z" fill="white"/>
<g opacity="0.36">
<path opacity="0.36" d="M242.038 27.7677C243.637 26.2945 246.801 26.7541 248.907 26.707C255.225 26.5538 261.542 26.4831 267.871 26.5184C268.22 26.5184 268.536 26.7541 268.536 27.0724C268.592 31.7985 268.434 36.5129 268.074 41.2273C270.675 37.8801 273.49 34.6036 276.813 31.7867C276.993 31.6335 277.364 31.8339 277.195 32.0342C274.02 35.7468 270.72 39.3415 267.894 43.2545C267.612 43.6434 266.767 43.5491 266.801 43.0188C267.15 37.9037 267.308 32.7768 267.229 27.6499C262.218 27.6852 257.195 27.7442 252.184 27.8384C249.707 27.8856 247.195 27.8384 244.718 28.0152C241.948 28.2156 242.544 30.4903 241.869 32.1403C241.734 32.4703 241.249 32.4703 241.092 32.1521C240.461 30.8203 240.878 28.8402 242.038 27.7677Z" fill="#2A164A"/>
<path opacity="0.36" d="M243.029 37.4676C243.806 38.2337 244.774 39.978 246.261 39.5891C247.116 39.3651 247.342 38.3162 247.612 37.6915C247.916 36.9962 248.22 36.3008 248.524 35.6054C248.67 35.2636 249.267 35.0868 249.515 35.4758C249.943 36.1476 250.405 36.8076 250.945 37.4205C251.328 37.8565 252.297 39.1294 253.085 38.8466C253.716 38.6226 253.952 37.5737 254.031 36.9726C253.603 36.1122 253.389 35.1811 253.547 34.2029C253.614 33.814 254.369 33.7079 254.56 34.0732C255.022 34.9572 255.225 35.8765 255.146 36.8312C255.303 37.114 255.484 37.3851 255.686 37.6562C256.362 38.5283 257.353 39.6126 258.524 40.0016C260.078 40.5202 261.024 39.2119 261.396 38.104C261.598 37.4912 262.094 35.2401 261.058 35.134C260.731 35.0986 260.833 34.6861 261.125 34.6743C261.317 34.6625 261.497 34.6508 261.689 34.639C261.79 34.6272 261.925 34.6861 261.97 34.7686C262.702 36.0769 262.77 37.5972 262.139 38.9526C261.587 40.143 260.427 41.2391 258.806 41.0388C257.184 40.8384 255.934 39.5655 255.011 38.493C254.943 38.4105 254.887 38.3162 254.819 38.2337C254.594 38.823 254.256 39.3887 253.716 39.6834C251.959 40.6145 250.157 38.3751 249.143 36.8547C248.828 37.609 248.513 38.3751 248.152 39.1176C247.803 39.8484 247.274 40.4259 246.317 40.5673C244.279 40.8737 242.871 39.2473 242.556 37.7151C242.533 37.503 242.826 37.2672 243.029 37.4676Z" fill="#2A164A"/>
<path opacity="0.36" d="M233.941 24.7387C234.189 24.503 234.538 24.4795 234.887 24.4559C235.225 24.4323 235.574 24.3734 235.889 24.2673C236.351 24.1023 236.813 23.7487 236.869 23.3009C236.891 22.8648 237.68 22.8412 237.68 23.2891C237.68 23.3244 237.668 23.348 237.657 23.3834H237.668C237.567 23.9727 237.545 24.5973 237.736 25.1748C237.826 25.4695 237.961 25.7405 238.164 25.9998C238.322 26.2002 238.682 26.5774 238.986 26.5774C239.279 26.5774 239.346 26.1648 239.38 25.9763C239.448 25.552 239.482 25.1277 239.504 24.7034C239.538 23.8548 239.481 23.018 239.335 22.1812C239.301 22.0162 239.639 21.969 239.673 22.134C239.853 22.9119 239.954 23.7134 239.966 24.503C239.977 24.9037 239.966 25.3045 239.932 25.6934C239.909 25.9881 239.887 26.2945 239.763 26.5656C239.65 26.7895 239.459 26.9899 239.166 27.0488C238.783 27.1313 238.434 26.9309 238.164 26.7306C237.657 26.3652 237.331 25.8466 237.139 25.3163C237.06 25.0687 237.015 24.8212 236.97 24.5737C236.824 24.6916 236.666 24.7859 236.486 24.8684C236.092 25.057 235.664 25.1513 235.225 25.2102C234.786 25.2691 234.313 25.328 233.952 25.057C233.84 24.9745 233.851 24.8212 233.941 24.7387Z" fill="#2A164A"/>
<path opacity="0.36" d="M279.008 62.5599C279.346 62.9724 280.18 62.9842 280.63 62.7249C281.238 62.3831 281.508 61.6995 281.722 61.1338C281.869 60.7449 282.443 60.6624 282.713 61.0041C283.22 61.6288 283.716 62.2652 284.222 62.8899C284.448 63.1728 285.562 64.7757 285.72 63.7974C285.968 62.3124 285.63 60.627 285.281 59.1773C285.146 58.6352 286.126 58.3759 286.261 58.9298C286.587 60.2498 287.207 61.4874 288.13 62.5717C288.84 63.3967 290.416 65.1175 291.813 64.811C292.646 64.6342 292.781 63.7503 292.894 63.1374C293.04 62.3949 293.074 61.6406 293.04 60.8863C292.95 59.3659 292.466 57.8809 291.655 56.5373C291.441 56.1719 292.06 55.8419 292.285 56.2073C293.276 57.7748 293.84 59.5191 293.918 61.2988C293.975 62.5953 294.008 64.9524 292.319 65.5417C290.63 66.131 288.862 64.6224 287.882 63.6324C287.477 63.2199 287.128 62.7838 286.801 62.336V62.3478C286.835 63.0903 287.083 64.3867 286.261 64.8935C285.506 65.365 284.605 64.9289 284.11 64.3867C283.49 63.7031 282.939 62.9724 282.376 62.2417C282.015 62.9017 281.52 63.5028 280.686 63.7267C279.729 63.9978 278.648 63.6796 278.378 62.7956C278.265 62.4656 278.783 62.277 279.008 62.5599Z" fill="#2A164A"/>
<path opacity="0.36" d="M268.997 64.1274C269.155 63.8681 269.493 63.6442 269.729 63.4438C270.011 63.2081 270.292 62.9606 270.574 62.7249C270.675 62.6306 270.788 62.5481 270.889 62.4538C270.81 62.2534 270.72 62.0649 270.653 61.8645C270.225 60.6977 269.909 59.5073 269.921 58.2816C269.921 57.9869 270.427 57.9869 270.45 58.2698C270.574 59.4602 271.002 60.6034 271.542 61.7113C271.565 61.7584 271.587 61.8056 271.61 61.8409C271.812 61.6641 272.015 61.4873 272.229 61.3223L275.608 58.588C275.934 58.3169 276.418 58.7176 276.114 59.0123C275.056 60.0141 273.997 61.0041 272.95 62.0059C272.668 62.2652 272.387 62.5245 272.105 62.772C272.195 62.937 272.285 63.1138 272.376 63.2906C272.68 63.8563 273.04 64.4574 273.254 65.0467C273.434 65.5535 272.556 65.9071 272.263 65.4239C271.914 64.8699 271.655 64.2453 271.396 63.656C271.373 63.597 271.351 63.5381 271.328 63.4792L270.585 64.1392C270.315 64.3867 270.044 64.7167 269.662 64.8228C269.166 64.976 268.794 64.4928 268.997 64.1274Z" fill="#2A164A"/>
<path opacity="0.36" d="M240.258 59.0359C240.405 58.8238 240.72 58.9298 240.754 59.142C240.9 60.0966 241.553 61.2634 242.725 61.5109C244.11 61.8056 245.326 60.6859 245.281 59.5427C245.258 58.918 246.396 58.7412 246.576 59.3659C246.869 60.4031 247.33 62.112 248.851 62.2063C251.035 62.336 251.351 59.9434 251.204 58.5998C251.137 58.0577 252.162 57.928 252.308 58.4584C252.702 59.9434 253.783 61.5581 255.517 62.1356C258.085 62.9842 258.412 60.1791 258.299 58.6823C258.265 58.1873 259.211 58.0341 259.335 58.5409C259.346 58.5762 259.346 58.6234 259.358 58.6587C259.358 58.6705 259.358 58.6823 259.358 58.6941C259.414 59.0005 259.436 59.3423 259.436 59.6959C259.583 60.4502 259.932 61.2399 260.574 61.6288C260.833 61.782 261.317 61.9352 261.52 61.782C261.7 61.6524 261.632 61.1102 261.621 60.8745C261.587 60.2027 261.34 59.5781 260.945 59.0005C260.788 58.7766 261.171 58.588 261.34 58.7884C261.959 59.5309 263.4 62.6306 261.362 62.7838C260.484 62.8546 259.695 61.9824 259.256 61.4284C259.222 61.3813 259.189 61.3224 259.155 61.2752C258.738 62.4538 257.837 63.4085 256.193 63.3024C254.448 63.1728 253.108 62.1002 252.229 60.8156C251.88 62.0649 250.968 63.1374 249.245 63.3024C247.601 63.4556 246.599 62.501 245.979 61.3577C245.258 62.2888 244.008 62.9017 242.646 62.7013C240.743 62.4303 239.189 60.5681 240.258 59.0359Z" fill="#2A164A"/>
<path opacity="0.36" d="M300.63 10.3245C300.698 10.077 301.058 9.94735 301.317 10.077C309.515 14.261 317.77 18.4332 325.788 22.8883C326.069 22.6526 326.373 22.4405 326.711 22.2755C326.835 22.2165 327.026 22.2401 327.094 22.358C327.218 22.5701 327.263 22.7587 327.105 22.9708C327.015 23.0887 326.812 23.018 326.835 22.8766V22.8648C326.7 22.9944 326.565 23.1123 326.43 23.2419C327.173 23.6544 327.927 24.0552 328.659 24.4794C328.862 24.5973 328.693 24.8684 328.479 24.7623C327.68 24.3616 326.891 23.9491 326.092 23.5484C325.776 23.843 325.472 24.1377 325.202 24.4794C324.673 25.1512 324.245 25.882 323.952 26.6481C323.772 27.1313 323.581 27.6852 323.49 28.2392C326.88 28.0152 330.258 27.697 333.648 27.3199C334.132 27.2727 334.267 27.9799 333.783 28.0624C330.382 28.6045 326.936 28.9581 323.457 29.1703C323.513 29.736 323.716 30.2546 324.222 30.6553C324.324 30.7378 324.29 30.9146 324.144 30.9382C323.198 31.1267 322.77 30.2546 322.657 29.5946C322.635 29.4767 322.635 29.347 322.635 29.2174C314.617 29.6535 306.497 29.2999 298.637 28.3688C298.423 28.3452 298.254 28.1331 298.254 27.9563C298.366 22.0162 299.121 16.1114 300.63 10.3245ZM316.452 28.5102C318.524 28.4985 320.585 28.3924 322.646 28.2745C322.713 27.8031 322.849 27.3316 322.995 26.8838C323.31 25.9645 323.783 25.0923 324.403 24.3027C324.695 23.9255 325.033 23.5366 325.405 23.183C317.409 19.1404 309.493 14.9917 301.43 11.0552C300.202 16.5003 299.436 22.0162 299.256 27.5556C304.954 28.2392 310.698 28.5574 316.452 28.5102Z" fill="#2A164A"/>
<path opacity="0.36" d="M288.637 15.8167C289.177 15.8521 289.695 16.0996 290.18 16.2764C290.686 16.465 291.182 16.6653 291.689 16.8657C292.713 17.2782 293.817 17.6436 294.763 18.1621C294.909 18.2446 294.831 18.4686 294.639 18.4214C293.569 18.1621 292.544 17.7025 291.52 17.3136C291.013 17.125 290.495 16.9364 289.999 16.736C289.504 16.5357 288.918 16.3589 288.524 16.0289C288.445 15.97 288.502 15.8167 288.637 15.8167Z" fill="#2A164A"/>
<path opacity="0.36" d="M284.662 14.0135C285.011 13.8132 285.472 13.9075 285.855 13.9428C286.362 14.0017 286.88 14.0607 287.387 14.1078C287.894 14.1667 288.412 14.2257 288.918 14.2728C289.177 14.2964 289.425 14.3317 289.684 14.3789C289.943 14.426 290.259 14.4378 290.484 14.5675C290.653 14.6735 290.63 14.8621 290.439 14.9328C290.247 15.0035 290.033 14.98 289.831 14.9682C289.605 14.9682 289.391 14.9682 289.166 14.9446C288.727 14.9093 288.288 14.8739 287.849 14.8385L286.531 14.7325C286.126 14.6971 285.698 14.6264 285.292 14.6382H285.281C285.337 14.7796 285.416 14.9093 285.484 15.0507C285.641 15.3453 285.822 15.6282 286.024 15.9111C286.216 16.1821 286.418 16.4296 286.644 16.6772C286.756 16.8068 286.891 16.9247 286.993 17.0543C287.117 17.1957 287.173 17.349 287.263 17.514C287.387 17.7497 287.027 17.9265 286.801 17.8322C286.351 17.6436 286.092 17.3725 285.788 17.0307C285.506 16.7125 285.259 16.3825 285.033 16.0407C284.808 15.6989 284.617 15.3571 284.448 14.9918C284.279 14.6618 284.256 14.2492 284.662 14.0135Z" fill="#2A164A"/>
<path opacity="0.36" d="M262.116 12.2927C262.511 12.222 262.905 12.1867 263.299 12.1042C263.727 12.0099 264.076 11.8213 264.481 11.7034C264.954 11.562 265.405 11.6209 265.81 11.8802C266.249 12.1631 266.497 12.5992 266.857 12.9528C267.747 13.8131 268.569 12.8349 268.975 12.0924C269.177 11.7152 269.808 11.9156 269.83 12.281C269.887 12.9292 270.765 13.1413 271.328 12.8585C271.869 12.5992 272.094 12.0924 272.105 11.5738C272.116 11.1966 272.68 11.0434 272.927 11.3734C273.49 12.116 274.144 12.8231 274.921 13.4006C275.517 13.8485 276.159 13.5067 276.396 12.941C276.598 12.4577 276.565 11.9392 276.351 11.4677C276.204 11.0081 276.97 10.8313 277.162 11.2556C277.409 12.057 277.894 12.776 278.648 13.3063C279.189 13.6835 280.191 13.9663 280.619 13.3299C280.912 12.8938 280.957 12.116 280.9 11.6092C280.889 11.5502 281.002 11.5384 281.013 11.5974C281.283 12.2927 281.677 12.8938 281.261 13.6363C280.968 14.1549 280.349 14.5085 279.662 14.4496C278.704 14.3789 277.905 13.8013 277.308 13.106C277.128 13.7778 276.666 14.3553 275.81 14.4967C274.594 14.7089 273.479 13.5067 272.725 12.5167C272.443 13.1531 271.925 13.6835 271.069 13.7896C270.348 13.8838 269.684 13.5892 269.29 13.1178C268.558 13.9781 267.454 14.6264 266.328 13.6835C265.765 13.212 265.472 12.2338 264.549 12.5638C263.682 12.882 262.939 13.1413 262.049 12.6935C261.891 12.611 261.891 12.3399 262.116 12.2927Z" fill="#2A164A"/>
<path opacity="0.36" d="M260.517 17.2311C261.238 17.0425 262.038 17.1839 262.803 17.0307C263.592 16.8775 264.357 16.6536 265.157 16.5828C265.911 16.5121 266.643 16.63 267.297 16.96C267.702 17.1604 269.312 18.2564 269.538 17.3371C269.616 17.0189 270.089 16.9364 270.348 17.1368C271.092 17.7025 271.993 18.3389 273.051 18.2564C273.986 18.1857 274.853 17.2193 273.918 16.5946C273.558 16.3589 274.02 15.805 274.391 16.0407C275.495 16.7361 275.315 18.1739 274.155 18.7515C272.758 19.4468 271.306 18.834 270.157 18.0679C269.808 18.3861 269.267 18.5511 268.727 18.504C267.646 18.4215 266.947 17.5375 265.866 17.4432C264.83 17.3607 263.817 17.7497 262.815 17.9264C262.004 18.0679 260.911 18.2329 260.36 17.5729C260.247 17.455 260.348 17.2664 260.517 17.2311Z" fill="#2A164A"/>
</g>
<path d="M284.504 113.57H363.434C362.297 107.37 358.062 87.0394 351.644 82.49C346.294 78.7185 339.875 75.4538 331.193 74.2398C330.607 74.1455 330.033 74.0866 329.436 74.0277C328.637 73.9334 327.837 73.8509 326.993 73.8155C326.993 73.8155 326.993 73.8155 326.97 73.8155C324.526 73.6859 321.914 73.6859 319.121 73.8862H319.008C318.445 73.9216 317.882 73.9805 317.319 74.0513C316.79 74.0866 316.272 74.1691 315.743 74.2398C301.767 76.267 289.65 84.9651 287.297 97.2225C286.936 99.0964 286.621 100.794 286.351 102.314V102.338C285.247 108.36 284.74 111.849 284.504 113.57Z" fill="#FF90BD"/>
<path d="M310.709 113.57H330.54C331.069 108.042 332.42 90.4337 332.589 87.3576C332.938 80.9107 332.679 77.5045 331.373 75.7838C330.889 75.1356 330.247 74.723 329.436 74.4755C328.569 74.228 327.499 74.1573 326.193 74.1927C325.157 74.2163 323.986 74.3105 322.634 74.4048C321.947 74.4638 321.305 74.5227 320.731 74.5934C319.357 74.7466 318.231 74.9352 317.319 75.2063C316.305 75.4891 315.528 75.8545 314.92 76.3024C313.321 77.481 312.961 79.3431 312.522 82.3014C311.846 87.1455 310.776 107.747 310.709 113.57Z" fill="#8B68B4"/>
<path d="M316.328 62.5835H330.619V75.9252H316.328V62.5835Z" fill="#E79F8B"/>
<path d="M282.927 64.9407C283.198 60.0731 282.477 55.0405 280.146 50.8211C279.616 49.8546 278.4 48.841 277.634 49.6189C277.297 49.9607 277.252 50.5029 277.24 50.9861C277.139 54.7458 277.477 58.5055 278.243 62.1828C277.68 60.9334 276.159 60.2852 274.898 60.7095C273.637 61.1338 272.781 62.5481 272.871 63.9271C272.544 62.5246 270.495 62.3595 269.504 63.3614C268.513 64.3632 268.355 65.9425 268.344 67.3922C267.848 66.685 266.7 66.8854 266.159 67.5689C265.63 68.2525 265.562 69.1954 265.562 70.0793C265.585 72.7783 266.114 75.5245 267.477 77.7992C268.839 80.0856 271.125 81.8535 273.693 82.1246C281.812 82.9968 282.612 70.7394 282.927 64.9407Z" fill="#E79F8B"/>
<path d="M279.515 79.2606C279.515 79.2606 286.272 75.2652 283.918 70.8101C281.565 66.355 274.673 68.6651 276.137 71.2698C277.601 73.8862 280.833 73.4148 280.833 73.4148L279.515 79.2606Z" fill="#E79F8B"/>
<path d="M331.092 72.2833C330.337 72.2008 326.632 75.1591 322.657 74.9469C318.682 74.7348 316.7 72.8137 316.103 72.1772C315.517 71.5408 312.252 78.3531 312.747 79.0956C313.243 79.8381 314.695 82.7492 316.148 82.2189C317.601 81.6885 321.7 76.5616 321.7 76.5616C321.7 76.5616 325.416 82.761 326.801 82.761C328.186 82.761 332.668 80.5806 332.905 77.1745C333.141 73.7683 332.06 72.3894 331.092 72.2833Z" fill="white"/>
<path d="M266.441 79.2606L266.734 113.57H288.276L286.351 102.338V102.326L282.308 78.7892L280.157 78.8481H280.134L279.932 78.8717H279.605L268.513 79.2135L266.441 79.2606Z" fill="#FF90BD"/>
<path d="M307.128 26.8131C307.522 26.5185 308.018 26.5538 308.513 27.0488C308.93 27.4731 309.369 28.251 309.527 28.8285C310.09 30.8321 309.876 33.0479 309.56 34.969C309.268 36.7369 308.795 38.493 308.006 40.0134C307.973 40.0723 307.939 40.143 307.905 40.202C307.522 40.9091 307.072 41.5573 306.531 42.1349C306.419 42.1702 306.317 42.2174 306.193 42.2174C305.822 42.2056 305.461 41.9463 305.18 41.6634C303.254 39.7305 303.682 36.6544 304.042 34.4151C304.47 31.7868 305.394 29.3235 306.768 27.2138C306.869 27.0488 306.993 26.9074 307.128 26.8131Z" fill="#2A164A"/>
<path d="M304.583 44.1149C304.583 56.9262 306.519 67.9107 319.346 68.7711C335.889 69.879 342.634 56.9144 342.634 44.1149C342.634 31.3153 334.121 20.9319 323.603 20.9319C313.096 20.9201 304.583 31.3035 304.583 44.1149Z" fill="#E79F8B"/>
<path d="M324.808 55.7476C324.324 54.8872 321.756 55.0994 318.738 54.7458C315.326 54.3451 312.95 53.6615 312.353 54.0033C311.227 54.6515 313.547 59.8609 317.95 60.297C321.103 60.6152 325.686 57.3151 324.808 55.7476Z" fill="white"/>
<path d="M328.006 27.6263C324.504 29.8303 321.024 32.1286 317.251 33.7432C312.95 35.5818 308.242 36.1947 304.233 33.2011C303.31 32.5057 302.161 31.056 303.569 30.2899C304.492 29.7832 305.72 29.9128 306.722 29.8185C305.585 29.9246 304.369 29.6653 303.479 28.9228C302.589 28.1803 302.06 26.9074 302.364 25.7759C302.589 24.9509 303.209 24.2909 303.862 23.7605C305.866 22.1458 308.389 21.3444 310.889 20.8258C311.328 20.7315 311.767 20.6608 312.206 20.5783C311.857 20.0715 311.531 19.5058 311.632 18.9047C311.745 18.2683 312.297 17.8322 312.837 17.4786C317.116 14.7443 322.522 14.5793 327.623 14.5675C331.216 14.5675 334.977 14.6264 338.186 16.3118C339.684 17.0897 341.216 18.3979 341.384 20.0715C344.864 20.3544 347.86 23.1594 349.042 26.4713C350.225 29.7831 349.819 33.4839 348.625 36.7722C347.432 40.0605 345.968 43.7731 344.819 44.4685C343.67 45.1638 343.614 44.3388 342.229 45.0342C340.844 45.7296 340.754 47.7921 339.695 47.8746C338.637 47.9571 338.67 45.0106 338.389 43.6434C337.815 40.8737 337.837 38.0098 337.15 35.2636C336.418 32.2936 334.83 29.5003 332.634 27.2256C332.285 26.8602 331.891 26.4949 331.441 26.2827C331.328 26.2238 330.168 26.5184 329.977 26.5774C329.324 26.7659 328.704 27.1902 328.13 27.5556C328.085 27.5674 328.04 27.6027 328.006 27.6263Z" fill="#2A164A"/>
<path d="M342.488 44.9163C343.862 42.2998 345.923 40.5319 347.939 42.3469C348.592 42.9362 348.93 44.0559 348.963 45.1756C348.986 46.2952 348.738 47.4267 348.389 48.4756C347.511 51.1157 345.957 53.4493 344.008 54.4275C343.276 54.7929 342.421 54.9461 341.813 54.345C340.979 53.5318 340.822 51.8582 340.889 50.4792C340.968 48.7703 341.576 46.6606 342.488 44.9163Z" fill="#E79F8B"/>
<path d="M347.454 45.0931C347.297 44.8102 347.049 44.6216 346.801 44.5627C346.204 44.4095 345.574 44.8338 345.112 45.4113C344.628 46.0124 344.222 46.7784 343.862 47.5327C343.49 48.3106 343.209 49.1828 343.051 50.0903C343.017 50.2671 343.231 50.3378 343.265 50.161C343.603 48.6996 344.312 47.3442 345.078 46.2481C345.191 46.0831 345.326 45.9181 345.461 45.7766C345.63 46.4838 345.641 47.2617 345.506 48.016C345.348 48.9235 345.022 49.6896 344.65 50.4675C344.616 50.55 344.673 50.6442 344.729 50.5735C345.776 49.3478 346.193 47.2027 345.686 45.5409C345.923 45.3406 346.171 45.1873 346.441 45.1638C346.869 45.1284 347.364 45.4938 347.488 46.0949C347.511 46.2009 347.646 46.1656 347.657 46.0477C347.657 45.6824 347.612 45.3641 347.454 45.0931Z" fill="#391B5C"/>
<path d="M302.623 38.658C303.062 37.6208 304.042 37.0316 305.022 37.0551C306.091 37.0905 307.173 37.1612 308.265 37.2083C310.134 37.2908 312.06 37.3144 313.986 37.5148C315.371 37.6562 316.474 38.3162 316.564 39.978C316.564 40.0016 316.564 40.0252 316.564 40.037L316.576 40.0252C317.161 39.707 317.814 39.6598 318.445 39.8248C319.076 40.0016 319.628 40.367 320.123 40.8384L320.134 40.8502C320.168 40.532 320.191 40.202 320.236 39.8838C320.472 38.2101 321.688 37.5973 323.164 37.5266C325.281 37.4323 327.443 37.5266 329.628 37.5383C330.934 37.5501 332.251 37.5383 333.58 37.5737C334.83 37.5973 336.013 38.3398 336.474 39.542C336.733 40.2255 336.778 40.9799 336.722 41.7224C336.745 41.7224 336.778 41.7342 336.801 41.7342C337.139 41.7813 337.488 41.8402 337.826 41.8874C338.445 41.9817 339.053 42.0759 339.673 42.1584C340.281 42.2527 340.889 42.3706 341.508 42.4885C341.824 42.5474 342.173 42.5827 342.454 42.7242C342.646 42.8185 342.882 43.066 342.736 43.3135C342.443 43.7849 341.587 43.5728 341.125 43.5374C340.528 43.4903 339.932 43.4431 339.335 43.3606C338.738 43.2781 338.141 43.2074 337.544 43.1249C337.24 43.0778 336.936 43.0424 336.643 42.9952C336.61 42.9952 336.587 42.9835 336.553 42.9835C336.215 45.1992 335.799 47.4857 335.078 49.56C334.785 50.4204 334.402 51.2572 333.535 51.6108C332.724 51.929 331.767 51.8347 330.923 51.8229C329.819 51.7994 328.715 51.7404 327.623 51.6226C325.652 51.4222 323.614 51.1747 321.767 50.5736C319.999 50.0079 319.808 48.3579 319.842 46.6371C319.875 45.1521 319.898 43.6199 319.999 42.1113C319.481 41.6988 318.929 41.3334 318.332 41.1449C318.119 41.0741 317.927 41.0388 317.702 41.0506C317.589 41.0506 317.589 41.0506 317.477 41.0859C317.432 41.0977 317.398 41.1095 317.353 41.1213C317.33 41.1331 317.308 41.1331 317.285 41.1449C317.33 41.1213 317.33 41.1213 317.285 41.1449C317.195 41.192 317.116 41.2391 317.037 41.2981C317.026 41.3099 317.015 41.3099 317.015 41.3216C316.97 41.357 316.936 41.4041 316.902 41.4513C316.891 41.4631 316.823 41.5691 316.857 41.5102C316.891 41.4513 316.812 41.6045 316.801 41.6163C316.778 41.6517 316.756 41.6988 316.79 41.6281C316.733 41.7459 316.722 41.8167 316.655 41.9109C316.632 41.9463 316.598 41.9581 316.564 41.9817C316.531 43.5256 316.418 45.0814 316.317 46.6018C316.204 48.2871 315.878 49.8665 314.143 50.1611C312.387 50.4558 310.54 50.3968 308.828 50.2908C307.893 50.2318 306.97 50.1375 306.058 50.0079C305.371 49.9018 304.605 49.8665 303.986 49.4657C303.332 49.0414 303.096 48.2518 302.938 47.4739C302.51 45.3996 302.364 43.1603 302.274 41.0388C302.24 40.2609 302.296 39.4005 302.623 38.658Z" fill="black"/>
<path d="M321.103 47.8864C321.193 48.7821 321.598 49.1711 322.409 49.3714C325.438 50.1257 328.862 50.55 332.116 50.3733C333.242 50.3143 333.524 49.7604 333.884 48.7468C334.211 47.8511 334.47 46.9318 334.673 46.0007C334.999 44.5156 335.461 42.9952 335.382 41.4513C335.281 39.4005 334.436 39.0941 332.589 39.0823C331.7 39.0823 330.833 39.0705 329.954 39.0705C328.231 39.0587 326.519 39.0705 324.842 39.0352C324.155 39.0234 323.434 38.9527 322.758 39.0352C321.959 39.1294 321.632 39.4241 321.531 40.2845C321.317 42.017 321.227 43.7731 321.148 45.5057C321.114 46.2953 321.024 47.1085 321.103 47.8864Z" fill="white"/>
<path d="M303.535 44.4331C303.626 45.2699 303.761 46.1067 303.941 46.9318C304.155 47.8746 304.335 48.3932 305.225 48.5818C307.882 49.1593 310.878 49.2418 313.682 48.9354C314.448 48.8529 314.876 48.5347 315.033 47.6743C315.168 46.9318 315.168 46.1303 315.202 45.376C315.281 43.6788 315.349 41.9581 315.292 40.2609C315.27 39.4241 314.988 39.1177 314.245 38.9645C313.614 38.8466 312.961 38.8584 312.33 38.8348C310.833 38.7641 309.346 38.658 307.882 38.5637C307.162 38.5166 306.43 38.4694 305.72 38.4341C304.245 38.3398 303.569 38.5755 303.333 40.367C303.153 41.7342 303.4 43.1013 303.535 44.4331Z" fill="white"/>
<path d="M378.175 103.893C378.175 106.816 380.438 109.185 383.231 109.185C386.024 109.185 388.287 106.816 388.287 103.893C388.287 100.97 386.024 98.6014 383.231 98.6014C380.438 98.6014 378.175 100.97 378.175 103.893Z" fill="#C87AFF"/>
<path d="M431.272 340.379C429.887 340.379 428.93 340.602 428.13 341.899C427.657 342.677 427.443 343.608 427.364 344.492C427.297 345.246 427.522 346.26 426.914 346.719C425.968 347.427 424.189 347.438 423.119 347.285C421.205 347.002 420.281 345.989 421.024 344.056C421.734 342.205 423.164 340.744 424.864 339.86C426.171 339.188 427.623 338.622 429.076 338.564C429.718 338.54 430.225 338.74 430.709 339.165C430.957 339.388 431.644 340.049 431.272 340.379Z" fill="#2A164A"/>
<path d="M448.344 362.242C451.419 361.181 456.869 373.049 458.187 375.006C463.333 382.667 466.892 391.294 469.358 400.263C472.68 412.344 476.137 424.519 474.797 437.236C473.93 445.462 468.952 451.461 460.484 450.53C456.464 450.082 448.671 449.411 445.349 446.994C443.828 445.898 443.727 444.46 445.045 442.504C446.385 440.512 447.353 440.925 449.639 441.408C453.964 442.304 457.68 443.518 461.407 440.017C465.067 436.576 465.461 430.518 465.27 425.65C464.977 418.519 463.637 411.578 461.847 404.647C459.583 395.902 456.182 388.006 453.051 379.626C451.666 375.913 449.673 372 448.874 368.111C448.401 365.789 448.907 363.939 448.119 361.77C448.502 361.699 448.964 361.652 448.344 362.242Z" fill="#2A164A"/>
<path opacity="0.38" d="M464.076 447.784C465.923 446.099 467.263 443.907 468.209 441.561C470.326 436.269 470.641 430.282 470.473 424.613C470.281 418.319 469.391 412.049 468.412 405.85C467.59 400.652 466.599 395.49 465.304 390.398C464.819 388.477 464.268 386.591 463.671 384.717C466.024 389.691 467.894 394.912 469.369 400.251C472.691 412.332 476.148 424.507 474.808 437.224C473.941 445.451 468.964 451.45 460.495 450.518C460.247 450.495 459.977 450.46 459.695 450.436C461.295 449.847 462.781 448.975 464.076 447.784Z" fill="#8B68B4"/>
<path d="M389.921 446.818C391.981 448.915 407.466 451.473 421.835 452.227C424.831 452.381 427.759 452.463 430.518 452.439C437.319 452.404 445.799 452.675 448.164 450.66C453.795 445.898 467.601 364.457 443.75 350.137C438.288 346.861 425.326 344.975 420.315 345.211C419.707 345.246 419.121 345.281 418.558 345.364C402.781 347.285 393.93 365.813 390.09 392.873C384.898 429.245 386.351 443.211 389.921 446.818Z" fill="#FFB3D2"/>
<path opacity="0.51" d="M421.821 452.228C424.817 452.381 427.745 452.464 430.504 452.452C437.306 452.416 445.785 452.676 448.15 450.672C453.781 445.899 467.587 364.47 443.736 350.15C441.315 348.7 437.429 347.521 433.409 346.673C431.427 346.26 429.4 345.919 427.52 345.683C424.603 345.306 422.001 345.141 420.301 345.211C419.693 345.247 419.107 345.282 418.533 345.365C424.637 345.977 429.547 350.515 431.866 358.27C438.758 381.335 431.788 424.012 421.821 452.228Z" fill="#FF90BD"/>
<path opacity="0.5" d="M427.522 345.682C429.774 346.99 431.846 348.57 433.592 350.585C437.432 355.017 440.045 360.757 441.779 366.426C443.524 372.118 444.425 378.07 444.797 384.034C445.202 390.363 444.549 396.621 444.177 402.938C443.761 410.034 442.545 416.905 441.869 423.965C441.824 424.483 443.322 424.908 443.761 424.636C444.268 424.766 444.808 424.766 444.876 424.495C445.855 420.488 446.137 416.221 446.621 412.12C447.083 408.089 447.443 404.035 447.657 399.98C448.31 387.57 447.916 374.652 443.626 362.913C441.554 357.244 438.581 351.351 434.155 347.321C433.907 347.097 433.671 346.884 433.412 346.672C431.43 346.26 429.403 345.918 427.522 345.682Z" fill="#695043"/>
<path d="M399.538 375.171C399.695 374.204 399.988 373.085 400.72 372.484C401.553 371.788 402.849 371.835 403.862 371.835C407.015 371.859 410.303 372.036 413.738 372.366C415.258 372.519 416.903 372.578 418.457 372.99C418.806 373.085 420.551 373.049 421.114 374.086C421.385 374.581 421.227 376.679 421.114 378.483C420.99 380.51 420.855 382.254 419.966 382.596C419.583 382.596 419.245 382.761 418.873 382.784C418.457 382.808 417.984 382.702 417.567 382.655C416.666 382.561 415.776 382.478 414.898 382.384C413.209 382.207 411.553 382.018 409.943 381.818C406.846 381.453 403.885 381.052 401.035 380.651C400.371 380.557 399.684 380.333 399.403 379.555C399.222 379.072 399.234 378.53 399.256 378.011C399.29 377.056 399.38 376.102 399.538 375.171Z" fill="#2A164A"/>
<path d="M437.939 348.959C439.087 349.029 438.119 342.088 437.128 340.685C435.484 338.375 432.578 337.68 429.988 337.397C426.993 337.067 420.923 340.308 421.002 344.327C422.77 340.991 428.367 337.385 431.441 341.31C432.781 343.019 431.396 345.682 432.274 347.085C433.412 348.888 436.79 348.888 437.939 348.959Z" fill="#8B68B4"/>
<path d="M382.261 448.303C384.074 449.729 399.84 452.487 410.279 452.699C414.029 452.781 417.081 452.534 418.578 451.791C421.867 450.177 423.905 434.82 423.477 419.109C423.162 407.488 419.626 397.317 412.745 394.064C409.637 392.59 406.608 391.883 403.736 391.871C402.497 391.86 401.292 391.989 400.121 392.225C389.873 394.264 382.25 405.213 380.617 419.356C378.398 438.886 379.795 446.382 382.261 448.303Z" fill="#8B68B4"/>
<path opacity="0.54" d="M400.135 392.227C404.256 392.686 407.117 395.762 407.815 397.094C411.587 404.284 412.623 413.265 412.86 421.621C413.141 431.25 412.894 442.906 410.292 452.712C414.042 452.795 417.094 452.547 418.592 451.805C421.88 450.19 423.919 434.833 423.491 419.122C423.175 407.501 419.639 397.33 412.759 394.077C409.65 392.604 406.621 391.897 403.75 391.885C402.511 391.861 401.306 391.991 400.135 392.227Z" fill="#2A164A"/>
<path d="M443.457 423.198C441.588 423.175 440.833 429.398 441.261 429.999C441.689 430.6 444.054 430.812 444.651 430.376C445.259 429.952 445.326 423.222 443.457 423.198Z" fill="#2A164A"/>
<path d="M303.671 452.534H307.882L293.671 320.79H281.959L303.671 452.534Z" fill="black"/>
<path d="M163.614 452.534H159.414L173.625 320.79H185.337L163.614 452.534Z" fill="black"/>
<path d="M193.006 452.534H188.794L203.017 320.79H214.718L193.006 452.534Z" fill="black"/>
<path d="M275.833 452.534H280.044L265.833 320.79H254.121L275.833 452.534Z" fill="black"/>
<path d="M150.573 170.92L172.781 305.834H224.796L202.578 170.92H150.573Z" fill="#2A164A"/>
<path opacity="0.45" d="M156.913 170.92L179.132 305.834H224.796L202.578 170.92H156.913Z" fill="#2A164A"/>
<path d="M172.781 305.834H295.653V323.996H172.781V305.834Z" fill="#2A164A"/>
<path opacity="0.45" d="M251.542 305.834H295.653V323.996H251.542V305.834Z" fill="#2A164A"/>
<path d="M330.056 369.667C330.056 369.667 352.274 374.275 347.094 379.685C341.903 385.094 312.353 390.269 310.923 388.206C309.504 386.143 305.112 370.798 305.112 370.798L325.63 361.098L330.056 369.667Z" fill="white"/>
<path d="M316.936 384.211C314.357 382.183 311.553 380.168 308.344 379.779C307.758 379.708 307.038 379.755 306.745 380.286C306.587 380.557 306.587 380.899 306.621 381.217C306.79 383.008 307.713 384.635 308.704 386.108C309.718 387.605 310.855 389.043 312.274 390.127C313.693 391.211 315.427 391.919 317.184 391.824C318.502 391.754 321.587 390.634 321.497 388.819C321.418 387.181 318.062 385.094 316.936 384.211Z" fill="#8B68B4"/>
<path d="M337.995 381.806C337.882 383.468 338.029 385.377 339.268 386.426C340.585 387.546 342.556 387.169 344.099 386.403C346.204 385.342 348.04 383.621 349.076 381.429C350.101 379.237 350.27 376.561 349.301 374.334C348.941 373.485 348.423 372.731 347.871 372C347.128 371.022 346.272 370.091 345.202 369.549C344.245 369.077 342.657 368.806 341.835 369.667C341.047 370.503 340.484 372.201 340.033 373.261C338.896 375.96 338.198 378.871 337.995 381.806Z" fill="#8B68B4"/>
<path opacity="0.24" d="M334.403 384.022C330.225 385.071 326.036 385.248 321.914 385.13C319.741 385.071 317.218 384.623 316.587 382.372C316.114 380.639 317.027 378.577 318.096 376.927C319.887 374.181 322.229 371.835 324.842 370.173C325.934 369.478 327.072 368.901 328.085 368.04C329.087 367.18 329.966 365.954 330.123 364.622C330.292 363.22 329.617 361.959 328.648 361.24C327.68 360.521 326.475 360.273 325.27 360.12C319.955 359.436 314.009 360.603 309.256 364.528C304.504 368.453 301.373 375.501 302.759 381.193C303.502 384.258 305.405 386.638 307.59 388.489C312.77 392.873 319.819 394.594 326.846 393.191C331.677 392.225 336.464 389.785 340.596 386.273C342.533 384.623 347.105 381.512 348.479 379.237C350.563 375.795 345.281 379.803 344.211 380.486C341.43 382.289 337.398 383.279 334.403 384.022Z" fill="#8B68B4"/>
<path d="M300.517 383.138C300.517 383.138 319.11 396.68 312.285 399.462C305.461 402.243 276.396 394.582 275.889 392.095C275.371 389.608 277.229 373.709 277.229 373.709L299.74 373.426L300.517 383.138Z" fill="white"/>
<path d="M282.927 390.952C281.339 388.006 279.549 385 276.756 383.291C276.249 382.973 275.574 382.725 275.089 383.091C274.842 383.279 274.718 383.586 274.616 383.892C274.076 385.613 274.312 387.475 274.661 389.243C275.022 391.046 275.506 392.838 276.396 394.429C277.285 396.02 278.603 397.387 280.247 398.035C281.486 398.519 284.74 398.801 285.348 397.093C285.889 395.56 283.614 392.237 282.927 390.952Z" fill="#8B68B4"/>
<path d="M303.141 397.599C302.398 399.073 301.801 400.888 302.533 402.361C303.322 403.94 305.27 404.423 306.97 404.365C309.301 404.282 311.655 403.469 313.434 401.889C315.213 400.31 316.396 397.929 316.362 395.478C316.351 394.559 316.171 393.639 315.945 392.744C315.641 391.541 315.213 390.327 314.436 389.385C313.749 388.548 312.387 387.628 311.306 388.088C310.27 388.524 309.099 389.844 308.276 390.622C306.204 392.614 304.448 394.983 303.141 397.599Z" fill="#8B68B4"/>
<path opacity="0.24" d="M298.997 398.118C294.774 397.316 290.855 395.737 287.128 393.899C285.168 392.932 283.017 391.459 283.31 389.137C283.535 387.346 285.168 385.849 286.779 384.788C289.47 383.02 292.511 381.853 295.54 381.441C296.801 381.264 298.074 381.217 299.324 380.851C300.574 380.486 301.846 379.732 302.499 378.577C303.198 377.363 303.051 375.925 302.443 374.864C301.835 373.803 300.821 373.061 299.774 372.424C295.168 369.572 289.267 368.134 283.411 369.737C277.556 371.34 271.981 376.479 271.069 382.289C270.574 385.413 271.407 388.394 272.702 390.999C275.776 397.187 281.576 401.724 288.535 403.386C293.333 404.529 298.648 404.306 303.772 402.82C306.17 402.125 311.553 401.194 313.693 399.685C316.925 397.399 310.54 398.86 309.301 399.037C306.103 399.473 302.038 398.684 298.997 398.118Z" fill="#8B68B4"/>
<path d="M201.25 270.441C201.25 270.441 194.808 302.345 213.378 302.852C231.948 303.359 281.948 305.386 281.948 305.386L305.63 377.705L333.998 366.932C333.998 366.932 313.637 287.165 305.968 280.588C298.299 274.012 249.527 269.957 240.124 270.205C230.698 270.441 201.25 270.441 201.25 270.441Z" fill="#C87AFF"/>
<path opacity="0.29" d="M201.25 270.441C201.25 270.441 194.808 302.345 213.378 302.852C231.948 303.359 281.948 305.386 281.948 305.386L305.63 377.705L333.998 366.932C333.998 366.932 313.637 287.165 305.968 280.588C298.299 274.012 249.527 269.957 240.124 270.205C230.698 270.441 201.25 270.441 201.25 270.441Z" fill="#663BFF"/>
<path d="M334.975 368.465L306.123 379.131L301.258 369.926L333.026 357.704L334.975 368.465Z" fill="#5F4436"/>
<path opacity="0.3" d="M334.975 368.465L306.123 379.131L301.258 369.926L333.026 357.704L334.975 368.465Z" fill="#C87AFF"/>
<path opacity="0.27" d="M321.227 370.598C323.614 368.382 325.788 365.907 327.59 363.149C328.468 361.805 329.29 360.379 329.966 358.883L333.029 357.704L334.988 368.465L312.668 376.715C315.743 375.041 318.637 372.99 321.227 370.598Z" fill="#5F4436"/>
<path d="M184.884 271.702C184.884 271.702 178.206 305.575 197.474 306.117C216.743 306.659 268.634 308.804 268.634 308.804L274.096 381.806L303.24 380.734C303.24 380.734 301.517 289.44 293.556 282.451C285.594 275.461 234.986 271.16 225.222 271.431C215.459 271.702 184.884 271.702 184.884 271.702Z" fill="#C87AFF"/>
<path opacity="0.1" d="M281.768 380.816C282.77 378.659 283.378 376.314 283.918 373.98C284.481 371.553 285.011 369.101 285.506 366.65C286.677 360.851 287.308 354.958 287.77 349.053C288.175 343.914 288.513 338.764 288.952 333.625C289.369 328.734 289.752 323.831 289.808 318.916C289.921 309.37 288.783 299.552 283.49 291.526C279.144 284.937 273.457 279.516 267.06 275.19C279.301 277.041 290.213 279.504 293.569 282.451C301.531 289.44 303.254 380.734 303.254 380.734L281.385 381.535C281.497 381.299 281.644 381.064 281.768 380.816Z" fill="#C87AFF"/>
<path opacity="0.1" d="M184.887 271.702C184.887 271.702 187.646 271.702 191.756 271.69C191.767 272.173 191.79 272.668 191.824 273.151C191.948 275.261 192.218 277.359 192.634 279.433C193.017 281.366 193.468 283.382 194.324 285.15C196.058 288.756 199.312 291.372 202.499 293.494C205.878 295.745 209.47 297.595 213.22 299.057C221.227 302.18 229.74 303.724 238.209 304.738C243.884 305.41 249.583 305.692 255.258 306.211C258.04 306.459 260.821 306.765 263.569 307.284C264.617 307.484 265.664 307.708 266.666 308.061C267.071 308.203 267.702 308.415 268.029 308.792C262.229 308.556 215.529 306.635 197.466 306.129C178.209 305.575 184.887 271.702 184.887 271.702Z" fill="#C87AFF"/>
<path d="M281.452 369.678C281.463 369.678 281.463 369.678 281.475 369.678C281.632 369.667 281.745 369.525 281.734 369.36L281.61 367.604C281.598 367.439 281.486 367.298 281.306 367.333C281.148 367.345 281.035 367.486 281.047 367.651L281.171 369.407C281.182 369.549 281.306 369.678 281.452 369.678Z" fill="#5F4436"/>
<path d="M281.069 364.328C281.081 364.328 281.081 364.328 281.092 364.328C281.249 364.316 281.362 364.174 281.351 364.009L281.092 360.415C281.081 360.25 280.945 360.108 280.788 360.144C280.63 360.155 280.517 360.297 280.529 360.462L280.788 364.057C280.799 364.21 280.923 364.328 281.069 364.328ZM280.551 357.126C280.562 357.126 280.562 357.126 280.574 357.126C280.731 357.115 280.844 356.973 280.833 356.808L280.562 353.213C280.551 353.048 280.439 352.919 280.258 352.942C280.101 352.954 279.988 353.096 279.999 353.261L280.27 356.855C280.281 357.009 280.405 357.126 280.551 357.126ZM280.011 349.937C280.022 349.937 280.022 349.937 280.033 349.937C280.191 349.925 280.303 349.784 280.292 349.619C280.202 348.452 280.112 347.25 280.022 346.024C280.011 345.859 279.864 345.729 279.718 345.753C279.56 345.765 279.448 345.906 279.459 346.071C279.549 347.297 279.65 348.499 279.729 349.666C279.74 349.819 279.864 349.937 280.011 349.937ZM279.459 342.748C279.47 342.748 279.47 342.748 279.481 342.748C279.639 342.736 279.752 342.594 279.74 342.429L279.459 338.835C279.448 338.67 279.312 338.54 279.155 338.564C278.997 338.575 278.885 338.717 278.896 338.882L279.177 342.476C279.189 342.63 279.312 342.748 279.459 342.748ZM278.896 335.57C278.907 335.57 278.907 335.57 278.918 335.57C279.076 335.558 279.189 335.417 279.177 335.252L278.885 331.657C278.873 331.492 278.749 331.374 278.58 331.386C278.423 331.398 278.31 331.539 278.322 331.704L278.614 335.299C278.626 335.452 278.749 335.57 278.896 335.57ZM278.31 328.38C278.321 328.38 278.321 328.38 278.333 328.38C278.49 328.369 278.603 328.227 278.592 328.062L278.288 324.467C278.276 324.302 278.164 324.173 277.984 324.196C277.826 324.208 277.713 324.35 277.725 324.515L278.029 328.109C278.04 328.274 278.164 328.38 278.31 328.38ZM277.691 321.203C277.702 321.203 277.713 321.203 277.713 321.203C277.871 321.191 277.984 321.05 277.972 320.885C277.86 319.671 277.758 318.468 277.646 317.29C277.635 317.125 277.499 316.995 277.342 317.019C277.184 317.031 277.071 317.172 277.083 317.337C277.184 318.516 277.297 319.706 277.409 320.932C277.421 321.085 277.544 321.203 277.691 321.203ZM277.026 314.025C277.038 314.025 277.049 314.025 277.049 314.025C277.207 314.013 277.319 313.86 277.297 313.707C277.184 312.469 277.06 311.279 276.948 310.112C276.936 309.947 276.79 309.841 276.632 309.853C276.475 309.865 276.362 310.018 276.385 310.183C276.497 311.338 276.621 312.54 276.734 313.766C276.767 313.907 276.891 314.025 277.026 314.025ZM276.306 306.847C276.317 306.847 276.328 306.847 276.34 306.847C276.497 306.836 276.61 306.682 276.587 306.517C276.452 305.245 276.317 304.042 276.182 302.935C276.159 302.77 276.013 302.663 275.867 302.675C275.709 302.699 275.608 302.84 275.619 303.005C275.754 304.113 275.889 305.315 276.024 306.588C276.047 306.741 276.171 306.847 276.306 306.847ZM275.45 299.693C275.461 299.693 275.472 299.693 275.495 299.693C275.653 299.67 275.754 299.517 275.731 299.363C275.517 297.808 275.315 296.594 275.123 295.78C275.089 295.627 274.932 295.521 274.785 295.557C274.639 295.592 274.538 295.757 274.571 295.91C274.752 296.712 274.954 297.902 275.168 299.446C275.191 299.587 275.315 299.693 275.45 299.693ZM272.297 294.449C272.432 294.449 272.556 294.343 272.578 294.189C272.601 294.024 272.488 293.883 272.33 293.859C271.452 293.741 270.326 293.624 268.885 293.494C268.727 293.47 268.592 293.6 268.58 293.765C268.569 293.93 268.682 294.071 268.839 294.083C270.27 294.213 271.396 294.331 272.263 294.449C272.274 294.437 272.285 294.449 272.297 294.449ZM265.416 293.789C265.562 293.789 265.686 293.671 265.698 293.518C265.709 293.353 265.596 293.211 265.439 293.199C264.358 293.117 263.209 293.034 261.993 292.94C261.824 292.916 261.7 293.046 261.689 293.211C261.677 293.376 261.79 293.518 261.948 293.529C263.164 293.612 264.312 293.706 265.382 293.789C265.405 293.789 265.405 293.789 265.416 293.789ZM258.535 293.294C258.682 293.294 258.806 293.176 258.817 293.023C258.828 292.858 258.704 292.716 258.558 292.716C257.443 292.645 256.294 292.563 255.112 292.492C254.932 292.492 254.819 292.61 254.808 292.763C254.797 292.928 254.921 293.07 255.067 293.081C256.249 293.152 257.398 293.235 258.513 293.305C258.524 293.294 258.524 293.294 258.535 293.294ZM251.655 292.858C251.801 292.858 251.925 292.74 251.936 292.575C251.948 292.41 251.824 292.268 251.666 292.268L248.22 292.056C248.074 292.056 247.927 292.174 247.927 292.339C247.916 292.504 248.04 292.645 248.198 292.645L251.644 292.858C251.644 292.858 251.644 292.858 251.655 292.858ZM244.763 292.433C244.909 292.433 245.033 292.315 245.044 292.15C245.056 291.985 244.932 291.844 244.774 291.844L241.339 291.632C241.182 291.62 241.047 291.75 241.047 291.915C241.035 292.08 241.159 292.221 241.317 292.221L244.752 292.433H244.763ZM237.893 292.021C238.04 292.021 238.164 291.903 238.175 291.738C238.186 291.573 238.062 291.431 237.905 291.431L234.459 291.219C234.301 291.208 234.166 291.337 234.166 291.502C234.155 291.667 234.279 291.809 234.436 291.809L237.882 292.021C237.882 292.021 237.882 292.021 237.893 292.021ZM231.002 291.596C231.148 291.596 231.272 291.479 231.283 291.314C231.294 291.149 231.171 291.007 231.013 291.007C229.842 290.936 228.693 290.854 227.578 290.783C227.421 290.76 227.285 290.901 227.274 291.054C227.263 291.219 227.387 291.361 227.533 291.361C228.659 291.431 229.808 291.514 230.979 291.585C230.99 291.596 231.002 291.596 231.002 291.596ZM224.121 291.149C224.267 291.149 224.391 291.031 224.403 290.878C224.414 290.712 224.301 290.571 224.143 290.559C222.95 290.477 221.801 290.394 220.709 290.312C220.551 290.288 220.416 290.418 220.405 290.583C220.393 290.748 220.506 290.889 220.664 290.901C221.767 290.984 222.916 291.066 224.11 291.149H224.121ZM217.24 290.63C217.387 290.63 217.511 290.512 217.522 290.359C217.533 290.194 217.421 290.052 217.263 290.041C216.013 289.935 214.864 289.84 213.828 289.746C213.659 289.722 213.535 289.852 213.524 290.017C213.513 290.182 213.625 290.324 213.783 290.335C214.819 290.43 215.979 290.536 217.229 290.63H217.24ZM210.371 289.958C210.506 289.958 210.63 289.852 210.652 289.699C210.675 289.534 210.562 289.392 210.405 289.369C208.592 289.133 208.107 288.956 207.984 288.874C207.758 288.732 207.522 288.567 207.274 288.402C207.15 288.308 206.97 288.344 206.88 288.485C206.79 288.615 206.824 288.803 206.959 288.897C207.207 289.074 207.454 289.239 207.691 289.392C207.893 289.522 208.389 289.711 210.337 289.97C210.348 289.958 210.36 289.958 210.371 289.958ZM204.448 286.67C204.526 286.67 204.594 286.635 204.65 286.576C204.763 286.458 204.752 286.269 204.639 286.163C203.794 285.303 203.051 284.407 202.443 283.476C202.353 283.334 202.173 283.311 202.049 283.405C201.925 283.499 201.891 283.688 201.981 283.818C202.623 284.772 203.378 285.703 204.256 286.587C204.312 286.635 204.38 286.67 204.448 286.67Z" fill="#5F4436"/>
<path d="M200.742 281.107C200.776 281.107 200.81 281.095 200.844 281.083C200.99 281.024 201.058 280.848 201.001 280.706C200.799 280.152 200.641 279.598 200.528 279.056C200.495 278.903 200.337 278.797 200.191 278.832C200.033 278.868 199.943 279.021 199.977 279.186C200.089 279.763 200.258 280.353 200.472 280.93C200.529 281.036 200.63 281.107 200.742 281.107Z" fill="#5F4436"/>
<path d="M303.837 381.676L273.24 382.631L271.292 372.318L305.099 370.798L303.837 381.676Z" fill="#5F4436"/>
<path opacity="0.27" d="M290.112 379.319C293.04 377.976 295.81 376.302 298.344 374.251C299.572 373.25 300.776 372.153 301.846 370.939L305.112 370.798L303.84 381.676L280.168 382.419C283.592 381.806 286.948 380.769 290.112 379.319Z" fill="#5F4436"/>
<path d="M249.369 204.274C249.369 204.274 269.211 227.764 272.128 228.742C275.045 229.72 305.833 235.201 305.833 235.201L307.477 245.513C307.477 245.513 270.146 249.332 265.867 246.668C261.599 243.993 236.34 221.67 236.34 221.67L249.369 204.274Z" fill="#FFA18B"/>
<path d="M263.141 216.331C263.141 216.331 246.678 189.235 239.47 187.279C232.263 185.322 218.536 191.109 226.227 206.148C233.918 221.187 243.716 231.924 243.716 231.924C243.716 231.924 258.502 230.027 263.141 216.331Z" fill="#8B68B4"/>
<path opacity="0.38" d="M236.722 186.914C238.704 189.66 240.393 192.63 241.959 195.647C243.896 199.395 245.619 203.261 247.285 207.15C248.975 211.098 250.54 215.117 251.846 219.219C252.747 222.059 253.513 224.947 254.11 227.87C248.918 231.264 243.716 231.924 243.716 231.924C243.716 231.924 233.907 221.187 226.227 206.148C219.436 192.865 229.346 186.796 236.722 186.914Z" fill="#8B68B4"/>
<path d="M182.758 234.105C184.808 202.565 186.193 194.728 189.707 190.108C193.198 185.535 206.081 183.531 215.157 183.154C224.234 182.777 237.477 185.464 241.25 188.175C245.033 190.885 247.286 202.377 246.711 216.673C246.205 229.06 243.716 242.213 243.817 247.953C243.997 258.596 246.002 262.697 247.455 270.617C236.114 278.879 192.207 283.311 182.792 281.331C181.858 270.57 181.767 249.379 182.758 234.105Z" fill="white"/>
<path d="M230.968 190.496C231.25 191.923 230.698 193.455 229.752 194.539C228.806 195.623 227.409 196.142 226.081 196.531C223.502 197.273 217.657 196.472 215.033 193.396C210.664 204.262 205.619 215.824 195.416 221.659C192.59 223.273 189.549 224.64 186.385 225.076C183.186 225.513 179.831 224.935 177.353 222.955C174.436 220.621 173.119 216.614 173.119 212.678C173.119 208.753 174.29 204.887 175.619 201.163C177.905 194.787 180.822 188.469 185.585 183.849C192.747 176.884 202.894 174.845 212.263 174.515C220.146 174.232 228.006 174.963 235.214 177.626C242.331 180.254 248.851 184.898 253.108 191.451C258.614 199.937 259.977 211.593 256.61 221.706C256.081 221.776 255.202 221.894 254.752 221.588C249.718 218.276 247.162 211.9 244.02 206.36C240.63 200.408 236.047 194.869 230.968 190.496Z" fill="#8B68B4"/>
<path opacity="0.24" d="M199.684 261.507C201.002 265.797 202.511 270.24 205.596 273.375C210.776 278.644 218.975 278.938 224.988 283.099C223.423 287.684 218.243 289.487 213.704 290.571C204.752 292.704 195.191 294.343 186.531 291.149C183.603 290.076 180.754 288.355 179.065 285.633C177.736 283.488 177.229 280.907 176.846 278.373C174.932 265.691 175.484 252.762 176.182 239.95C176.914 226.491 177.803 213.031 178.896 199.595C179.211 195.765 179.594 191.769 181.644 188.575C182.871 186.654 184.74 185.075 186.824 184.285C190.067 183.036 189.493 185.558 189.301 188.175C188.873 194.197 188.828 200.244 189.132 206.266C189.718 218.217 191.61 230.062 194.312 241.683C195.844 248.354 197.668 254.966 199.684 261.507Z" fill="#8B68B4"/>
<path opacity="0.24" d="M222.331 279.103C227.117 277.3 231.7 275.638 236.171 273.151C238.265 271.985 240.416 270.629 241.396 268.555C238.907 268.225 236.373 268.52 233.885 268.802C229.842 269.262 225.81 269.734 221.767 270.193C226.024 268.696 229.999 266.233 233.862 263.935C235.81 262.78 241.249 260.423 239.673 257.17C239.144 256.062 237.939 255.555 237.004 254.895C235.81 254.035 235.653 252.832 236.351 251.512C237.274 249.78 239.065 248.672 240.596 247.635C242.308 246.468 243.851 245.195 245.315 243.698C246.126 242.862 246.925 241.966 247.646 241.011C247.961 243.616 247.409 246.338 247.522 248.99C247.635 251.654 248.434 254.247 249.009 256.851C250.315 262.733 250.506 268.826 249.572 274.743C249.403 275.827 249.177 276.935 248.524 277.842C247.781 278.879 246.554 279.539 245.326 280.082C239.042 282.898 231.925 283.712 224.943 284.313C220.765 284.655 217.635 280.883 222.331 279.103Z" fill="#8B68B4"/>
<path d="M294.324 231.455C293.164 228.426 290.788 225.809 288.017 223.817C287.173 223.204 286.261 222.639 285.258 222.332C283.242 221.696 280.889 222.002 278.986 222.462C276.553 223.051 274.312 224.1 272.049 225.008C269.932 225.856 267.815 226.705 265.697 227.565C265.213 227.766 264.616 228.166 264.087 228.237C259.763 228.826 232.826 232.456 227.983 232.621C223.028 227.129 215.506 212.467 215.506 212.467C215.506 212.467 202.094 214.176 198.062 222.273C198.017 222.049 214.357 246.493 216.79 247.837C219.222 249.181 230.247 247.259 243.569 243.653C253.648 240.919 262.375 238.078 266.013 236.853C266.542 237.006 267.139 237.112 267.803 237.159C274.853 237.678 273.783 233.482 274.121 233.234L273.941 232.987C275.303 233.493 276.677 233.965 278.062 234.389C278.625 234.554 279.369 234.66 279.605 234.201C279.797 233.835 279.515 233.387 279.245 233.034C278.344 231.843 277.33 230.724 276.249 229.675C278.524 231.266 280.81 232.845 283.085 234.436C283.535 234.755 284.166 235.073 284.571 234.79C284.977 234.507 284.808 233.871 284.571 233.399C283.434 231.125 281.722 229.05 279.616 227.436C281.148 228.649 282.691 229.852 284.222 231.066C285.27 231.891 286.328 232.727 287.454 233.47C288.468 234.142 289.729 234.755 290.799 234.377C290.934 234.33 291.08 234.248 291.125 234.118C291.159 233.989 291.103 233.847 291.035 233.729C289.718 231.054 287.387 228.885 285.101 226.799C287.128 228.426 289.166 230.064 291.193 231.69C291.981 232.315 292.95 232.998 293.884 232.763C294.087 232.716 294.279 232.61 294.38 232.445C294.549 232.15 294.447 231.773 294.324 231.455Z" fill="#FFC9B0"/>
<path d="M219.785 232.018C221.396 230.074 222.409 228.023 223.141 225.878C219.222 219.679 215.517 212.454 215.517 212.454C215.517 212.454 202.105 214.163 198.074 222.26C198.04 222.118 204.898 232.337 210.382 239.903C214.166 238.548 217.589 234.67 219.785 232.018Z" fill="#FFC9B0"/>
<path opacity="0.3" d="M274.234 231.842C272.578 232.054 271.148 232.761 269.56 233.162C268.029 233.551 266.429 233.692 264.875 233.975C260.686 234.753 256.722 236.285 252.77 237.64C245.326 240.198 237.724 242.378 229.943 244.123C225.224 245.183 220.236 246.586 215.236 246.268C215.934 247.093 216.474 247.647 216.79 247.812C219.222 249.155 230.247 247.234 243.569 243.628C253.648 240.893 262.375 238.053 266.013 236.827C266.542 236.98 267.139 237.086 267.803 237.134C274.853 237.652 273.783 233.456 274.121 233.209L273.941 232.961C275.303 233.468 276.677 233.94 278.062 234.364C278.423 234.47 278.851 234.552 279.177 234.482C277.578 233.456 275.923 232.69 274.234 231.842Z" fill="#FFC9B0"/>
<path d="M224.977 223.709C223.727 221.894 213.704 205.476 210.258 199.371C208.445 196.142 206.407 192.889 203.389 190.473C201.249 188.752 195.202 184.863 190.855 190.143C190.63 190.426 190.405 190.72 190.202 191.015C189.977 191.357 189.763 191.699 189.571 192.052C186.688 197.285 187.533 204.463 189.245 210.521C189.583 211.711 189.988 212.866 190.461 214.009C193.479 221.352 198.546 230.498 203.546 237.169C210.236 236.65 221.643 230.345 224.977 223.709Z" fill="#8B68B4"/>
<path opacity="0.38" d="M190.044 210.91C191.328 212.713 192.657 214.469 194.042 216.19C196.373 219.077 198.907 221.8 201.463 224.475C203.975 227.104 206.542 229.649 209.245 232.066C210.191 232.914 211.159 233.739 212.139 234.541C209.065 236.014 205.99 236.98 203.547 237.169C198.535 230.498 193.468 221.352 190.461 214.009C189.988 212.866 189.571 211.711 189.245 210.521C189.132 210.12 189.02 209.708 188.918 209.295C189.29 209.837 189.661 210.379 190.044 210.91Z" fill="#8B68B4"/>
<path d="M229.414 174.35L213.952 172.004L212.263 185.346C212.139 186.312 212.409 187.267 213.006 188.033C214.335 189.719 217.139 192.453 221.756 193.019C226.497 193.596 227.094 191.322 227.026 189.907C226.959 188.599 227.128 187.279 227.353 185.971L229.414 174.35Z" fill="#FFC9B0"/>
<path d="M232.184 183.507C219.425 184.014 213.952 171.179 214.324 170.637C214.774 169.965 216.002 170.001 216.981 170.177C223.952 171.415 233.67 174.739 234.774 177.449C235.889 180.172 233.986 183.425 232.184 183.507Z" fill="#FFC9B0"/>
<path d="M202.713 159.582C203.535 159.547 204.504 159.488 205.123 158.875C205.709 158.297 205.833 157.354 206.171 156.647C207.297 154.325 209.83 153.088 212.117 154.726C217.713 158.733 215.078 165.522 214.571 166.595C213.851 168.127 212.319 169.576 210.709 170.083C210.168 170.26 209.177 170.46 209.02 169.671C208.93 169.199 209.448 168.751 209.515 168.339C208.434 168.775 207.544 169.294 206.317 169.341C204.932 169.388 202.623 168.975 201.925 167.585C201.193 166.123 202.601 165.498 203.648 164.897C201.858 164.968 200.101 162.458 199.47 161.032C198.648 159.181 201.61 159.629 202.713 159.582Z" fill="black"/>
<path d="M252.916 129.716C253.479 130.647 253.738 131.72 253.918 132.792C254.391 135.503 254.448 138.296 254.076 141.019C253.918 142.209 253.659 143.423 253.04 144.449C252.173 145.887 250.698 146.818 249.2 147.56C248.276 148.02 247.195 148.432 246.238 148.043C245.596 147.784 245.146 147.207 244.819 146.582C243.716 144.437 244.031 141.868 244.402 139.475C244.752 137.189 245.123 134.867 246.035 132.745C246.711 131.166 247.725 129.657 249.098 128.597C250.607 127.442 251.948 128.125 252.916 129.716Z" fill="black"/>
<path d="M228.727 179.429C237.972 181.763 242.972 179.429 245.686 176.165C245.889 175.917 246.08 175.67 246.261 175.41C248.806 171.757 250.878 163.601 251.486 160.478C251.531 160.207 251.576 159.947 251.632 159.664C251.632 159.629 251.632 159.594 251.643 159.57C252.409 155.115 252.679 150.236 252.522 145.156C251.779 123.588 234.47 114.288 219.763 121.384C214.211 124.071 209.447 129.103 206.643 135.161C206.429 135.621 206.215 136.092 206.024 136.587C197.229 158.25 211.17 175.033 228.727 179.429Z" fill="#FFC9B0"/>
<g opacity="0.21">
<g opacity="0.21">
<path opacity="0.21" d="M243.929 174.963C244.357 175.54 244.977 175.929 245.686 176.165C245.889 175.917 246.08 175.67 246.261 175.411C248.806 171.757 250.878 163.601 251.486 160.478C251.531 160.207 251.576 159.947 251.632 159.664C250.45 159.806 249.357 160.572 248.479 161.409C245.585 164.202 243.738 167.938 243.366 171.792C243.254 172.9 243.276 174.067 243.929 174.963Z" fill="#C87AFF"/>
<path opacity="0.21" d="M216.576 171.391C216.362 171.215 216.148 171.05 215.956 170.861C212.668 167.891 208.952 161.774 212.285 157.178C213.929 154.915 217.015 154.302 219.436 155.268C221.869 156.235 223.693 158.498 224.875 161.008C225.754 162.882 226.339 164.992 226.193 167.125C226.035 169.258 225.056 171.415 223.378 172.546C221.159 174.043 218.501 172.912 216.576 171.391Z" fill="#C87AFF"/>
</g>
</g>
<path d="M197.116 141.361C197.387 143.188 197.781 144.991 198.231 146.782C198.411 147.454 199.155 151.638 199.718 151.827C199.966 151.909 200.202 151.956 200.45 151.945C200.979 151.909 201.452 151.591 201.846 151.19C202.623 150.412 203.355 149.399 204.616 149.599C206.43 149.847 207.792 154.137 209.639 154.208C211.891 154.29 212.781 152.027 213.434 149.811C213.321 147.501 213.535 146.276 212.916 141.396C212.882 141.255 212.882 141.102 212.871 140.96C212.984 140.748 213.096 140.571 213.198 140.442C214.594 138.403 216.925 137.66 218.986 136.564C220.348 135.845 221.43 134.702 222.567 133.688C223.884 132.498 225.033 131.131 225.743 129.469C226.418 127.878 226.812 126.063 227.285 124.401C230.011 127.76 233.592 130.765 237.511 132.639C240.213 133.959 243.243 135.232 246.148 135.975C248.434 136.564 251.981 137.177 253.941 135.456C255.743 133.877 255.653 131.52 255.225 129.304C254.56 125.968 252.342 123.717 249.864 121.584C243.107 115.774 234.459 111.884 225.574 111.424C223.625 111.33 221.666 111.389 219.729 111.648C217.173 111.978 214.661 112.627 212.274 113.617C211.452 113.947 210.652 114.312 209.864 114.736C209.245 115.078 208.637 115.42 208.029 115.809C206.002 117.082 204.087 118.72 202.454 120.594C200.011 123.34 198.141 126.652 197.33 130.2C197.319 130.247 197.319 130.294 197.297 130.341C196.486 133.971 196.565 137.731 197.116 141.361Z" fill="black"/>
<path d="M202.432 120.606C203.918 121.195 206.317 119.51 207.567 119.274C211.047 118.626 207.297 123.812 207.646 125.12C208.04 126.558 209.819 126.617 211.035 126.475C213.04 126.263 214.065 124.849 215.765 124.047C217.026 123.458 218.288 124.083 218.648 125.509C218.907 126.522 217.691 129.103 218.4 129.811C219.47 130.836 222.319 129.174 223.085 128.455C224.515 127.123 225.607 124.566 224.819 122.609C224.605 121.996 223.017 121.808 222.375 121.443C221.047 120.724 219.83 119.816 218.524 119.085C216.666 118.06 214.875 116.657 212.882 115.832C211.993 115.455 210.934 115.066 209.842 114.76C209.222 115.102 208.614 115.443 208.006 115.832C205.979 117.082 204.065 118.732 202.432 120.606Z" fill="#2A164A"/>
<path d="M212.24 113.617C213.198 114.1 214.155 114.595 215.168 114.984C217.387 115.844 219.493 116.811 221.553 118.001C223.333 119.026 225.168 120.052 226.722 121.419C227.646 122.232 228.761 124.153 229.538 124.153C231.385 126.982 235.236 126.852 237.916 125.603C239.493 124.872 239.898 123.682 238.108 122.727C236.159 121.69 233.761 121.714 231.745 120.759C230.157 119.993 228.716 118.661 229.335 116.775C229.729 115.609 231.024 113.829 229.065 113.393C227.578 113.063 225.844 114.583 224.369 114.854C222.972 115.113 222.342 114.819 221.531 113.687C220.9 112.803 220.54 112.143 219.695 111.672C217.139 111.978 214.628 112.627 212.24 113.617Z" fill="#2A164A"/>
<path d="M244.335 156.906C244.099 158.45 244.65 159.818 245.585 159.971C246.508 160.112 247.466 158.981 247.702 157.437C247.939 155.893 247.387 154.526 246.452 154.372C245.529 154.231 244.583 155.363 244.335 156.906Z" fill="black"/>
<path d="M225.044 154.29C224.797 155.893 225.461 157.331 226.542 157.496C227.612 157.661 228.693 156.506 228.941 154.903C229.189 153.3 228.524 151.862 227.443 151.697C226.373 151.52 225.303 152.687 225.044 154.29Z" fill="black"/>
<path d="M239.493 166.748C237.364 166.583 235.225 166.064 233.299 165.133C231.373 164.19 229.74 162.87 228.175 161.421C228.04 161.303 227.804 161.456 227.916 161.621C230.349 165.275 235.202 167.361 239.504 167.196C239.774 167.184 239.774 166.771 239.493 166.748Z" fill="#391B5C"/>
<path d="M239.357 163.012C240.596 162.717 241.857 161.739 241.824 160.336C241.812 159.712 241.542 159.075 241.013 158.733C240.607 158.462 240.101 158.38 239.684 158.12C238.625 157.472 239.143 156.317 239.436 155.363C239.864 153.984 240.191 152.369 240.968 151.143C241.08 150.978 241.407 151.025 241.384 151.261C241.306 152.027 241.024 152.781 240.776 153.5C240.506 154.29 240.247 155.08 239.999 155.869C239.875 156.27 239.526 156.906 239.763 157.307C239.898 157.543 240.236 157.661 240.461 157.767C240.968 157.991 241.429 158.168 241.801 158.604C242.465 159.393 242.578 160.572 242.15 161.491C241.655 162.552 240.517 163.141 239.402 163.283C239.245 163.294 239.211 163.047 239.357 163.012Z" fill="#391B5C"/>
<path d="M244.74 144.355C244.403 145.227 245.63 145.121 247.466 145.663C249.301 146.205 249.414 147.879 249.966 147.808C250.517 147.737 250.439 144.802 248.074 143.789C246.261 143.011 244.966 143.777 244.74 144.355Z" fill="black"/>
<path d="M233.299 142.257C233.468 143.046 231.204 142.716 228.693 142.539C226.182 142.363 224.38 144.237 224.098 143.553C223.817 142.869 225.608 140.654 228.648 140.583C231.689 140.512 233.186 141.738 233.299 142.257Z" fill="black"/>
<path d="M209.121 151.216C207.792 147.656 205.033 144.804 201.08 146.089C199.797 146.501 198.828 147.656 198.389 148.941C197.95 150.226 197.961 151.628 198.152 152.972C198.648 156.366 200.382 159.666 203.22 161.564C204.301 162.283 205.652 162.79 206.869 162.354C208.535 161.741 209.391 159.89 209.774 158.264C210.247 156.272 209.999 153.597 209.121 151.216Z" fill="#FFC9B0"/>
<path opacity="0.3" d="M204.707 147.937C205.675 148.951 206.204 150.354 207.128 151.344C207.781 152.039 208.198 153.064 209.312 151.886C209.324 151.874 209.335 151.85 209.346 151.839C209.279 151.626 209.211 151.414 209.132 151.214C207.894 147.878 205.394 145.168 201.824 145.887C202.882 146.323 203.862 147.053 204.707 147.937Z" fill="#FFC9B0"/>
<path d="M200.878 149.458C201.249 149.187 201.7 149.081 202.15 149.104C203.186 149.175 204.076 149.906 204.628 150.754C205.202 151.638 205.596 152.687 205.911 153.689C206.238 154.738 206.396 155.846 206.328 156.954C206.317 157.178 205.945 157.166 205.945 156.942C205.923 155.127 205.225 153.288 204.369 151.709C204.234 151.473 204.087 151.237 203.918 151.014C203.389 151.768 203.096 152.664 203.04 153.583C202.972 154.691 203.231 155.704 203.569 156.742C203.603 156.848 203.468 156.93 203.4 156.836C202.128 155.009 202.206 152.369 203.637 150.66C203.333 150.33 202.972 150.059 202.533 149.929C201.846 149.717 200.889 149.941 200.484 150.577C200.405 150.695 200.191 150.601 200.225 150.46C200.348 150.059 200.529 149.705 200.878 149.458Z" fill="#391B5C"/>
<path d="M516.644 452.534H521.993L503.941 262.143H489.076L516.644 452.534Z" fill="black"/>
<path d="M217.691 452.534H212.353L230.405 262.143H245.258L217.691 452.534Z" fill="black"/>
<path d="M221.959 245.608H512.387V266.422H221.959V245.608Z" fill="#8C27DA"/>
<path opacity="0.45" d="M221.959 245.608H512.387V253.752H221.959V245.608Z" fill="#8C27DA"/>
<path d="M215.641 239.609H518.705V249.898H215.641V239.609Z" fill="#8C27DA"/>
<path d="M419.504 172.016H340.461C338.907 172.016 337.522 173.017 336.982 174.538L315.743 233.88H400.901L421.802 175.481C422.398 173.807 421.216 172.016 419.504 172.016Z" fill="url(#paint29_linear_34_163)"/>
<path d="M403.78 240.052L278.003 240.052V233.876L403.78 233.876V240.052Z" fill="url(#paint30_linear_34_163)"/>
<path d="M292.984 239.22C289.786 238.56 283.603 236.921 280.09 233.881H278.006V240.057H297.578C296.024 239.809 294.493 239.526 292.984 239.22Z" fill="#8B68B4"/>
<path d="M403.776 240.052H318.618V233.876H403.776V240.052Z" fill="#8B68B4"/>
<path opacity="0.8" d="M327.702 235.766H352.195V238.418H327.702V235.766Z" fill="#8B68B4"/>
<path opacity="0.8" d="M395.349 235.766H401.013V238.418H395.349V235.766Z" fill="#8B68B4"/>
<path opacity="0.8" d="M387.838 235.766H393.502V238.418H387.838V235.766Z" fill="#8B68B4"/>
<path d="M422.387 172.018H343.344C341.79 172.018 340.405 173.02 339.865 174.54L318.626 233.882H403.784L424.685 175.483C425.281 173.809 424.099 172.018 422.387 172.018Z" fill="#FB8FBA"/>
<path opacity="0.51" d="M422.386 172.018H355.787C388.174 172.878 405.483 173.904 412.138 174.929C418.794 175.954 423.276 177.498 422.116 182.637L424.672 175.483C425.28 173.809 424.098 172.018 422.386 172.018Z" fill="url(#paint31_linear_34_163)"/>
<path opacity="0.35" d="M404.2 228.954C386.768 233.904 364.437 232.678 350.518 219.313C343.13 212.23 339.538 201.399 339.673 191.05C339.752 185.216 340.788 178.015 343.378 172.004H343.344C341.79 172.004 340.405 173.006 339.865 174.527L318.626 233.869H403.784L405.709 228.494C405.202 228.659 404.696 228.813 404.2 228.954Z" fill="#FF90BD"/>
<path opacity="0.46" d="M325.371 236.968C325.371 237.911 324.639 238.666 323.749 238.666C322.849 238.666 322.128 237.9 322.128 236.968C322.128 236.026 322.86 235.271 323.749 235.271C324.65 235.26 325.371 236.026 325.371 236.968Z" fill="#8B68B4"/>
<path opacity="0.8" d="M324.831 236.968C324.831 237.593 324.346 238.112 323.738 238.112C323.141 238.112 322.646 237.605 322.646 236.968C322.646 236.344 323.13 235.825 323.738 235.825C324.346 235.825 324.831 236.332 324.831 236.968Z" fill="#8B68B4"/>
<path d="M362.432 213.88L368.423 208.847C368.997 208.364 369.684 208.164 370.281 208.305L376.509 209.743C378.007 210.085 379.673 208.329 379.324 206.773L377.905 200.267C377.77 199.642 377.961 198.923 378.412 198.322L383.175 192.017C384.313 190.508 383.592 188.67 381.937 188.917L375.067 189.931C374.414 190.025 373.84 189.778 373.525 189.271L370.236 183.943C369.448 182.671 367.331 183.283 366.655 184.992L363.829 192.123C363.558 192.807 363.018 193.384 362.365 193.667L355.574 196.672C353.941 197.391 353.367 199.619 354.594 200.432L359.718 203.826C360.202 204.145 360.45 204.757 360.36 205.441L359.448 212.631C359.234 214.339 360.991 215.082 362.432 213.88Z" fill="#414379"/>
<path d="M362.455 211.346L368.93 205.913C369.122 205.748 369.358 205.677 369.561 205.724L376.295 207.268C376.802 207.386 377.365 206.785 377.252 206.254L375.721 199.23C375.676 199.018 375.743 198.77 375.89 198.57L381.036 191.758C381.419 191.239 381.171 190.626 380.619 190.709L373.198 191.805C372.973 191.84 372.781 191.758 372.669 191.581L369.122 185.818C368.851 185.381 368.131 185.594 367.905 186.171L364.853 193.879C364.763 194.115 364.572 194.303 364.358 194.398L357.016 197.651C356.464 197.898 356.261 198.652 356.678 198.923L362.218 202.589C362.387 202.695 362.466 202.907 362.432 203.131L361.441 210.898C361.374 211.499 361.971 211.758 362.455 211.346Z" fill="#383A4F"/>
<path d="M366.689 202.306L368.93 200.42C368.997 200.361 369.076 200.338 369.144 200.361L371.475 200.904C371.655 200.939 371.847 200.739 371.802 200.55L371.272 198.11C371.261 198.04 371.283 197.957 371.329 197.886L373.108 195.529C373.243 195.352 373.153 195.14 372.961 195.164L370.394 195.541C370.315 195.553 370.247 195.529 370.214 195.458L368.986 193.467C368.896 193.313 368.648 193.384 368.57 193.596L367.511 196.26C367.477 196.342 367.41 196.413 367.342 196.437L364.797 197.568C364.606 197.651 364.538 197.91 364.684 198.004L366.599 199.277C366.655 199.312 366.689 199.383 366.678 199.466L366.34 202.153C366.317 202.353 366.52 202.447 366.689 202.306Z" fill="white"/>
<path d="M386.554 214.422C384.786 220.904 378.975 225.913 373.57 225.607C368.164 225.3 365.214 219.808 366.982 213.326C368.75 206.844 374.561 201.835 379.966 202.141C385.371 202.447 388.322 207.94 386.554 214.422Z" fill="white"/>
<path d="M384.763 214.328C383.322 219.62 378.57 223.721 374.144 223.474C369.729 223.226 367.32 218.736 368.761 213.444C370.202 208.152 374.955 204.05 379.38 204.298C383.795 204.533 386.205 209.024 384.763 214.328Z" fill="#C87AFF"/>
<path d="M370.732 213.067C370.833 212.807 371.092 212.725 371.317 212.902C372.072 213.55 372.939 211.912 373.299 211.44C374.065 210.462 374.831 209.484 375.597 208.505C375.889 208.128 376.644 208.305 376.712 208.812C376.802 209.495 376.757 210.167 376.666 210.839C376.779 210.662 376.869 210.485 376.982 210.32C377.398 209.719 378.063 209.13 378.817 209.448C379.617 209.778 379.651 210.757 379.651 211.523C379.639 213.408 379.166 215.247 378.637 217.027C378.502 217.486 378.356 217.934 378.209 218.382C378.085 218.783 378.007 219.278 377.826 219.667C377.86 219.655 377.883 219.643 377.916 219.62C378.074 219.525 378.209 219.384 378.344 219.266C378.637 218.995 378.907 218.7 379.166 218.394C379.763 217.675 380.248 216.826 380.597 215.954C380.867 215.247 381.374 214.009 380.833 213.338C380.563 213.008 380.98 212.572 381.284 212.866C382.444 213.927 381.678 215.954 381.148 217.156C380.811 217.946 380.349 218.665 379.82 219.337C379.369 219.902 378.806 220.586 378.119 220.845C377.466 221.093 376.678 220.845 376.599 220.02C376.554 219.596 376.723 219.136 376.824 218.724C376.959 218.194 377.094 217.675 377.241 217.156C377.759 215.247 378.344 213.338 378.299 211.322C378.299 211.193 378.299 211.051 378.277 210.922V210.91C378.209 210.981 378.13 211.063 378.097 211.122C377.781 211.558 377.522 212.041 377.263 212.524C376.757 213.503 376.374 214.528 376.092 215.589C375.878 216.402 374.842 216.166 374.775 215.4C374.639 213.927 375.09 212.524 375.315 211.087C374.651 211.971 373.975 212.843 373.243 213.656C372.804 214.139 372.173 214.54 371.509 214.375C370.946 214.245 370.495 213.679 370.732 213.067Z" fill="#383A4F"/>
<path d="M445.698 189.554C449.132 186.595 449.414 181.091 448.209 176.955C447.589 174.833 446.959 172.57 446.689 170.366C446.463 168.551 446.294 166.524 446.914 164.768C446.452 165.557 445.911 166.1 445.439 166.889C444.707 168.103 444.245 169.4 443.817 170.755C443.141 172.877 442.634 174.939 442.634 177.19C442.634 179.335 443.141 181.41 443.479 183.519C443.704 184.922 443.873 186.348 444.324 187.692C444.47 188.08 445.134 190.037 445.698 189.554Z" fill="url(#paint32_linear_34_163)"/>
<path d="M448.795 189.919C452.916 188.163 455.855 185.311 457.308 181.303C457.939 179.559 458.355 177.779 458.659 175.953C458.806 175.069 459.042 174.126 459.065 173.218C459.054 173.725 458.626 174.161 458.31 174.515C457.612 175.316 456.824 175.964 456.036 176.66C455.168 177.426 454.369 178.18 453.423 178.84C452.421 179.547 451.328 180.219 450.416 181.079C448.626 182.753 447.162 184.898 446.542 187.35C446.317 188.245 446.407 189.4 446.768 189.73C447.207 190.143 448.074 190.225 448.795 189.919Z" fill="url(#paint33_linear_34_163)"/>
<path d="M445.833 189.424C446.463 188.434 445.45 186.536 444.92 185.77C443.625 183.873 441.655 182.317 439.695 181.221C437.522 179.995 435.146 179.182 432.826 178.322C431.835 177.956 430.788 177.638 429.92 177.013C429.459 176.683 428.749 176.2 428.614 175.587C428.625 178.263 430.472 180.596 432.049 182.541C433.682 184.556 435.506 186.089 437.792 187.196C439.177 187.868 440.517 188.434 441.947 188.964C442.758 189.259 443.592 189.554 444.447 189.589C444.954 189.613 445.574 189.825 445.833 189.424Z" fill="url(#paint34_linear_34_163)"/>
<path d="M430.214 158.875C432.218 160.961 433.817 163.483 435.349 165.958C436.959 168.575 438.434 171.285 439.763 174.079C442.342 179.5 444.425 185.299 445.551 191.251C445.596 191.498 445.27 191.593 445.191 191.357C443.479 185.535 441.509 179.854 438.896 174.397C437.635 171.78 436.25 169.223 434.741 166.76C433.164 164.19 431.351 161.798 429.786 159.228C429.594 158.946 429.988 158.639 430.214 158.875Z" fill="#2A164A"/>
<path d="M448.727 175.411C450.112 170.59 451.993 165.51 455.45 161.904C455.563 161.786 455.777 161.951 455.675 162.092C452.725 166.229 450.867 170.92 449.572 175.87C448.187 181.138 447.77 186.454 447.218 191.864C447.184 192.194 446.768 192.194 446.734 191.864C446.205 186.407 447.229 180.62 448.727 175.411Z" fill="#2A164A"/>
<path d="M456.644 166.135C457.511 166.159 458.581 165.828 459.301 165.31C459.943 164.85 460.225 164.12 460.439 163.353C460.698 162.434 461.193 161.845 461.88 161.232C462.792 160.419 463.783 159.829 464.977 159.676C465.202 159.653 465.855 159.712 465.923 159.405C466.013 159.016 465.045 158.439 464.797 158.309C464.009 157.897 463.04 157.708 462.162 157.696C461.52 157.684 460.855 158.062 460.236 157.979C460.912 157.437 461.407 156.305 461.464 155.445C461.52 154.608 461.238 152.876 460.326 152.546C459.651 152.298 459.673 153.394 459.594 153.842C459.448 154.655 459.121 155.952 458.502 156.506C458.513 155.256 457.849 153.418 456.61 153.017C456.542 153.819 457.128 154.726 456.835 155.539C456.599 155.056 456.306 154.632 455.878 154.266C455.619 154.043 455.214 153.536 454.842 153.559C455.078 154.09 455.09 154.868 455.112 155.457C455.169 156.742 454.178 157.248 453.401 158.073C452.984 158.521 452.455 158.887 452.196 159.464C451.801 160.313 451.801 161.456 451.925 162.363C452.162 163.919 453.446 166.029 456.644 166.135Z" fill="#C87AFF"/>
<path d="M423.671 155.174C423.524 155.127 423.22 155.115 423.175 154.927C423.051 154.396 424.684 154.125 424.955 154.066C425.54 153.937 426.148 153.984 426.734 154.102C426.925 154.137 427.274 154.337 427.353 154.113C427.421 153.913 427.027 153.276 426.948 153.1C426.824 152.829 426.576 152.475 426.621 152.157C427.342 152.027 428.75 152.817 428.896 153.595C429.313 152.982 429.459 152.18 429.921 151.579C430.146 151.273 430.45 150.908 430.788 150.766C430.968 150.695 431.441 150.589 431.61 150.731C431.779 150.872 431.723 151.249 431.711 151.45C431.666 152.133 431.554 152.876 431.711 153.559C431.914 154.432 432.522 154.632 433.198 155.033C433.637 155.304 434.042 155.693 434.369 156.093C434.853 156.694 435.168 157.425 435.214 158.215C435.304 159.735 434.436 161.15 433.355 162.069C433.063 162.328 432.736 162.552 432.398 162.741C430.281 163.919 427.105 164.45 425.855 161.715C425.315 160.525 425.337 159.334 425.439 158.062C425.45 157.861 425.461 157.637 425.371 157.461C425.202 157.107 424.763 156.954 424.425 156.871C424.144 156.801 423.637 156.671 424.099 156.388C424.459 156.152 424.988 156.329 425.382 156.305C425.078 155.987 424.763 155.763 424.391 155.539C424.166 155.386 423.941 155.257 423.671 155.174Z" fill="#C87AFF"/>
<path d="M429.155 217.05C429.155 211.44 431.722 207.657 435.698 205.488C438.333 204.051 440.09 201.328 440.09 198.216V189.306H451.103V198.216C451.103 201.328 452.86 204.051 455.495 205.488C459.47 207.657 462.038 211.44 462.038 217.05C462.038 220.763 460.912 224.723 458.986 228.165C457.241 231.288 453.085 234.859 453.085 238.477H438.108C438.108 234.859 433.952 231.3 432.207 228.165C430.281 224.735 429.155 220.775 429.155 217.05Z" fill="#383A4F"/>
<path d="M439.605 190.815H451.576C451.959 190.815 452.274 190.485 452.274 190.084V189.436C452.274 189.035 451.959 188.705 451.576 188.705H439.605C439.222 188.705 438.907 189.035 438.907 189.436V190.084C438.907 190.485 439.222 190.815 439.605 190.815Z" fill="#5F4436"/>
<path d="M437.702 237.723H453.491C453.874 237.723 454.178 238.041 454.178 238.442V239.078C454.178 239.479 453.874 239.797 453.491 239.797H437.702C437.319 239.797 437.015 239.479 437.015 239.078V238.442C437.015 238.041 437.319 237.723 437.702 237.723Z" fill="#5F4436"/>
<path d="M177.94 67.5413L169.277 61.5241L160.619 67.5413L151.962 61.5241L143.299 67.5413L134.641 61.5241L125.984 67.5413L117.321 61.5241L108.663 67.5413L100 61.5241" stroke="url(#paint35_linear_34_163)" stroke-width="2.8347" stroke-miterlimit="10"/>
<path d="M177.94 58.2822L169.277 52.259L160.619 58.2822L151.962 52.259L143.299 58.2822L134.641 52.259L125.984 58.2822L117.321 52.259L108.663 58.2822L100 52.259" stroke="url(#paint36_linear_34_163)" stroke-width="2.8347" stroke-miterlimit="10"/>
<path d="M554.599 2.24356L545.244 11.5993C540.853 15.9899 548.458 30.7211 562.238 44.4948C576.012 58.2685 590.743 65.8803 595.134 61.4897L604.49 52.1339L554.599 2.24356Z" fill="url(#paint37_linear_34_163)"/>
<path d="M604.49 52.1339C600.099 56.5246 585.368 48.9196 571.594 35.1391C557.82 21.3654 550.209 6.63421 554.599 2.24358C558.99 -2.14705 573.721 5.4579 587.495 19.2384C601.275 33.0122 608.88 47.7433 604.49 52.1339Z" fill="url(#paint38_linear_34_163)"/>
<path d="M574.6 211H570V215.6H574.6V211Z" fill="url(#paint39_linear_34_163)"/>
<path d="M597.35 211H592.75V215.6H597.35V211Z" fill="url(#paint40_linear_34_163)"/>
<path d="M620.1 211H615.5V215.6H620.1V211Z" fill="url(#paint41_linear_34_163)"/>
<path d="M642.85 211H638.25V215.6H642.85V211Z" fill="url(#paint42_linear_34_163)"/>
<path d="M665.6 211H661V215.6H665.6V211Z" fill="url(#paint43_linear_34_163)"/>
<path d="M574.6 227.87H570V232.47H574.6V227.87Z" fill="url(#paint44_linear_34_163)"/>
<path d="M597.35 227.87H592.75V232.47H597.35V227.87Z" fill="url(#paint45_linear_34_163)"/>
<path d="M620.1 227.87H615.5V232.47H620.1V227.87Z" fill="url(#paint46_linear_34_163)"/>
<path d="M642.85 227.87H638.25V232.47H642.85V227.87Z" fill="url(#paint47_linear_34_163)"/>
<path d="M665.6 227.87H661V232.47H665.6V227.87Z" fill="url(#paint48_linear_34_163)"/>
<path d="M574.6 244.74H570V249.34H574.6V244.74Z" fill="url(#paint49_linear_34_163)"/>
<path d="M597.35 244.74H592.75V249.34H597.35V244.74Z" fill="url(#paint50_linear_34_163)"/>
<path d="M620.1 244.74H615.5V249.34H620.1V244.74Z" fill="url(#paint51_linear_34_163)"/>
<path d="M642.85 244.74H638.25V249.34H642.85V244.74Z" fill="url(#paint52_linear_34_163)"/>
<path d="M665.6 244.74H661V249.34H665.6V244.74Z" fill="url(#paint53_linear_34_163)"/>
<path d="M1.52605 306.841L14.2493 309.81C9.65639 326.549 20.0791 343.469 37.4859 347.526C50.0195 350.437 62.8087 345.901 70.7082 336.881C73.7839 333.368 76.1092 329.187 77.4038 324.495L90.127 327.456C88.3212 334.036 85.0476 339.915 80.7351 344.838C69.6527 357.495 51.7099 363.861 34.1216 359.771C9.69762 354.073 -4.9304 330.333 1.52605 306.841Z" fill="url(#paint54_linear_34_163)"/>
<path d="M16.286 318.814L14.2493 309.801C12.897 314.724 12.8475 319.672 13.8865 324.297L15.9232 333.31C14.8842 328.684 14.9337 323.745 16.286 318.814Z" fill="url(#paint55_linear_34_163)"/>
<path d="M80.7351 344.821C69.6527 357.478 51.7099 363.844 34.1217 359.754C16.8797 355.747 4.52754 342.743 1.01483 327.183L3.05154 336.196C6.56425 351.756 18.9164 364.76 36.1584 368.767C53.7466 372.857 71.6895 366.491 82.7718 353.834C87.0843 348.911 90.3579 343.032 92.1638 336.452L90.127 327.439C88.3212 334.019 85.0476 339.898 80.7351 344.821Z" fill="url(#paint56_linear_34_163)"/>
<circle cx="46.6965" cy="310.5" r="11.5" fill="url(#paint57_linear_34_163)"/>
<defs>
<linearGradient id="paint0_linear_34_163" x1="348.796" y1="452.643" x2="348.796" y2="-14.7024" gradientUnits="userSpaceOnUse">
<stop stop-color="#C484F5"/>
<stop offset="1" stop-color="#FFEFED"/>
</linearGradient>
<linearGradient id="paint1_linear_34_163" x1="504.611" y1="422.88" x2="504.611" y2="194.366" gradientUnits="userSpaceOnUse">
<stop stop-color="#C484F5"/>
<stop offset="1" stop-color="#FFEFED"/>
</linearGradient>
<linearGradient id="paint2_linear_34_163" x1="504.617" y1="251.819" x2="504.617" y2="238.08" gradientUnits="userSpaceOnUse">
<stop stop-color="#C484F5"/>
<stop offset="1" stop-color="#FFEFED"/>
</linearGradient>
<linearGradient id="paint3_linear_34_163" x1="504.617" y1="298.55" x2="504.617" y2="284.812" gradientUnits="userSpaceOnUse">
<stop stop-color="#C484F5"/>
<stop offset="1" stop-color="#FFEFED"/>
</linearGradient>
<linearGradient id="paint4_linear_34_163" x1="504.617" y1="345.282" x2="504.617" y2="331.543" gradientUnits="userSpaceOnUse">
<stop stop-color="#C484F5"/>
<stop offset="1" stop-color="#FFEFED"/>
</linearGradient>
<linearGradient id="paint5_linear_34_163" x1="504.617" y1="392.013" x2="504.617" y2="378.274" gradientUnits="userSpaceOnUse">
<stop stop-color="#C484F5"/>
<stop offset="1" stop-color="#FFEFED"/>
</linearGradient>
<linearGradient id="paint6_linear_34_163" x1="513.92" y1="61.7938" x2="513.92" y2="44.4077" gradientUnits="userSpaceOnUse">
<stop stop-color="#C484F5"/>
<stop offset="1" stop-color="#FFEFED"/>
</linearGradient>
<linearGradient id="paint7_linear_34_163" x1="521.158" y1="58.5291" x2="521.158" y2="35.6782" gradientUnits="userSpaceOnUse">
<stop stop-color="#C484F5"/>
<stop offset="1" stop-color="#FFEFED"/>
</linearGradient>
<linearGradient id="paint8_linear_34_163" x1="518.17" y1="73.344" x2="518.17" y2="71.3384" gradientUnits="userSpaceOnUse">
<stop stop-color="#C484F5"/>
<stop offset="1" stop-color="#FFEFED"/>
</linearGradient>
<linearGradient id="paint9_linear_34_163" x1="518.175" y1="61.9352" x2="518.175" y2="57.924" gradientUnits="userSpaceOnUse">
<stop stop-color="#C484F5"/>
<stop offset="1" stop-color="#FFEFED"/>
</linearGradient>
<linearGradient id="paint10_linear_34_163" x1="447.944" y1="73.9053" x2="447.944" y2="46.944" gradientUnits="userSpaceOnUse">
<stop stop-color="#C484F5"/>
<stop offset="1" stop-color="#FFEFED"/>
</linearGradient>
<linearGradient id="paint11_linear_34_163" x1="482.01" y1="73.6151" x2="482.01" y2="24.6281" gradientUnits="userSpaceOnUse">
<stop stop-color="#C484F5"/>
<stop offset="1" stop-color="#FFEFED"/>
</linearGradient>
<linearGradient id="paint12_linear_34_163" x1="492.764" y1="51.7639" x2="492.764" y2="48.0786" gradientUnits="userSpaceOnUse">
<stop stop-color="#C484F5"/>
<stop offset="1" stop-color="#FFEFED"/>
</linearGradient>
<linearGradient id="paint13_linear_34_163" x1="492.764" y1="70.0086" x2="492.764" y2="66.3233" gradientUnits="userSpaceOnUse">
<stop stop-color="#C484F5"/>
<stop offset="1" stop-color="#FFEFED"/>
</linearGradient>
<linearGradient id="paint14_linear_34_163" x1="465.934" y1="73.6269" x2="465.934" y2="28.2374" gradientUnits="userSpaceOnUse">
<stop stop-color="#C484F5"/>
<stop offset="1" stop-color="#FFEFED"/>
</linearGradient>
<linearGradient id="paint15_linear_34_163" x1="449.392" y1="83.6372" x2="449.392" y2="102.678" gradientUnits="userSpaceOnUse">
<stop stop-color="#C484F5"/>
<stop offset="1" stop-color="#FFEFED"/>
</linearGradient>
<linearGradient id="paint16_linear_34_163" x1="449.392" y1="81.996" x2="449.392" y2="87.4738" gradientUnits="userSpaceOnUse">
<stop stop-color="#C484F5"/>
<stop offset="1" stop-color="#FFEFED"/>
</linearGradient>
<linearGradient id="paint17_linear_34_163" x1="519.621" y1="83.6372" x2="519.621" y2="102.678" gradientUnits="userSpaceOnUse">
<stop stop-color="#C484F5"/>
<stop offset="1" stop-color="#FFEFED"/>
</linearGradient>
<linearGradient id="paint18_linear_34_163" x1="519.61" y1="81.996" x2="519.61" y2="87.4738" gradientUnits="userSpaceOnUse">
<stop stop-color="#C484F5"/>
<stop offset="1" stop-color="#FFEFED"/>
</linearGradient>
<linearGradient id="paint19_linear_34_163" x1="581.127" y1="153.418" x2="581.127" y2="127.746" gradientUnits="userSpaceOnUse">
<stop stop-color="#C484F5"/>
<stop offset="1" stop-color="#FFEFED"/>
</linearGradient>
<linearGradient id="paint20_linear_34_163" x1="562.365" y1="153.477" x2="562.365" y2="118.09" gradientUnits="userSpaceOnUse">
<stop stop-color="#C484F5"/>
<stop offset="1" stop-color="#FFEFED"/>
</linearGradient>
<linearGradient id="paint21_linear_34_163" x1="562.365" y1="145.191" x2="562.365" y2="127.417" gradientUnits="userSpaceOnUse">
<stop stop-color="#C484F5"/>
<stop offset="1" stop-color="#FFEFED"/>
</linearGradient>
<linearGradient id="paint22_linear_34_163" x1="524.257" y1="153.1" x2="524.257" y2="129.509" gradientUnits="userSpaceOnUse">
<stop stop-color="#C484F5"/>
<stop offset="1" stop-color="#FFEFED"/>
</linearGradient>
<linearGradient id="paint23_linear_34_163" x1="516.245" y1="163.028" x2="516.245" y2="182.069" gradientUnits="userSpaceOnUse">
<stop stop-color="#C484F5"/>
<stop offset="1" stop-color="#FFEFED"/>
</linearGradient>
<linearGradient id="paint24_linear_34_163" x1="516.245" y1="161.387" x2="516.245" y2="166.865" gradientUnits="userSpaceOnUse">
<stop stop-color="#C484F5"/>
<stop offset="1" stop-color="#FFEFED"/>
</linearGradient>
<linearGradient id="paint25_linear_34_163" x1="586.474" y1="163.028" x2="586.474" y2="182.069" gradientUnits="userSpaceOnUse">
<stop stop-color="#C484F5"/>
<stop offset="1" stop-color="#FFEFED"/>
</linearGradient>
<linearGradient id="paint26_linear_34_163" x1="586.474" y1="161.387" x2="586.474" y2="166.865" gradientUnits="userSpaceOnUse">
<stop stop-color="#C484F5"/>
<stop offset="1" stop-color="#FFEFED"/>
</linearGradient>
<linearGradient id="paint27_linear_34_163" x1="122.05" y1="400.677" x2="122.05" y2="344.971" gradientUnits="userSpaceOnUse">
<stop stop-color="#C484F5"/>
<stop offset="1" stop-color="#FFEFED"/>
</linearGradient>
<linearGradient id="paint28_linear_34_163" x1="121.296" y1="382.892" x2="121.296" y2="372.801" gradientUnits="userSpaceOnUse">
<stop stop-color="#C484F5"/>
<stop offset="1" stop-color="#FFEFED"/>
</linearGradient>
<linearGradient id="paint29_linear_34_163" x1="368.851" y1="233.88" x2="368.851" y2="168.083" gradientUnits="userSpaceOnUse">
<stop stop-color="#C484F5"/>
<stop offset="1" stop-color="#FFEFED"/>
</linearGradient>
<linearGradient id="paint30_linear_34_163" x1="340.892" y1="233.876" x2="340.892" y2="240.444" gradientUnits="userSpaceOnUse">
<stop stop-color="#C484F5"/>
<stop offset="1" stop-color="#FFEFED"/>
</linearGradient>
<linearGradient id="paint31_linear_34_163" x1="390.31" y1="182.637" x2="390.31" y2="171.343" gradientUnits="userSpaceOnUse">
<stop stop-color="#C484F5"/>
<stop offset="1" stop-color="#FFEFED"/>
</linearGradient>
<linearGradient id="paint32_linear_34_163" x1="445.746" y1="189.63" x2="445.746" y2="163.188" gradientUnits="userSpaceOnUse">
<stop stop-color="#C484F5"/>
<stop offset="1" stop-color="#FFEFED"/>
</linearGradient>
<linearGradient id="paint33_linear_34_163" x1="452.742" y1="190.104" x2="452.742" y2="172.145" gradientUnits="userSpaceOnUse">
<stop stop-color="#C484F5"/>
<stop offset="1" stop-color="#FFEFED"/>
</linearGradient>
<linearGradient id="paint34_linear_34_163" x1="437.323" y1="189.666" x2="437.323" y2="174.692" gradientUnits="userSpaceOnUse">
<stop stop-color="#C484F5"/>
<stop offset="1" stop-color="#FFEFED"/>
</linearGradient>
<linearGradient id="paint35_linear_34_163" x1="138.97" y1="67.5413" x2="138.97" y2="61.1417" gradientUnits="userSpaceOnUse">
<stop stop-color="#A734FF"/>
<stop offset="1" stop-color="#D092FF"/>
</linearGradient>
<linearGradient id="paint36_linear_34_163" x1="138.97" y1="58.2822" x2="138.97" y2="51.8761" gradientUnits="userSpaceOnUse">
<stop stop-color="#A734FF"/>
<stop offset="1" stop-color="#D092FF"/>
</linearGradient>
<linearGradient id="paint37_linear_34_163" x1="545.71" y1="10.9261" x2="596.392" y2="60.5786" gradientUnits="userSpaceOnUse">
<stop stop-color="#BF97DE"/>
<stop offset="0.4147" stop-color="#E0BDF7"/>
<stop offset="1" stop-color="#8757B0"/>
</linearGradient>
<linearGradient id="paint38_linear_34_163" x1="587.833" y1="29.6432" x2="461.077" y2="-7.85465" gradientUnits="userSpaceOnUse">
<stop stop-color="#E0BDF7"/>
<stop offset="1" stop-color="#8757B0"/>
</linearGradient>
<linearGradient id="paint39_linear_34_163" x1="667.549" y1="268.789" x2="540.998" y2="195.06" gradientUnits="userSpaceOnUse">
<stop stop-color="#E0BDF7"/>
<stop offset="1" stop-color="#8757B0"/>
</linearGradient>
<linearGradient id="paint40_linear_34_163" x1="673.315" y1="258.895" x2="546.763" y2="185.164" gradientUnits="userSpaceOnUse">
<stop stop-color="#E0BDF7"/>
<stop offset="1" stop-color="#8757B0"/>
</linearGradient>
<linearGradient id="paint41_linear_34_163" x1="679.079" y1="248.998" x2="552.529" y2="175.269" gradientUnits="userSpaceOnUse">
<stop stop-color="#E0BDF7"/>
<stop offset="1" stop-color="#8757B0"/>
</linearGradient>
<linearGradient id="paint42_linear_34_163" x1="684.845" y1="239.103" x2="558.294" y2="165.374" gradientUnits="userSpaceOnUse">
<stop stop-color="#E0BDF7"/>
<stop offset="1" stop-color="#8757B0"/>
</linearGradient>
<linearGradient id="paint43_linear_34_163" x1="690.61" y1="229.207" x2="564.058" y2="155.477" gradientUnits="userSpaceOnUse">
<stop stop-color="#E0BDF7"/>
<stop offset="1" stop-color="#8757B0"/>
</linearGradient>
<linearGradient id="paint44_linear_34_163" x1="660.21" y1="281.385" x2="533.66" y2="207.656" gradientUnits="userSpaceOnUse">
<stop stop-color="#E0BDF7"/>
<stop offset="1" stop-color="#8757B0"/>
</linearGradient>
<linearGradient id="paint45_linear_34_163" x1="665.976" y1="271.49" x2="539.425" y2="197.76" gradientUnits="userSpaceOnUse">
<stop stop-color="#E0BDF7"/>
<stop offset="1" stop-color="#8757B0"/>
</linearGradient>
<linearGradient id="paint46_linear_34_163" x1="671.741" y1="261.594" x2="545.191" y2="187.865" gradientUnits="userSpaceOnUse">
<stop stop-color="#E0BDF7"/>
<stop offset="1" stop-color="#8757B0"/>
</linearGradient>
<linearGradient id="paint47_linear_34_163" x1="677.506" y1="251.698" x2="550.956" y2="177.969" gradientUnits="userSpaceOnUse">
<stop stop-color="#E0BDF7"/>
<stop offset="1" stop-color="#8757B0"/>
</linearGradient>
<linearGradient id="paint48_linear_34_163" x1="683.272" y1="241.803" x2="556.72" y2="168.073" gradientUnits="userSpaceOnUse">
<stop stop-color="#E0BDF7"/>
<stop offset="1" stop-color="#8757B0"/>
</linearGradient>
<linearGradient id="paint49_linear_34_163" x1="652.872" y1="293.981" x2="526.321" y2="220.251" gradientUnits="userSpaceOnUse">
<stop stop-color="#E0BDF7"/>
<stop offset="1" stop-color="#8757B0"/>
</linearGradient>
<linearGradient id="paint50_linear_34_163" x1="658.638" y1="284.086" x2="532.086" y2="210.355" gradientUnits="userSpaceOnUse">
<stop stop-color="#E0BDF7"/>
<stop offset="1" stop-color="#8757B0"/>
</linearGradient>
<linearGradient id="paint51_linear_34_163" x1="664.403" y1="274.19" x2="537.852" y2="200.46" gradientUnits="userSpaceOnUse">
<stop stop-color="#E0BDF7"/>
<stop offset="1" stop-color="#8757B0"/>
</linearGradient>
<linearGradient id="paint52_linear_34_163" x1="670.168" y1="264.294" x2="543.617" y2="190.565" gradientUnits="userSpaceOnUse">
<stop stop-color="#E0BDF7"/>
<stop offset="1" stop-color="#8757B0"/>
</linearGradient>
<linearGradient id="paint53_linear_34_163" x1="675.934" y1="254.398" x2="549.381" y2="180.668" gradientUnits="userSpaceOnUse">
<stop stop-color="#E0BDF7"/>
<stop offset="1" stop-color="#8757B0"/>
</linearGradient>
<linearGradient id="paint54_linear_34_163" x1="30.5021" y1="286.441" x2="100.42" y2="478.334" gradientUnits="userSpaceOnUse">
<stop stop-color="#E0BDF7"/>
<stop offset="1" stop-color="#8757B0"/>
</linearGradient>
<linearGradient id="paint55_linear_34_163" x1="64.8159" y1="382.055" x2="9.82469" y2="315.149" gradientUnits="userSpaceOnUse">
<stop stop-color="#AB83C9"/>
<stop offset="1" stop-color="#7E55A1"/>
</linearGradient>
<linearGradient id="paint56_linear_34_163" x1="76.8512" y1="372.165" x2="21.8588" y2="305.257" gradientUnits="userSpaceOnUse">
<stop stop-color="#AB83C9"/>
<stop offset="1" stop-color="#7E55A1"/>
</linearGradient>
<linearGradient id="paint57_linear_34_163" x1="46.6965" y1="322" x2="46.6965" y2="297.538" gradientUnits="userSpaceOnUse">
<stop stop-color="#A734FF"/>
<stop offset="1" stop-color="#D092FF"/>
</linearGradient>
</defs>
</svg>
