<svg width="19" height="22" viewBox="0 0 19 22" fill="none" xmlns="http://www.w3.org/2000/svg">
<path d="M17.9198 19.2405L15.3967 18.6852L14.6147 21.1539C14.5585 21.3314 14.3181 21.3574 14.2252 21.196L11.1039 15.7738C12.6414 15.4407 14.0094 14.6511 15.0599 13.5537L18.1513 18.9247C18.2441 19.0858 18.1014 19.2804 17.9198 19.2405Z" fill="#FD646F"/>
<path d="M17.9198 19.2405L15.5877 18.7272C15.4795 18.7034 15.3711 18.766 15.3377 18.8716L14.6147 21.1539C14.5585 21.3314 14.3181 21.3574 14.2252 21.196L11.5512 16.5505L11.1039 15.7738C12.6414 15.4407 14.0094 14.6511 15.0599 13.5537L15.5037 14.3244L18.1514 18.9247C18.2441 19.0858 18.1014 19.2805 17.9198 19.2405Z" fill="#FD646F"/>
<path d="M17.9199 19.2406L15.5879 18.7273C15.4796 18.7038 15.3713 18.7663 15.3379 18.8716L15.5889 18.0916C15.6228 17.9864 15.7312 17.9243 15.8391 17.9482L17.8458 18.3943L18.1514 18.9251C18.2443 19.086 18.1013 19.2808 17.9199 19.2406Z" fill="#FC4755"/>
<path d="M8.26949 15.7089L5.0988 21.2159C5.00591 21.3773 4.76552 21.3513 4.70928 21.1738L3.98631 18.8914C3.95288 18.7859 3.84441 18.7233 3.73629 18.7471L1.40418 19.2603C1.2226 19.3003 1.07993 19.1057 1.17269 18.9446L4.12161 13.8213C5.22254 14.865 6.70756 15.4517 8.26949 15.7089Z" fill="#FD646F"/>
<path d="M4.53899 14.5832L1.91123 19.1484L1.40434 19.26C1.22276 19.3001 1.08005 19.1054 1.17281 18.9443L3.68294 14.5832L4.36174 13.4009C4.54451 13.5739 4.73542 13.7383 4.93446 13.8929L4.53899 14.5832Z" fill="#FC4755"/>
<path d="M5.40815 20.6782L5.09867 21.2158C5.00579 21.3772 4.76565 21.3515 4.70915 21.1739L3.98618 18.8915C3.9528 18.7858 3.8445 18.7233 3.73621 18.7468L4.53579 18.571C4.64392 18.5472 4.75234 18.6098 4.78577 18.7153L5.40815 20.6782Z" fill="#FC4755"/>
<path d="M4.19308 13.6909L6.27847 14.6313L8.26961 15.7088L7.73571 16.6356C6.24697 16.3333 4.86567 15.6404 3.72408 14.6198C3.71038 14.6078 3.69668 14.5958 3.68298 14.5833L4.19308 13.6909Z" fill="#FC4755"/>
<path d="M15.5037 14.3244L15.0599 13.5537L12.711 14.5904L11.1039 15.7738L11.2845 16.0874L11.7281 16.8578L14.2252 21.196C14.3181 21.3573 14.5585 21.3313 14.6147 21.1538L14.7738 20.6518L12.2917 16.3285C13.4933 15.9104 14.5872 15.2301 15.5037 14.3244Z" fill="#FC4755"/>
<path d="M17.4307 8.15747C17.4307 10.2518 16.6067 12.1537 15.2657 13.5538C14.2152 14.6512 12.8472 15.4408 11.3097 15.7739C10.7785 15.889 10.2276 15.9495 9.66213 15.9495C9.23066 15.9495 8.80775 15.9143 8.39555 15.8465C6.91366 15.6026 5.5726 14.938 4.49906 13.9789C4.44085 13.9273 4.38392 13.875 4.32741 13.8213C4.12709 13.6316 3.93704 13.431 3.75726 13.2211C3.58519 13.0193 3.42338 12.8085 3.27229 12.5896C2.81856 11.9331 2.46285 11.2028 2.22615 10.4205C2.00998 9.70442 1.89355 8.9449 1.89355 8.15751C1.89355 3.85425 5.37184 0.365479 9.66213 0.365479C10.4467 0.365479 11.2044 0.482249 11.9179 0.699524C12.6982 0.936104 13.4259 1.29288 14.0808 1.7484C14.2991 1.89997 14.5093 2.06225 14.7101 2.23526C14.9789 2.46538 15.2314 2.71399 15.4664 2.97843C16.6885 4.35524 17.4307 6.16963 17.4307 8.15747Z" fill="#FAA515"/>
<path d="M9.66213 13.7383C12.7352 13.7383 15.2264 11.2396 15.2264 8.15723C15.2264 5.07489 12.7352 2.57617 9.66213 2.57617C6.58909 2.57617 4.0979 5.07489 4.0979 8.15723C4.0979 11.2396 6.58909 13.7383 9.66213 13.7383Z" fill="#FAD207"/>
<path d="M15.2262 8.15714C15.2262 11.2394 12.735 13.7381 9.66205 13.7381C6.58912 13.7381 4.0979 11.2394 4.0979 8.15714C4.0979 7.92441 4.11203 7.69515 4.13985 7.47021C4.47715 10.2287 6.82112 12.3642 9.66205 12.3642C12.503 12.3642 14.8469 10.2287 15.1842 7.47021C15.2121 7.69515 15.2262 7.92441 15.2262 8.15714Z" fill="#FAA515"/>
<path fill-rule="evenodd" clip-rule="evenodd" d="M9.66205 2.57666C6.58912 2.57666 4.0979 5.07541 4.0979 8.15763C4.0979 11.2398 6.58912 13.7386 9.66205 13.7386C12.735 13.7386 15.2262 11.2398 15.2262 8.15763C15.2262 5.07541 12.735 2.57666 9.66205 2.57666ZM9.66205 13.0946C6.94782 13.0946 4.73997 10.88 4.73997 8.15763C4.73997 5.43523 6.94782 3.2207 9.66205 3.2207C12.3763 3.2207 14.5841 5.43523 14.5841 8.15763C14.5841 10.88 12.3763 13.0946 9.66205 13.0946Z" fill="#FAF063"/>
<path d="M9.85421 5.07111L10.6186 6.63249C10.6497 6.69609 10.7103 6.74018 10.7804 6.75024L12.4981 6.99705C12.6739 7.02231 12.7443 7.23834 12.617 7.36222L11.3711 8.57542C11.3205 8.62469 11.2975 8.6957 11.3095 8.76526L11.6064 10.4806C11.6368 10.6559 11.4525 10.7895 11.2953 10.7063L9.76218 9.89384C9.69951 9.86063 9.62443 9.86063 9.56177 9.89384L8.02864 10.7063C7.87146 10.7896 7.68719 10.6559 7.71754 10.4806L8.01443 8.76526C8.02646 8.6957 8.00343 8.62469 7.95283 8.57542L6.70693 7.36222C6.57967 7.2383 6.65 7.02231 6.82579 6.99705L8.54358 6.75024C8.61365 6.74018 8.67422 6.69609 8.70538 6.63249L9.46974 5.07111C9.54803 4.91119 9.77592 4.91119 9.85421 5.07111Z" fill="#FAA515"/>
<path d="M15.0491 9.59736C15.223 9.6328 15.3925 9.5207 15.428 9.34648C15.5074 8.95761 15.5476 8.55747 15.5476 8.15703C15.5476 4.90193 12.9073 2.25366 9.66198 2.25366C6.41663 2.25366 3.77637 4.90193 3.77637 8.15703C3.77637 11.4121 6.41663 14.0604 9.66198 14.0604C11.874 14.0604 13.8791 12.8348 14.8947 10.862C14.9761 10.7039 14.9143 10.5097 14.7568 10.4281C14.5993 10.3465 14.4056 10.4085 14.3242 10.5665C13.4193 12.3243 11.6328 13.4164 9.66202 13.4164C6.77071 13.4164 4.41848 11.057 4.41848 8.15699C4.41848 5.25695 6.77071 2.89761 9.66202 2.89761C12.5533 2.89761 14.9056 5.25695 14.9056 8.15699C14.9056 8.51411 14.8697 8.87084 14.799 9.2173C14.7635 9.39156 14.8755 9.56171 15.0491 9.59736Z" fill="#143F6B"/>
<path d="M13.2339 6.95963C13.1961 6.84282 13.0953 6.75781 12.9742 6.74039L10.8819 6.43977L9.95028 4.53673C9.84387 4.30024 9.48028 4.30028 9.37391 4.53673L8.44232 6.43973L6.35004 6.74034C6.09261 6.76881 5.98076 7.11582 6.17193 7.29008L7.68845 8.76683L7.32692 10.8556C7.27436 11.1092 7.56808 11.3241 7.79319 11.1954L9.66207 10.2051L11.531 11.1954C11.7557 11.3241 12.0499 11.1092 11.9972 10.8556L11.6357 8.76683L13.1522 7.29008C13.2401 7.2046 13.2718 7.0764 13.2339 6.95963ZM11.0668 8.42333C10.9906 8.49747 10.956 8.60452 10.9741 8.70943L11.2528 10.3197L9.81202 9.55619C9.71819 9.50649 9.60591 9.50649 9.51209 9.55619L8.07133 10.3197L8.35003 8.70943C8.36818 8.60452 8.33347 8.49747 8.25732 8.42333L7.0882 7.28486L8.7012 7.05307C8.80624 7.03796 8.89707 6.97183 8.94386 6.87625L9.66203 5.40921L10.3802 6.87625C10.427 6.97179 10.5178 7.03796 10.6229 7.05307L12.2359 7.28486L11.0668 8.42333Z" fill="#143F6B"/>
<path d="M18.6712 19.1836L15.5334 13.7324C16.9073 12.2775 17.7513 10.3143 17.7513 8.15699C17.7513 3.68316 14.1225 0.043457 9.66213 0.043457C8.28977 0.043457 6.93399 0.394496 5.74124 1.05865C5.5862 1.14499 5.5303 1.34099 5.61638 1.4965C5.70242 1.65192 5.89786 1.70799 6.05286 1.62174C7.15049 1.01054 8.39854 0.687492 9.66213 0.687492C13.7685 0.687492 17.1092 4.03835 17.1092 8.15704C17.1092 12.2758 13.7685 15.6266 9.66213 15.6266C5.55577 15.6266 2.21505 12.2758 2.21505 8.15699C2.21505 5.94743 3.18273 3.86332 4.87004 2.43914C5.00569 2.32463 5.02311 2.12148 4.90895 1.98545C4.79479 1.84938 4.59228 1.83183 4.45664 1.94641C2.62405 3.49324 1.57299 5.75691 1.57299 8.15699C1.57299 10.318 2.41979 12.2843 3.79788 13.7399L2.90921 15.2837C2.69626 15.6411 3.25974 15.9716 3.46524 15.6057L4.27309 14.2023C5.23957 15.07 6.41447 15.7084 7.71221 16.0318L4.94195 20.8444L4.23333 18.6074C4.18312 18.4488 4.02063 18.3548 3.85857 18.3904L1.57277 18.8934L2.71608 16.9071C2.80473 16.7531 2.75212 16.5562 2.59858 16.4673C2.445 16.3784 2.2487 16.4311 2.16005 16.5851L0.652992 19.2033C0.510025 19.4333 0.73706 19.7458 0.999793 19.6788L3.71004 19.0824L4.55025 21.7349C4.6237 21.9958 5.00595 22.0383 5.13423 21.7983L8.37534 16.1675C8.79448 16.235 9.22415 16.2706 9.662 16.2706C10.1034 16.2706 10.5365 16.2344 10.959 16.1658L12.9056 19.5477C12.965 19.651 13.073 19.7087 13.1839 19.7087C13.2384 19.7087 13.2936 19.6948 13.3441 19.6655C13.4977 19.5766 13.5503 19.3797 13.4616 19.2257L11.6218 16.0293C12.919 15.7043 14.0931 15.0645 15.0585 14.1956L17.7513 18.8737L15.4655 18.3708C15.3034 18.3351 15.141 18.4292 15.0907 18.5878L14.3821 20.8248L14.2107 20.527C14.122 20.373 13.9257 20.3203 13.7722 20.4092C13.6186 20.4982 13.566 20.6951 13.6547 20.8491L14.1898 21.7787C14.3181 22.0187 14.7003 21.9761 14.7737 21.7153L15.614 19.0628L18.3242 19.6592C18.5872 19.7259 18.8141 19.4136 18.6712 19.1836Z" fill="#143F6B"/>
</svg>
