<svg width="32" height="16" viewBox="0 0 32 16" fill="none" xmlns="http://www.w3.org/2000/svg">
<g opacity="0.8">
<path d="M15.1671 16C19.7889 16 23.5357 15.1175 23.5357 14.0289C23.5357 12.9403 19.7889 12.0579 15.1671 12.0579C10.5452 12.0579 6.79846 12.9403 6.79846 14.0289C6.79846 15.1175 10.5452 16 15.1671 16Z" fill="#2A164A"/>
<path d="M0 5.50092L16.5397 0L32 7.05969V7.25953L16.001 11.187L0 5.70076V5.50092Z" fill="#8B68B4"/>
<path d="M0 5.70078L16.5397 0.197754L32 7.25955L16.001 11.3847L0 5.70078Z" fill="#2A164A"/>
<path d="M15.1671 3.98853C10.546 3.98853 6.79846 4.87204 6.79846 5.9596V14.029C6.79846 12.9394 10.544 12.0579 15.1671 12.0579C19.7902 12.0579 23.5357 12.9415 23.5357 14.029V5.9596C23.5357 4.87204 19.7881 3.98853 15.1671 3.98853Z" fill="#8B68B4"/>
<path d="M19.8775 9.61967H19.3909V1.2915L19.8775 1.50397V9.61967Z" fill="#FFC200"/>
<path d="M20.4973 11.6979H18.7462V8.73816C18.7462 8.24802 19.1393 7.85254 19.6218 7.85254C20.1063 7.85254 20.4973 8.25012 20.4973 8.73816V11.6979Z" fill="#FFD400"/>
</g>
</svg>
