<svg width="19" height="17" viewBox="0 0 19 17" fill="none" xmlns="http://www.w3.org/2000/svg">
<path d="M19 0H0V16H19V0Z" fill="white"/>
<path opacity="0.4" d="M19 13H0.448701C0.201613 13 0 12.7722 0 12.4892V0H19V13Z" fill="#8B68B4"/>
<path opacity="0.83" d="M19 12H1.26455C1.11843 12 1 11.8667 1 11.7021V0H19V12Z" fill="white"/>
<g opacity="0.36">
<path opacity="0.36" d="M17.0134 3.2148C16.8202 2.99117 16.4379 3.06094 16.1835 3.05379C15.4204 3.03053 14.6572 3.0198 13.8927 3.02516C13.8505 3.02516 13.8124 3.06094 13.8124 3.10924C13.8056 3.82663 13.8247 4.54222 13.8682 5.25782C13.554 4.74975 13.2139 4.25241 12.8126 3.82484C12.7908 3.80158 12.7459 3.832 12.7663 3.86241C13.1499 4.42594 13.5485 4.97158 13.89 5.56552C13.924 5.62456 14.026 5.61025 14.0219 5.52974C13.9797 4.75332 13.9607 3.97511 13.9702 3.19691C14.5756 3.20227 15.1823 3.21122 15.7877 3.22553C16.087 3.23269 16.3903 3.22553 16.6896 3.25236C17.0243 3.28278 16.9522 3.62805 17.0338 3.87851C17.0501 3.9286 17.1086 3.9286 17.1276 3.8803C17.2038 3.67814 17.1535 3.37759 17.0134 3.2148Z" fill="#2A164A"/>
<path opacity="0.36" d="M16.8936 4.68718C16.7997 4.80346 16.6828 5.06823 16.5032 5.00919C16.3998 4.9752 16.3726 4.81598 16.3399 4.72117C16.3032 4.61562 16.2665 4.51007 16.2298 4.40452C16.2121 4.35264 16.14 4.3258 16.11 4.38484C16.0583 4.48681 16.0026 4.58699 15.9373 4.68002C15.891 4.74621 15.774 4.93942 15.6788 4.89649C15.6026 4.8625 15.5741 4.70328 15.5645 4.61204C15.6162 4.48144 15.6421 4.34011 15.623 4.19163C15.6149 4.13259 15.5237 4.11649 15.5006 4.17195C15.4448 4.30612 15.4203 4.44566 15.4299 4.59057C15.4108 4.63351 15.389 4.67465 15.3646 4.7158C15.2829 4.84819 15.1632 5.01277 15.0217 5.07181C14.834 5.15052 14.7197 4.95195 14.6749 4.78378C14.6504 4.69076 14.5905 4.34906 14.7157 4.33296C14.7551 4.32759 14.7429 4.26498 14.7075 4.26319C14.6844 4.2614 14.6626 4.25961 14.6395 4.25782C14.6272 4.25603 14.6109 4.26498 14.6055 4.2775C14.5171 4.47608 14.5089 4.70686 14.5851 4.91259C14.6517 5.09328 14.7918 5.25965 14.9877 5.22924C15.1836 5.19883 15.3346 5.00562 15.4462 4.84282C15.4543 4.8303 15.4611 4.81598 15.4693 4.80346C15.4965 4.89291 15.5373 4.97878 15.6026 5.02351C15.8148 5.16484 16.0325 4.82493 16.1549 4.59415C16.193 4.70864 16.2311 4.82493 16.2746 4.93764C16.3168 5.04855 16.3808 5.13621 16.4964 5.15768C16.7426 5.20419 16.9127 4.95731 16.9507 4.72475C16.9535 4.69254 16.9181 4.65676 16.8936 4.68718Z" fill="#2A164A"/>
<path opacity="0.36" d="M17.9915 2.75507C17.9616 2.71929 17.9194 2.71571 17.8772 2.71213C17.8364 2.70855 17.7942 2.69961 17.7562 2.68351C17.7004 2.65846 17.6446 2.60479 17.6378 2.53681C17.6351 2.47062 17.5399 2.46704 17.5399 2.53502C17.5399 2.54039 17.5412 2.54397 17.5426 2.54933H17.5412C17.5535 2.63878 17.5562 2.7336 17.533 2.82126C17.5222 2.86598 17.5058 2.90713 17.4814 2.94649C17.4623 2.9769 17.4188 3.03415 17.382 3.03415C17.3467 3.03415 17.3385 2.97153 17.3344 2.94291C17.3263 2.87851 17.3222 2.8141 17.3195 2.7497C17.3154 2.62089 17.3222 2.49387 17.3399 2.36686C17.344 2.34181 17.3031 2.33466 17.2991 2.3597C17.2773 2.47777 17.2651 2.59943 17.2637 2.71929C17.2623 2.78011 17.2637 2.84094 17.2678 2.89998C17.2705 2.9447 17.2732 2.99121 17.2882 3.03236C17.3018 3.06635 17.3249 3.09676 17.3603 3.10571C17.4065 3.11823 17.4487 3.08782 17.4814 3.05741C17.5426 3.00195 17.582 2.92323 17.6051 2.84273C17.6147 2.80516 17.6201 2.76759 17.6256 2.73002C17.6432 2.74791 17.6623 2.76222 17.6841 2.77475C17.7317 2.80337 17.7834 2.81768 17.8364 2.82663C17.8895 2.83557 17.9466 2.84452 17.9901 2.80337C18.0037 2.79085 18.0024 2.76759 17.9915 2.75507Z" fill="#2A164A"/>
<path opacity="0.36" d="M12.5474 8.49597C12.5066 8.55858 12.4059 8.56037 12.3515 8.52101C12.278 8.46913 12.2454 8.36537 12.2195 8.2795C12.2018 8.22046 12.1325 8.20794 12.0998 8.25982C12.0386 8.35463 11.9787 8.45124 11.9175 8.54606C11.8903 8.58899 11.7556 8.83229 11.7366 8.68381C11.7067 8.4584 11.7475 8.20257 11.7896 7.98253C11.806 7.90023 11.6876 7.86087 11.6713 7.94496C11.6318 8.14532 11.557 8.33317 11.4455 8.49775C11.3598 8.62298 11.1693 8.88418 11.0006 8.83766C10.9 8.81083 10.8836 8.67665 10.87 8.58363C10.8523 8.47092 10.8483 8.35642 10.8524 8.24193C10.8632 8.01115 10.9217 7.78574 11.0197 7.58179C11.0455 7.52633 10.9707 7.47624 10.9435 7.5317C10.8238 7.76964 10.7558 8.03441 10.7462 8.30454C10.7394 8.50133 10.7354 8.85913 10.9394 8.94858C11.1435 9.03803 11.357 8.80904 11.4754 8.65876C11.5244 8.59615 11.5665 8.52996 11.606 8.46197V8.46376C11.6019 8.57647 11.572 8.77326 11.6713 8.85018C11.7624 8.92174 11.8713 8.85555 11.9311 8.77326C12.0059 8.6695 12.0726 8.55858 12.1406 8.44766C12.1842 8.54785 12.244 8.63908 12.3447 8.67307C12.4603 8.71422 12.5909 8.66592 12.6235 8.53174C12.6372 8.48165 12.5746 8.45303 12.5474 8.49597Z" fill="#2A164A"/>
<path opacity="0.36" d="M13.7568 8.73385C13.7377 8.69449 13.6969 8.6605 13.6683 8.63009C13.6343 8.59431 13.6003 8.55674 13.5663 8.52096C13.5541 8.50665 13.5405 8.49413 13.5282 8.47982C13.5377 8.4494 13.5486 8.42078 13.5568 8.39037C13.6085 8.21326 13.6466 8.03257 13.6452 7.84651C13.6452 7.80179 13.584 7.80179 13.5813 7.84473C13.5663 8.02541 13.5146 8.19895 13.4493 8.36711C13.4466 8.37427 13.4439 8.38142 13.4412 8.38679C13.4167 8.35995 13.3922 8.33312 13.3663 8.30807L12.9582 7.89303C12.9188 7.85188 12.8603 7.91271 12.897 7.95743C13.0249 8.1095 13.1528 8.25977 13.2793 8.41183C13.3133 8.45119 13.3473 8.49055 13.3813 8.52812C13.3704 8.55316 13.3595 8.58 13.3486 8.60683C13.3119 8.69271 13.2684 8.78394 13.2425 8.87339C13.2208 8.95032 13.3269 9.00399 13.3623 8.93064C13.4044 8.84656 13.4357 8.75174 13.467 8.66229C13.4697 8.65335 13.4724 8.6444 13.4752 8.63546L13.565 8.73564C13.5976 8.77321 13.6302 8.8233 13.6765 8.8394C13.7364 8.86266 13.7812 8.78931 13.7568 8.73385Z" fill="#2A164A"/>
<path opacity="0.36" d="M17.2283 7.96096C17.2107 7.92876 17.1726 7.94486 17.1685 7.97706C17.1508 8.12197 17.0719 8.29908 16.9304 8.33665C16.7631 8.38137 16.6162 8.21142 16.6216 8.03789C16.6243 7.94307 16.4869 7.91624 16.4652 8.01105C16.4298 8.16849 16.374 8.42789 16.1904 8.4422C15.9265 8.46188 15.8884 8.09872 15.9061 7.89477C15.9142 7.81248 15.7904 7.7928 15.7727 7.8733C15.7251 8.09871 15.5945 8.34381 15.385 8.43147C15.0749 8.56027 15.0354 8.13449 15.049 7.90729C15.0531 7.83216 14.9388 7.8089 14.9239 7.88583C14.9225 7.89119 14.9225 7.89835 14.9212 7.90372C14.9212 7.9055 14.9212 7.90729 14.9212 7.90908C14.9144 7.9556 14.9116 8.00748 14.9116 8.06115C14.8939 8.17564 14.8518 8.2955 14.7742 8.35454C14.7429 8.3778 14.6844 8.40105 14.66 8.3778C14.6382 8.35812 14.6464 8.27583 14.6477 8.24005C14.6518 8.13807 14.6817 8.04326 14.7293 7.9556C14.7484 7.92161 14.7021 7.89298 14.6817 7.92339C14.6069 8.0361 14.4328 8.5066 14.679 8.52986C14.7851 8.54059 14.8803 8.40821 14.9334 8.32413C14.9375 8.31697 14.9416 8.30803 14.9456 8.30087C14.996 8.47977 15.1048 8.62468 15.3034 8.60858C15.5143 8.5889 15.6762 8.4261 15.7823 8.2311C15.8244 8.42073 15.9346 8.58353 16.1428 8.60858C16.3414 8.63183 16.4624 8.48693 16.5373 8.31339C16.6243 8.45472 16.7753 8.54775 16.9399 8.51734C17.1698 8.47619 17.3576 8.19353 17.2283 7.96096Z" fill="#2A164A"/>
<path opacity="0.36" d="M9.9354 0.567052C9.92724 0.529483 9.88371 0.509805 9.85242 0.529483C8.86207 1.16457 7.86492 1.79788 6.89634 2.47411C6.86233 2.43833 6.82559 2.40613 6.78478 2.38109C6.76982 2.37214 6.74669 2.37572 6.73853 2.39361C6.72357 2.42581 6.71813 2.45443 6.73717 2.48664C6.74806 2.50453 6.77254 2.49379 6.76982 2.47232V2.47054C6.78615 2.49021 6.80247 2.5081 6.81879 2.52778C6.72901 2.5904 6.63787 2.65122 6.54944 2.71563C6.52496 2.73352 6.54536 2.77466 6.57121 2.75856C6.6678 2.69774 6.76302 2.63512 6.85961 2.5743C6.8977 2.61902 6.93443 2.66375 6.96708 2.71563C7.03101 2.8176 7.08271 2.92852 7.11808 3.0448C7.13984 3.11815 7.16297 3.20223 7.17385 3.28631C6.76438 3.25232 6.35627 3.20402 5.9468 3.14677C5.8883 3.13962 5.87198 3.24696 5.93047 3.25948C6.3413 3.34177 6.75758 3.39544 7.17793 3.42764C7.17113 3.51351 7.14664 3.59223 7.08543 3.65306C7.07319 3.66558 7.07726 3.69241 7.09495 3.69599C7.20922 3.72462 7.26091 3.59223 7.27452 3.49205C7.27724 3.47416 7.27724 3.45448 7.27724 3.4348C8.24582 3.50099 9.22665 3.44732 10.1762 3.30599C10.202 3.30241 10.2224 3.27021 10.2224 3.24338C10.2088 2.34173 10.1177 1.44545 9.9354 0.567052ZM8.02408 3.32746C7.77377 3.32567 7.52483 3.30957 7.27588 3.29168C7.26772 3.22012 7.25139 3.14856 7.23371 3.08058C7.19562 2.94104 7.13848 2.80865 7.06366 2.68879C7.02829 2.63154 6.98748 2.57251 6.94259 2.51884C7.90845 1.90521 8.86479 1.27549 9.83881 0.677969C9.98709 1.50448 10.0796 2.34173 10.1014 3.18255C9.41302 3.28631 8.71923 3.33462 8.02408 3.32746Z" fill="#2A164A"/>
<path opacity="0.36" d="M11.3842 1.40076C11.3189 1.40612 11.2563 1.44369 11.1978 1.47053C11.1366 1.49915 11.0768 1.52956 11.0155 1.55998C10.8918 1.62259 10.7584 1.67805 10.6442 1.75677C10.6265 1.76929 10.636 1.80328 10.6591 1.79612C10.7884 1.75677 10.9122 1.68699 11.0359 1.62796C11.0972 1.59933 11.1597 1.57071 11.2196 1.5403C11.2795 1.50989 11.3502 1.48305 11.3978 1.43296C11.4073 1.42401 11.4005 1.40076 11.3842 1.40076Z" fill="#2A164A"/>
<path opacity="0.36" d="M11.8644 1.12697C11.8222 1.09656 11.7664 1.11087 11.7202 1.11624C11.659 1.12518 11.5964 1.13413 11.5352 1.14128C11.474 1.15023 11.4114 1.15917 11.3502 1.16633C11.3189 1.16991 11.289 1.17527 11.2577 1.18243C11.2264 1.18959 11.1883 1.19137 11.1611 1.21105C11.1407 1.22715 11.1434 1.25578 11.1665 1.26651C11.1897 1.27725 11.2155 1.27367 11.24 1.27188C11.2672 1.27188 11.293 1.27188 11.3203 1.2683C11.3733 1.26293 11.4264 1.25757 11.4794 1.2522L11.6386 1.2361C11.6875 1.23073 11.7392 1.22 11.7882 1.22179H11.7896C11.7828 1.24326 11.7733 1.26293 11.7651 1.2844C11.746 1.32913 11.7243 1.37206 11.6998 1.415C11.6767 1.45615 11.6522 1.49371 11.625 1.53128C11.6114 1.55096 11.595 1.56885 11.5828 1.58853C11.5678 1.61 11.561 1.63325 11.5501 1.6583C11.5352 1.69408 11.5787 1.72092 11.6059 1.7066C11.6603 1.67798 11.6916 1.63683 11.7284 1.58495C11.7624 1.53665 11.7923 1.48656 11.8195 1.43468C11.8467 1.3828 11.8698 1.33092 11.8902 1.27546C11.9106 1.22537 11.9134 1.16275 11.8644 1.12697Z" fill="#2A164A"/>
<path opacity="0.36" d="M14.5879 0.865895C14.5402 0.855161 14.4926 0.849794 14.445 0.837271C14.3933 0.822959 14.3512 0.794335 14.3022 0.776445C14.245 0.754978 14.1906 0.763922 14.1417 0.80328C14.0886 0.846216 14.0587 0.912408 14.0151 0.966078C13.9077 1.09667 13.8084 0.948188 13.7594 0.835482C13.7349 0.778234 13.6587 0.808647 13.656 0.864106C13.6492 0.9625 13.5431 0.994702 13.4751 0.951766C13.4098 0.912408 13.3826 0.835482 13.3812 0.756767C13.3799 0.699519 13.3118 0.676262 13.2819 0.726354C13.2139 0.83906 13.135 0.946399 13.0411 1.03406C12.969 1.10204 12.8915 1.05016 12.8629 0.964289C12.8384 0.890941 12.8425 0.812225 12.8684 0.740666C12.886 0.670895 12.7935 0.64406 12.7704 0.708464C12.7405 0.830115 12.682 0.939243 12.5908 1.01975C12.5255 1.077 12.4045 1.11993 12.3528 1.02333C12.3174 0.957133 12.312 0.83906 12.3188 0.762134C12.3201 0.753189 12.3065 0.7514 12.3052 0.760345C12.2725 0.865895 12.2249 0.957133 12.2752 1.06984C12.3106 1.14855 12.3854 1.20222 12.4684 1.19328C12.584 1.18255 12.6806 1.09489 12.7527 0.989335C12.7745 1.09131 12.8303 1.17897 12.9337 1.20044C13.0806 1.23264 13.2152 1.05016 13.3064 0.899886C13.3404 0.996491 13.403 1.077 13.5064 1.0931C13.5934 1.10741 13.6737 1.06268 13.7213 0.991124C13.8097 1.12172 13.943 1.22011 14.0791 1.077C14.1471 1.00544 14.1825 0.85695 14.294 0.907042C14.3988 0.955344 14.4886 0.994702 14.596 0.92672C14.6151 0.914198 14.6151 0.873051 14.5879 0.865895Z" fill="#2A164A"/>
<path opacity="0.36" d="M14.7811 1.6154C14.694 1.58677 14.5974 1.60824 14.5049 1.58498C14.4097 1.56173 14.3172 1.52773 14.2206 1.517C14.1295 1.50627 14.041 1.52416 13.9621 1.57425C13.9132 1.60466 13.7186 1.77104 13.6914 1.6315C13.6819 1.58319 13.6248 1.57067 13.5935 1.60108C13.5037 1.68695 13.3949 1.78356 13.267 1.77104C13.1541 1.7603 13.0493 1.61361 13.1622 1.51879C13.2058 1.48301 13.15 1.39893 13.1051 1.43471C12.9718 1.54026 12.9936 1.75851 13.1337 1.84617C13.3024 1.95172 13.4778 1.8587 13.6166 1.74241C13.6588 1.79072 13.7241 1.81576 13.7894 1.80861C13.92 1.79608 14.0043 1.66191 14.1349 1.6476C14.2601 1.63507 14.3825 1.69411 14.5036 1.72095C14.6015 1.74241 14.7335 1.76746 14.8001 1.66728C14.8137 1.64939 14.8015 1.62076 14.7811 1.6154Z" fill="#2A164A"/>
</g>
<path d="M12.9808 16.0275H1C1.17264 15.0865 1.81536 12.0005 2.78969 11.3099C3.60162 10.7375 4.57595 10.2419 5.89386 10.0577C5.98274 10.0433 6.06992 10.0344 6.16052 10.0255C6.28188 10.0111 6.40324 9.99862 6.53144 9.99325C6.53144 9.99325 6.53144 9.99325 6.53486 9.99325C6.90579 9.97357 7.30236 9.97357 7.72628 10.004H7.74337C7.82884 10.0093 7.91431 10.0183 7.99977 10.029C8.08011 10.0344 8.15874 10.0469 8.23908 10.0577C10.3604 10.3654 12.1996 11.6856 12.5569 13.5462C12.6116 13.8306 12.6595 14.0882 12.7005 14.319V14.3226C12.868 15.2368 12.9449 15.7663 12.9808 16.0275Z" fill="#69A0F4"/>
<path d="M9.00323 16.0275H5.99307C5.91273 15.1885 5.7076 12.5157 5.68196 12.0488C5.62897 11.0702 5.66829 10.5532 5.86658 10.292C5.94008 10.1936 6.03751 10.131 6.16058 10.0934C6.2922 10.0559 6.45459 10.0451 6.65288 10.0505C6.81014 10.0541 6.98791 10.0684 7.19303 10.0827C7.2973 10.0916 7.39473 10.1006 7.48191 10.1113C7.69045 10.1346 7.86139 10.1632 7.99984 10.2043C8.15368 10.2473 8.27162 10.3027 8.36393 10.3707C8.60666 10.5496 8.66136 10.8323 8.72802 11.2813C8.83058 12.0166 8.99297 15.1437 9.00323 16.0275Z" fill="#8B68B4"/>
<path d="M8.15024 8.28833H5.98108V10.3135H8.15024V8.28833Z" fill="#E79F8B"/>
<path d="M13.2202 8.64606C13.1792 7.9072 13.2886 7.14331 13.6424 6.50285C13.7228 6.35615 13.9074 6.2023 14.0236 6.32037C14.0749 6.37225 14.0817 6.45455 14.0834 6.5279C14.0988 7.09858 14.0475 7.66927 13.9313 8.22743C14.0168 8.0378 14.2475 7.93941 14.439 8.00381C14.6304 8.06821 14.7603 8.28289 14.7467 8.4922C14.7962 8.27931 15.1073 8.25427 15.2577 8.40633C15.4082 8.5584 15.4321 8.79812 15.4338 9.01817C15.509 8.91083 15.6834 8.94124 15.7654 9.045C15.8458 9.14876 15.856 9.29188 15.856 9.42606C15.8526 9.83573 15.7723 10.2526 15.5654 10.5978C15.3586 10.9449 15.0116 11.2133 14.6219 11.2544C13.3894 11.3868 13.2681 9.52624 13.2202 8.64606Z" fill="#E79F8B"/>
<path d="M13.7382 10.8197C13.7382 10.8197 12.7126 10.2132 13.0698 9.537C13.4271 8.86077 14.4732 9.21141 14.251 9.60677C14.0288 10.0039 13.5382 9.93237 13.5382 9.93237L13.7382 10.8197Z" fill="#E79F8B"/>
<path d="M5.90924 9.76062C6.02376 9.7481 6.58614 10.1971 7.18954 10.1649C7.79294 10.1327 8.09378 9.84113 8.18438 9.74452C8.27326 9.64791 8.76897 10.6819 8.69376 10.7947C8.61855 10.9074 8.39804 11.3492 8.17754 11.2687C7.95703 11.1882 7.33483 10.41 7.33483 10.41C7.33483 10.41 6.77075 11.351 6.5605 11.351C6.35025 11.351 5.66993 11.0201 5.63403 10.5031C5.59813 9.98603 5.76223 9.77672 5.90924 9.76062Z" fill="white"/>
<path d="M15.7226 10.8197L15.6782 16.0275H12.4082L12.7005 14.3226V14.3208L13.3142 10.7482L13.6406 10.7571H13.6441L13.6748 10.7607H13.7244L15.4081 10.8126L15.7226 10.8197Z" fill="#69A0F4"/>
<path d="M9.54681 2.85872C9.48698 2.81399 9.41177 2.81936 9.33655 2.8945C9.27331 2.9589 9.20664 3.07697 9.18271 3.16463C9.09725 3.46876 9.12972 3.80509 9.17759 4.0967C9.22203 4.36505 9.29382 4.6316 9.41348 4.86238C9.4186 4.87133 9.42373 4.88206 9.42886 4.89101C9.48698 4.99835 9.55535 5.09674 9.6374 5.1844C9.65449 5.18977 9.66988 5.19692 9.68868 5.19692C9.74509 5.19514 9.79979 5.15578 9.84252 5.11284C10.1348 4.81945 10.0699 4.35252 10.0152 4.01261C9.95021 3.61367 9.81005 3.23977 9.60151 2.91954C9.58612 2.8945 9.56732 2.87303 9.54681 2.85872Z" fill="#2A164A"/>
<path d="M9.93311 5.485C9.93311 7.42963 9.6391 9.09697 7.69215 9.22757C5.18112 9.39573 4.15723 7.42785 4.15723 5.485C4.15723 3.54216 5.44949 1.96607 7.04602 1.96607C8.64084 1.96428 9.93311 3.54037 9.93311 5.485Z" fill="#E79F8B"/>
<path d="M6.86311 7.25065C6.93661 7.12005 7.32634 7.15226 7.78445 7.09859C8.30238 7.03776 8.66305 6.934 8.75364 6.98588C8.92458 7.08427 8.57245 7.87501 7.9041 7.9412C7.42548 7.9895 6.72978 7.48859 6.86311 7.25065Z" fill="white"/>
<path d="M6.37769 2.9822C6.90929 3.31674 7.43748 3.66559 8.01011 3.91068C8.66308 4.18976 9.37759 4.28279 9.98612 3.82839C10.1263 3.72284 10.3006 3.50279 10.087 3.38651C9.9468 3.30958 9.76048 3.32926 9.60835 3.31495C9.78099 3.33105 9.9656 3.29169 10.1006 3.17899C10.2357 3.06628 10.316 2.87307 10.2699 2.70133C10.2357 2.5761 10.1417 2.47591 10.0425 2.39541C9.73826 2.15032 9.35537 2.02867 8.97589 1.94995C8.90923 1.93564 8.84256 1.92491 8.7759 1.91238C8.82889 1.83546 8.87846 1.74959 8.86308 1.65835C8.84598 1.56174 8.76222 1.49555 8.68017 1.44188C8.03062 1.02683 7.21014 1.00179 6.4358 1C5.89052 1 5.3196 1.00895 4.83244 1.26477C4.6051 1.38284 4.37262 1.58142 4.34698 1.83546C3.81879 1.87839 3.36411 2.30417 3.18463 2.80688C3.00515 3.30958 3.06668 3.87133 3.24787 4.37045C3.42906 4.86958 3.65128 5.43311 3.82563 5.53866C3.99999 5.64421 4.00853 5.51898 4.21878 5.62453C4.42903 5.73008 4.4427 6.04316 4.60338 6.05568C4.76406 6.0682 4.75893 5.62095 4.80167 5.41343C4.88884 4.99302 4.88543 4.5583 4.9897 4.14146C5.1008 3.69064 5.34182 3.26665 5.67515 2.92137C5.72814 2.86591 5.78796 2.81046 5.85634 2.77825C5.87343 2.76931 6.04949 2.81403 6.07855 2.82298C6.17769 2.8516 6.27171 2.91601 6.35888 2.97146C6.36572 2.97325 6.37256 2.97862 6.37769 2.9822Z" fill="#2A164A"/>
<path d="M4.1795 5.60652C3.97096 5.20937 3.65815 4.94102 3.35218 5.21652C3.25304 5.30597 3.20175 5.47593 3.19663 5.64588C3.19321 5.81583 3.23081 5.98758 3.2838 6.1468C3.41713 6.54753 3.65302 6.90175 3.94874 7.05024C4.05985 7.10569 4.18976 7.12895 4.28206 7.03771C4.40855 6.91427 4.43248 6.66024 4.42222 6.45093C4.41026 6.19152 4.31796 5.87129 4.1795 5.60652Z" fill="#E79F8B"/>
<path d="M3.42566 5.63339C3.4496 5.59045 3.4872 5.56183 3.5248 5.55289C3.6154 5.52963 3.71112 5.59403 3.78121 5.68169C3.85471 5.77293 3.91625 5.88922 3.97095 6.00371C4.02735 6.12178 4.07009 6.25417 4.09402 6.39192C4.09915 6.41876 4.06667 6.42949 4.06154 6.40265C4.01026 6.18082 3.90257 5.97509 3.78633 5.80871C3.76924 5.78367 3.74873 5.75862 3.72822 5.73715C3.70258 5.84449 3.70087 5.96256 3.72138 6.07706C3.74531 6.21481 3.79488 6.3311 3.85129 6.44917C3.85642 6.46169 3.84787 6.476 3.83932 6.46527C3.68035 6.27921 3.61711 5.95362 3.69403 5.70137C3.65814 5.67096 3.62053 5.6477 3.5795 5.64412C3.51455 5.63876 3.43934 5.69422 3.42054 5.78545C3.41712 5.80156 3.39661 5.79619 3.3949 5.7783C3.3949 5.72284 3.40173 5.67454 3.42566 5.63339Z" fill="#391B5C"/>
<path d="M10.2305 4.65674C10.1638 4.4993 10.0151 4.40986 9.86641 4.41343C9.70402 4.4188 9.53992 4.42953 9.37411 4.43669C9.09036 4.44921 8.79807 4.45279 8.50577 4.4832C8.29552 4.50467 8.128 4.60485 8.11433 4.8571C8.11433 4.86068 8.11433 4.86426 8.11433 4.86605L8.11261 4.86426C8.02373 4.81596 7.92459 4.8088 7.82887 4.83385C7.73314 4.86068 7.64938 4.91614 7.57417 4.9877L7.57247 4.98949C7.56734 4.94118 7.56391 4.89109 7.55708 4.84279C7.52118 4.58875 7.33658 4.49573 7.11265 4.48499C6.79129 4.47068 6.4631 4.48499 6.13148 4.48678C5.9332 4.48857 5.73321 4.48678 5.53151 4.49215C5.34177 4.49573 5.16229 4.60843 5.0922 4.79091C5.05289 4.89467 5.04605 5.00917 5.0546 5.12187C5.05118 5.12187 5.04605 5.12366 5.04263 5.12366C4.99135 5.13082 4.93836 5.13976 4.88708 5.14692C4.79307 5.16123 4.70076 5.17554 4.60675 5.18807C4.51445 5.20238 4.42214 5.22027 4.32813 5.23816C4.28026 5.2471 4.22727 5.25247 4.18454 5.27394C4.15548 5.28825 4.11959 5.32582 4.14181 5.36339C4.18625 5.43495 4.31616 5.40274 4.38624 5.39738C4.47684 5.39022 4.56743 5.38306 4.65803 5.37054C4.74862 5.35802 4.83922 5.34728 4.92981 5.33476C4.97597 5.32761 5.02212 5.32224 5.06656 5.31508C5.07169 5.31508 5.07511 5.31329 5.08024 5.31329C5.13152 5.64962 5.19476 5.99669 5.30416 6.31155C5.3486 6.44215 5.40672 6.56916 5.53834 6.62283C5.66141 6.67114 5.80671 6.65682 5.93491 6.65504C6.10243 6.65146 6.26994 6.64251 6.43575 6.62462C6.73488 6.59421 7.04428 6.55664 7.32461 6.4654C7.59298 6.37953 7.62203 6.12907 7.61691 5.86788C7.61178 5.64247 7.60836 5.4099 7.59298 5.18091C7.67161 5.11829 7.75536 5.06284 7.84596 5.03421C7.87843 5.02348 7.90749 5.01811 7.94168 5.0199C7.95877 5.0199 7.95878 5.0199 7.97587 5.02527C7.98271 5.02706 7.98784 5.02884 7.99467 5.03063C7.99809 5.03242 8.00151 5.03242 8.00493 5.03421C7.99809 5.03063 7.99809 5.03063 8.00493 5.03421C8.01861 5.04137 8.03057 5.04852 8.04254 5.05747C8.04425 5.05926 8.04595 5.05926 8.04595 5.06105C8.05279 5.06641 8.05792 5.07357 8.06305 5.08073C8.06476 5.08251 8.07501 5.09862 8.06988 5.08967C8.06475 5.08073 8.07672 5.10398 8.07843 5.10577C8.08185 5.11114 8.08527 5.11829 8.08014 5.10756C8.08869 5.12545 8.0904 5.13618 8.10065 5.1505C8.10407 5.15586 8.1092 5.15765 8.11433 5.16123C8.11945 5.39559 8.13655 5.63173 8.15193 5.86251C8.16902 6.11834 8.2186 6.35806 8.48183 6.40279C8.74849 6.44751 9.02883 6.43857 9.28865 6.42247C9.43052 6.41352 9.57069 6.39921 9.70915 6.37953C9.81342 6.36343 9.92965 6.35806 10.0237 6.29724C10.1228 6.23283 10.1587 6.11297 10.1826 5.9949C10.2476 5.68004 10.2698 5.34013 10.2835 5.01811C10.2886 4.90004 10.2801 4.76944 10.2305 4.65674Z" fill="black"/>
<path d="M7.42551 6.05752C7.41184 6.19349 7.3503 6.25252 7.22723 6.28294C6.76742 6.39743 6.24778 6.46183 5.75377 6.435C5.58284 6.42605 5.54011 6.34197 5.48541 6.18812C5.43584 6.05216 5.39652 5.91261 5.36575 5.77128C5.31618 5.54587 5.2461 5.31509 5.25807 5.08074C5.27345 4.76945 5.40165 4.72294 5.68198 4.72115C5.81702 4.72115 5.94864 4.71936 6.08197 4.71936C6.3435 4.71757 6.60332 4.71936 6.85801 4.71399C6.96228 4.7122 7.07168 4.70147 7.17424 4.71399C7.2956 4.7283 7.34517 4.77303 7.36056 4.90363C7.39304 5.16661 7.40671 5.43317 7.41868 5.69615C7.4238 5.81601 7.43748 5.93945 7.42551 6.05752Z" fill="white"/>
<path d="M10.092 5.53326C10.0784 5.66028 10.0578 5.78729 10.0305 5.91252C9.99802 6.05564 9.97067 6.13436 9.83563 6.16298C9.43223 6.25064 8.97754 6.26317 8.55191 6.21665C8.43568 6.20413 8.37072 6.15583 8.34679 6.02523C8.32628 5.91252 8.32628 5.79087 8.32115 5.67638C8.30918 5.41876 8.29893 5.15757 8.30748 4.89996C8.31089 4.77294 8.35363 4.72642 8.46644 4.70317C8.56217 4.68528 8.66131 4.68707 8.75703 4.68349C8.98438 4.67276 9.21001 4.65665 9.43222 4.64234C9.54162 4.63519 9.65273 4.62803 9.76042 4.62266C9.98434 4.60835 10.0869 4.64413 10.1228 4.91606C10.1501 5.12358 10.1125 5.3311 10.092 5.53326Z" fill="white"/>
</svg>
