<svg width="72" height="50" viewBox="0 0 72 50" fill="none" xmlns="http://www.w3.org/2000/svg">
<path d="M1.18838 0L11.0964 2.31165C7.51972 15.3468 15.6362 28.5232 29.1914 31.6824C38.9517 33.9491 48.9111 30.4174 55.0626 23.3926C57.4578 20.6572 59.2685 17.4016 60.2767 13.7479L70.1847 16.0531C68.7784 21.1773 66.2292 25.7556 62.8709 29.5891C54.2407 39.4457 40.2681 44.4029 26.5716 41.218C7.55183 36.7809 -3.83946 18.2941 1.18838 0Z" fill="url(#paint0_linear_34_68)"/>
<path d="M12.6824 9.3236L11.0964 2.30518C10.0433 6.13866 10.0048 9.9914 10.8138 13.5937L12.3999 20.6122C11.5908 17.0098 11.6293 13.1635 12.6824 9.3236Z" fill="url(#paint1_linear_34_68)"/>
<path d="M62.8709 29.5762C54.2407 39.4328 40.2681 44.39 26.5716 41.2051C13.1448 38.0844 3.52573 27.9581 0.790283 15.8412L2.37633 22.8596C5.11178 34.9765 14.7308 45.1028 28.1576 48.2235C41.8541 51.4085 55.8268 46.4513 64.4569 36.5947C67.8152 32.7612 70.3645 28.1828 71.7707 23.0587L70.1847 16.0402C68.7784 21.1644 66.2292 25.7427 62.8709 29.5762Z" fill="url(#paint2_linear_34_68)"/>
<defs>
<linearGradient id="paint0_linear_34_68" x1="23.753" y1="-15.8862" x2="78.1999" y2="133.547" gradientUnits="userSpaceOnUse">
<stop stop-color="#E0BDF7"/>
<stop offset="1" stop-color="#8757B0"/>
</linearGradient>
<linearGradient id="paint1_linear_34_68" x1="50.4741" y1="58.5711" x2="7.65078" y2="6.46946" gradientUnits="userSpaceOnUse">
<stop stop-color="#AB83C9"/>
<stop offset="1" stop-color="#7E55A1"/>
</linearGradient>
<linearGradient id="paint2_linear_34_68" x1="59.8464" y1="50.8693" x2="17.0221" y2="-1.23347" gradientUnits="userSpaceOnUse">
<stop stop-color="#AB83C9"/>
<stop offset="1" stop-color="#7E55A1"/>
</linearGradient>
</defs>
</svg>
